<?xml version="1.0" standalone="no"?>
<!DOCTYPE svg PUBLIC "-//W3C//DTD SVG 1.1//EN" "http://www.w3.org/Graphics/SVG/1.1/DTD/svg11.dtd" >
<svg>
<metadata>
Created by FontForge 20090622 at Wed Aug 10 06:16:39 2016
 By deploy user
Copyright &#226;&#147;&#146; 2013 Sandoll Communications Inc. All rights reserved.
</metadata>
<defs>
<font id="SDGothicNeoaTTF-fSm" horiz-adv-x="920" >
  <font-face 
    font-family="Sandoll GothicNeo1 TTF 06 Sb"
    font-weight="400"
    font-stretch="normal"
    units-per-em="1000"
    panose-1="2 11 6 0 0 1 1 1 1 1"
    ascent="800"
    descent="-200"
    x-height="502"
    cap-height="690"
    bbox="-62 -200 938 800"
    underline-thickness="50"
    underline-position="-50"
    unicode-range="U+0001-U+FFE6"
  />
<missing-glyph 
d="M860 -150h-800v900h800v-900zM460 271l-335 -385h670zM100 -83l334 384l-334 384v-768zM459 330l334 384h-667zM820 686l-334 -386l334 -384v770z" />
    <glyph glyph-name=".notdef" 
d="M860 -150h-800v900h800v-900zM460 271l-335 -385h670zM100 -83l334 384l-334 384v-768zM459 330l334 384h-667zM820 686l-334 -386l334 -384v770z" />
    <glyph glyph-name="uni0001" horiz-adv-x="280" 
 />
    <glyph glyph-name="uni0001" unicode="&#xa0;" horiz-adv-x="280" 
 />
    <glyph glyph-name="uni0001" unicode=" " horiz-adv-x="280" 
 />
    <glyph glyph-name="uni0001" horiz-adv-x="280" 
 />
    <glyph glyph-name="uni0001" horiz-adv-x="280" 
 />
    <glyph glyph-name="uni0001" horiz-adv-x="280" 
 />
    <glyph glyph-name="uni0001" horiz-adv-x="280" 
 />
    <glyph glyph-name="uni0001" horiz-adv-x="280" 
 />
    <glyph glyph-name="uni0001" horiz-adv-x="280" 
 />
    <glyph glyph-name="uni0001" horiz-adv-x="280" 
 />
    <glyph glyph-name="uni0001" horiz-adv-x="280" 
 />
    <glyph glyph-name="uni0001" horiz-adv-x="280" 
 />
    <glyph glyph-name="uni0001" horiz-adv-x="280" 
 />
    <glyph glyph-name="uni0001" horiz-adv-x="280" 
 />
    <glyph glyph-name="uni0001" horiz-adv-x="280" 
 />
    <glyph glyph-name="uni0001" horiz-adv-x="280" 
 />
    <glyph glyph-name="uni0001" horiz-adv-x="280" 
 />
    <glyph glyph-name="uni0001" horiz-adv-x="280" 
 />
    <glyph glyph-name="uni0001" horiz-adv-x="280" 
 />
    <glyph glyph-name="uni0001" horiz-adv-x="280" 
 />
    <glyph glyph-name="uni0001" horiz-adv-x="280" 
 />
    <glyph glyph-name="uni0001" unicode="&#xd;" horiz-adv-x="280" 
 />
    <glyph glyph-name="uni0001" horiz-adv-x="280" 
 />
    <glyph glyph-name="uni0001" horiz-adv-x="280" 
 />
    <glyph glyph-name="uni0001" unicode="&#xa;" horiz-adv-x="280" 
 />
    <glyph glyph-name="uni0001" unicode="&#x9;" horiz-adv-x="280" 
 />
    <glyph glyph-name="uni0001" horiz-adv-x="280" 
 />
    <glyph glyph-name="uni0001" horiz-adv-x="280" 
 />
    <glyph glyph-name="uni0001" horiz-adv-x="280" 
 />
    <glyph glyph-name="uni0001" horiz-adv-x="280" 
 />
    <glyph glyph-name="uni0001" horiz-adv-x="280" 
 />
    <glyph glyph-name="uni0001" horiz-adv-x="280" 
 />
    <glyph glyph-name="uni0001" horiz-adv-x="280" 
 />
    <glyph glyph-name="uni0001" horiz-adv-x="280" 
 />
    <glyph glyph-name="exclam" unicode="!" horiz-adv-x="295" 
d="M89 63h117v-115h-117v115zM86 713h122l-13 -543h-95z" />
    <glyph glyph-name="quotedbl" unicode="&#x22;" horiz-adv-x="391" 
d="M52 703h112l-11 -200h-89zM225 703h113l-12 -200h-88z" />
    <glyph glyph-name="numbersign" unicode="#" horiz-adv-x="557" 
d="M214 281h111l21 126h-110zM64 496h105l32 207h81l-33 -207h111l33 207h81l-32 -207h78v-89h-94l-19 -126h86v-89h-100l-35 -217h-81l35 217h-111l-35 -217h-80l33 217h-83v89h98l20 126h-90v89z" />
    <glyph glyph-name="dollar" unicode="$" horiz-adv-x="546" 
d="M182 -164l6 57.5t7 57.5q-50 5 -89 16.5t-68 28.5v83q36 -17 78 -28.5t88 -16.5q8 66 14.5 130t15.5 127q-45 15 -81 31.5t-60.5 39.5t-37.5 56t-13 82q0 43 14.5 79.5t44 63.5t74 42.5t103.5 15.5q3 16 4.5 31t3.5 32h72l-4 -34.5l-4 -34.5q37 -5 63 -14.5t48 -19.5v-86
q-25 10 -54 19.5t-66 14.5q-8 -60 -14.5 -118.5t-12.5 -118.5q45 -12 80.5 -29.5t59.5 -42t36.5 -59t12.5 -80.5q0 -96 -57.5 -153t-179.5 -61l-13 -111h-71zM396 151q0 46 -20 72.5t-73 46.5q-8 -59 -14 -118t-14 -118q63 7 92 38.5t29 78.5zM146 510q0 -23 4 -40.5t15 -31
t30.5 -24.5t49.5 -21q5 56 11 110.5t13 110.5q-60 -2 -91.5 -30t-31.5 -74z" />
    <glyph glyph-name="percent" unicode="%" horiz-adv-x="914" 
d="M214 362q42 0 61.5 29.5t19.5 93.5v26q0 122 -81 122q-39 0 -59.5 -29t-20.5 -92v-26q0 -65 20 -94.5t60 -29.5zM701 18q42 0 61 29t19 94v24q0 64 -20 93.5t-60 29.5q-39 0 -60 -29t-21 -93v-24q0 -66 20 -95t61 -29zM660 709h87l-502 -791h-88zM701 -49q-81 0 -128 50
t-47 141v17q0 43 12.5 79.5t35.5 62.5t55 40.5t72 14.5q80 0 127 -51t47 -140v-16q0 -45 -12 -81.5t-34.5 -62.5t-55 -40t-72.5 -14zM214 296q-81 0 -127.5 50.5t-46.5 139.5v18q0 44 12.5 80t35 62t54.5 40.5t72 14.5q80 0 127.5 -51t47.5 -139v-18q0 -44 -12.5 -80.5
t-35 -62.5t-55 -40t-72.5 -14z" />
    <glyph glyph-name="ampersand" unicode="&#x26;" horiz-adv-x="687" 
d="M240 532q0 -30 12.5 -56.5t35.5 -55.5l12 -14q20 10 39 22.5t34 28.5t24.5 35.5t9.5 44.5q0 39 -23 62t-58 23q-37 0 -61.5 -22.5t-24.5 -67.5zM300 31q42 0 77.5 13t63.5 36l-195 231q-43 -24 -71 -56.5t-28 -85.5q0 -63 38 -100.5t115 -37.5zM297 -52q-122 0 -191 53
t-69 157q0 40 12 72t33 57.5t50 46t64 37.5q-33 40 -48.5 77t-15.5 78q0 45 16 78t43 54.5t62 32t73 10.5q39 0 73 -11t59 -32t39 -50.5t14 -66.5q0 -38 -13 -67t-35.5 -51.5t-52 -40.5t-62.5 -33l154 -185q15 32 24 69.5t13 79.5h95q-11 -127 -73 -220l110 -133h-130
l-48 58q-40 -34 -89.5 -52t-106.5 -18z" />
    <glyph glyph-name="quotesingle" unicode="'" horiz-adv-x="217" 
d="M52 703h112l-11 -200h-89z" />
    <glyph glyph-name="parenleft" unicode="(" horiz-adv-x="352" 
d="M249 -151q-38 37 -73 83.5t-61.5 102t-42.5 120t-16 136.5v19q0 72 16 136t42.5 119.5t61.5 102t73 83.5h92q-36 -40 -68.5 -88.5t-56.5 -103.5t-38 -115.5t-14 -124.5v-29q0 -62 14 -123.5t38 -118.5t56.5 -108t68.5 -91h-92z" />
    <glyph glyph-name="parenright" unicode=")" horiz-adv-x="352" 
d="M11 -151q36 40 68.5 89t56.5 104t38 115.5t14 124.5v29q0 62 -14 123t-38 118t-56.5 107.5t-68.5 91.5h92q39 -37 74 -84t61.5 -102.5t42 -119t15.5 -135.5v-19q0 -72 -15.5 -136.5t-42 -120t-61.5 -102t-74 -83.5h-92z" />
    <glyph glyph-name="asterisk" unicode="*" horiz-adv-x="401" 
d="M167 484l-92 -61l-37 67l98 47l-98 47l37 67l92 -60l-4 112h76l-4 -112l90 60l38 -67l-97 -47l97 -47l-38 -67l-90 61l4 -113h-76z" />
    <glyph glyph-name="plus" unicode="+" horiz-adv-x="546" 
d="M228 267h-185v89h185v193h95v-193h186v-89h-186v-193h-95v193z" />
    <glyph glyph-name="comma" unicode="," horiz-adv-x="266" 
d="M80 61h119l-47 -238h-88z" />
    <glyph glyph-name="hyphen" unicode="-" horiz-adv-x="412" 
d="M44 356h317v-90h-317v90z" />
    <glyph glyph-name="period" unicode="." horiz-adv-x="266" 
d="M75 63h117v-115h-117v115z" />
    <glyph glyph-name="slash" unicode="/" horiz-adv-x="371" 
d="M256 751h94l-253 -902h-94z" />
    <glyph glyph-name="zero" unicode="0" horiz-adv-x="680" 
d="M338 34q39 0 68 14t49 44t30 77t10 114v66q0 132 -39.5 193.5t-116.5 61.5t-117 -59.5t-40 -189.5v-66q0 -131 39 -193t117 -62zM338 -53q-57 0 -107 19.5t-87 61.5t-58 107.5t-21 157.5v51q0 96 22.5 162.5t60.5 107.5t87.5 59t104.5 18t103.5 -18t85.5 -59t58.5 -106.5
t21.5 -159.5v-54q0 -94 -21.5 -160t-58 -107.5t-86 -60.5t-105.5 -19z" />
    <glyph glyph-name="one" unicode="1" horiz-adv-x="425" 
d="M177 569l-127 -28v65l179 81h59v-732h-111v614z" />
    <glyph glyph-name="two" unicode="2" horiz-adv-x="568" 
d="M60 24l153 160l69.5 75.5t56 71.5t37 69t13.5 70q0 69 -35.5 100t-107.5 31q-42 0 -83 -16.5t-72 -36.5l-22 84q35 22 87.5 41t114.5 19q116 0 175 -55.5t59 -153.5q0 -48 -16.5 -91t-44.5 -84.5t-63.5 -81l-74.5 -79.5l-98 -98h307v-89h-455v64z" />
    <glyph glyph-name="three" unicode="3" horiz-adv-x="570" 
d="M252 -51q-65 0 -118.5 15t-83.5 36l20 82q15 -9 34.5 -17t41.5 -14t45 -9.5t43 -3.5q81 0 123.5 33.5t42.5 96.5t-43 92t-118 30l-70 1v85l63 1q66 1 105.5 31t39.5 85q0 59 -36 83.5t-98 24.5q-42 0 -81.5 -13.5t-72.5 -30.5l-13 84q16 10 39 19.5t49 16t53 10.5t53 4
q49 0 89.5 -12t69.5 -34.5t44.5 -56t15.5 -76.5q0 -66 -36 -107.5t-97 -61.5q34 -7 63.5 -20.5t50.5 -35t33 -52t12 -71.5q0 -49 -18.5 -88.5t-52.5 -67.5t-82.5 -43.5t-109.5 -15.5z" />
    <glyph glyph-name="four" unicode="4" horiz-adv-x="610" 
d="M369 187v315l-215 -315h215zM368 102h-328v70l353 514h80v-499h113v-85h-113v-148h-105v148z" />
    <glyph glyph-name="five" unicode="5" horiz-adv-x="539" 
d="M237 -53q-63 0 -116.5 15t-88.5 37l20 86q30 -18 73 -32.5t86 -14.5q80 0 125 39.5t45 109.5q0 75 -43 107.5t-123 32.5q-18 0 -38.5 -3.5t-40.5 -9t-38 -12t-31 -12.5l27 390h371v-89h-286l-13 -195q20 5 47 9.5t48 4.5q109 0 171.5 -55t62.5 -169q0 -50 -17.5 -93.5
t-50.5 -75.5t-81 -51t-109 -19z" />
    <glyph glyph-name="six" unicode="6" horiz-adv-x="603" 
d="M311 32q63 0 99 39.5t36 111.5q0 39 -10 66.5t-28 44.5t-43 25t-55 8q-23 0 -44 -7t-40 -18.5t-34.5 -26t-25.5 -28.5v-7q0 -48 8 -86.5t25.5 -65.5t45 -41.5t66.5 -14.5zM313 -53q-127 0 -192.5 85t-65.5 236v53q0 99 22.5 169.5t62.5 115t94.5 65t118.5 20.5
q54 0 99.5 -14t68.5 -28l-25 -81q-10 6 -26 11.5t-34.5 10t-38 7.5t-37.5 3q-43 0 -77 -12t-59 -41.5t-39.5 -79.5t-18.5 -125q28 26 71.5 47.5t101.5 21.5q46 0 85.5 -15t68.5 -43t45.5 -68.5t16.5 -91.5q0 -52 -16 -97t-47 -78t-76 -52t-103 -19z" />
    <glyph glyph-name="seven" unicode="7" horiz-adv-x="537" 
d="M383 588h-345v89h466v-67l-270 -653h-123z" />
    <glyph glyph-name="eight" unicode="8" horiz-adv-x="623" 
d="M326 377q46 19 79 50.5t33 78.5q0 44 -32 72.5t-96 28.5q-58 0 -92.5 -25.5t-34.5 -72.5q0 -51 37 -83t106 -49zM308 30q34 0 62 8.5t48 23.5t31 36t11 47q0 60 -42.5 92t-128.5 56q-26 -9 -49.5 -22.5t-42.5 -31.5t-30 -40.5t-11 -48.5q0 -56 41.5 -88t110.5 -32z
M310 -54q-62 0 -110 14t-82 40t-51.5 62t-17.5 80q0 34 13 63.5t34 53.5t49 42t58 30q-29 12 -53.5 28t-42.5 37t-28 48t-10 61q0 41 17 75.5t48.5 59t75.5 38.5t99 14q109 0 173 -47t64 -132q0 -31 -11 -57t-30 -47t-44 -38.5t-53 -30.5q32 -11 62 -27t53 -38.5t37 -52.5
t14 -69q0 -44 -18 -82t-52 -66t-83 -43.5t-111 -15.5z" />
    <glyph glyph-name="nine" unicode="9" horiz-adv-x="603" 
d="M286 605q-63 0 -98 -43t-35 -113q0 -39 10.5 -67.5t29.5 -46.5t44 -27t55 -9q22 0 44 7t40.5 18.5t34 25.5t25.5 28v19q0 47 -8.5 85.5t-27 65.5t-47 42t-67.5 15zM284 691q128 0 195.5 -81.5t67.5 -235.5v-48q0 -100 -21 -172t-59.5 -118t-92.5 -67.5t-120 -21.5
q-55 0 -102.5 14t-72.5 31l22 81q12 -7 28.5 -13.5t36.5 -11.5t41 -8t42 -3q41 0 74.5 12t57.5 40.5t38 76t17 119.5q-29 -29 -72 -49.5t-101 -20.5q-46 0 -85.5 15.5t-69 44.5t-46 70.5t-16.5 93.5t15.5 98t45.5 80t74.5 54t102.5 20z" />
    <glyph glyph-name="colon" unicode=":" horiz-adv-x="289" 
d="M87 126h116v-113h-116v113zM87 518h116v-113h-116v113z" />
    <glyph glyph-name="semicolon" unicode=";" horiz-adv-x="289" 
d="M86 102h119l-47 -238h-88zM87 518h116v-113h-116v113z" />
    <glyph glyph-name="less" unicode="&#x3c;" horiz-adv-x="518" 
d="M53 254v83l398 242v-99l-290 -184l290 -183v-100z" />
    <glyph glyph-name="equal" unicode="=" horiz-adv-x="568" 
d="M64 239h440v-86h-440v86zM64 460h440v-86h-440v86z" />
    <glyph glyph-name="greater" unicode="&#x3e;" horiz-adv-x="518" 
d="M56 13v100l290 183l-290 184v99l398 -242v-83z" />
    <glyph glyph-name="question" unicode="?" horiz-adv-x="480" 
d="M133 63h117v-115h-117v115zM141 221q0 28 7 48.5t21 38t34 35t47 38.5q34 28 48.5 62.5t14.5 79.5q0 55 -33 77t-93 22q-47 0 -77.5 -7.5t-63.5 -18.5v82q36 16 76 24t93 8q43 0 82 -10t67.5 -32t45.5 -56t17 -83q0 -34 -6 -61t-19 -51t-33.5 -46t-49.5 -46
q-20 -15 -34.5 -27.5t-25 -25t-15.5 -26.5t-5 -33v-43h-98v51z" />
    <glyph glyph-name="at" unicode="@" horiz-adv-x="954" 
d="M439 78q34 0 57.5 14.5t41.5 31.5l43 238q-12 14 -35.5 23.5t-55.5 9.5q-35 0 -58.5 -16t-38 -45.5t-21 -69.5t-6.5 -88t19 -73t54 -25zM477 -196q-100 0 -178.5 26t-133 76.5t-83 123.5t-28.5 167q0 93 30.5 180.5t89.5 155t146.5 108.5t201.5 41q87 0 157.5 -27.5
t120.5 -76t77 -116t27 -147.5q0 -74 -16.5 -132.5t-48 -98.5t-76 -61t-100.5 -21q-53 0 -81.5 17t-36.5 48h-6q-21 -26 -53.5 -45t-74.5 -19q-70 0 -109 45.5t-39 126.5q0 67 15.5 121.5t44 93.5t70 60t92.5 21q36 0 65.5 -11.5t46.5 -28.5h5l6 31h95l-63 -333q-5 -24 3 -40
t37 -16q66 0 103 60.5t37 175.5q0 67 -18.5 122t-55.5 95t-94 62t-133 22q-93 0 -164 -32t-119.5 -87.5t-73 -130t-24.5 -160.5q0 -154 85 -240t255 -86q37 0 72 4.5t66 10.5t56.5 13t44.5 13v-62q-46 -20 -107 -34.5t-133 -14.5z" />
    <glyph glyph-name="A" unicode="A" horiz-adv-x="661" 
d="M215 245h217l-108 305h-3zM277 688h110l262 -728h-115l-70 197h-279l-69 -197h-103z" />
    <glyph glyph-name="B" unicode="B" horiz-adv-x="637" 
d="M304 376q31 0 58 5.5t46.5 18.5t30.5 35t11 54q0 64 -35.5 88t-103.5 24h-116v-225h109zM330 47q147 0 147 126q0 66 -39 94.5t-114 28.5h-129v-249h135zM85 688h238q127 0 183 -48.5t56 -134.5q0 -57 -27 -97.5t-93 -60.5v-5q69 -13 110 -54.5t41 -120.5
q0 -45 -15.5 -83t-47 -65.5t-78 -43t-109.5 -15.5h-258v728z" />
    <glyph glyph-name="C" unicode="C" horiz-adv-x="609" 
d="M368 -52q-74 0 -134 22.5t-102 68t-64.5 114t-22.5 161.5v25q0 99 26.5 167.5t72.5 112t107.5 63t130.5 19.5q60 0 104 -11t78 -28v-90q-45 17 -86.5 27.5t-94.5 10.5q-48 0 -88.5 -14.5t-70 -45.5t-45.5 -79.5t-16 -116.5v-39q0 -65 12.5 -116.5t39 -87t69 -54
t102.5 -18.5q65 0 108.5 14t77.5 30v-89q-38 -22 -88.5 -34t-115.5 -12z" />
    <glyph glyph-name="D" unicode="D" horiz-adv-x="704" 
d="M317 51q115 0 169 60.5t54 197.5v36q0 72 -15.5 120t-45.5 77.5t-74 42t-101 12.5h-109v-546h122zM85 688h228q166 0 256 -84t90 -259v-23q0 -172 -84.5 -267t-259.5 -95h-230v728z" />
    <glyph glyph-name="E" unicode="E" horiz-adv-x="593" 
d="M85 688h443v-91h-333v-217h258v-91h-258v-238h337v-91h-447v728z" />
    <glyph glyph-name="F" unicode="F" horiz-adv-x="558" 
d="M85 688h434v-91h-324v-232h251v-90h-251v-315h-110v728z" />
    <glyph glyph-name="G" unicode="G" horiz-adv-x="683" 
d="M388 -52q-78 0 -141.5 20.5t-108 64.5t-69 112t-24.5 163v22q0 105 29 176t77.5 114.5t112 62t132.5 18.5t116 -13.5t79 -30.5v-91l-36 15t-42.5 14.5t-53 10.5t-65.5 4q-66 0 -110.5 -22t-71.5 -59t-38.5 -85t-11.5 -100v-34q0 -59 10 -109t35.5 -86t69.5 -56.5
t112 -20.5q35 0 68 5t55 13v179h-145v87h254v-331q-42 -17 -101.5 -30t-131.5 -13z" />
    <glyph glyph-name="H" unicode="H" horiz-adv-x="724" 
d="M85 688h110v-307h334v307h110v-728h-110v330h-334v-330h-110v728z" />
    <glyph glyph-name="I" unicode="I" horiz-adv-x="287" 
d="M88 688h111v-728h-111v728z" />
    <glyph glyph-name="J" unicode="J" horiz-adv-x="461" 
d="M176 -47q-48 0 -80.5 7t-61.5 21v86q23 -8 54 -15.5t71 -7.5q58 0 84 29.5t26 85.5v529h112v-536q0 -42 -12 -78.5t-37 -63t-63.5 -42t-92.5 -15.5z" />
    <glyph glyph-name="K" unicode="K" horiz-adv-x="642" 
d="M85 688h110v-728h-110v728zM215 331l279 357h115l-270 -346l285 -382h-128z" />
    <glyph glyph-name="L" unicode="L" horiz-adv-x="541" 
d="M85 688h110v-637h316v-91h-426v728z" />
    <glyph glyph-name="M" unicode="M" horiz-adv-x="870" 
d="M85 688h159l190 -581h3l191 581h156v-728h-109v588h-3l-195 -588h-97l-193 588h-4v-588h-98v728z" />
    <glyph glyph-name="N" unicode="N" horiz-adv-x="720" 
d="M85 688h127l321 -545h3v545h99v-728h-111l-336 577h-4v-577h-99v728z" />
    <glyph glyph-name="O" unicode="O" horiz-adv-x="740" 
d="M371 35q52 0 91 19.5t64.5 55t38 83.5t12.5 105v35q0 63 -11 114.5t-36 88t-65 57t-98 20.5q-52 0 -90.5 -19.5t-63.5 -54.5t-37.5 -83t-12.5 -104v-37q0 -63 11 -114.5t36 -88t64.5 -57t96.5 -20.5zM368 -52q-74 0 -134 23.5t-102 69.5t-64.5 114.5t-22.5 158.5v21
q0 86 23 154t65.5 115t103 72t135.5 25q74 0 134 -23.5t102 -70t64.5 -115t22.5 -158.5v-21q0 -86 -23 -154t-65.5 -115t-103 -71.5t-135.5 -24.5z" />
    <glyph glyph-name="P" unicode="P" horiz-adv-x="607" 
d="M314 327q79 0 112 33t33 101q0 74 -32.5 106t-110.5 32h-121v-272h119zM85 688h241q126 0 187.5 -56.5t61.5 -162.5q0 -56 -17.5 -99t-49 -72t-75.5 -43.5t-98 -14.5h-140v-280h-110v728z" />
    <glyph glyph-name="Q" unicode="Q" horiz-adv-x="740" 
d="M695 314q0 -138 -55.5 -220.5t-157.5 -111.5l237 -57l-25 -94l-413 122q-113 34 -174.5 120t-61.5 241v21q0 86 23 154t65.5 115t103 72t135.5 25q74 0 134 -23.5t102 -70t64.5 -114.5t22.5 -158v-21zM371 33q52 0 91 20t64.5 55.5t38 84t12.5 105.5v35q0 63 -11 114.5
t-36 88t-65 57t-98 20.5q-52 0 -90.5 -19.5t-63.5 -54.5t-37.5 -83t-12.5 -104v-37q0 -63 11 -115t36 -89t64.5 -57.5t96.5 -20.5z" />
    <glyph glyph-name="R" unicode="R" horiz-adv-x="631" 
d="M302 344q77 0 110.5 32t33.5 99q0 66 -34.5 95t-110.5 29h-106v-255h107zM85 688h228q122 0 185 -52t63 -158q0 -77 -37 -121.5t-99 -68.5v-5l186 -323h-123l-170 303h-123v-303h-110v728z" />
    <glyph glyph-name="S" unicode="S" horiz-adv-x="543" 
d="M249 -53q-70 0 -122.5 13.5t-90.5 34.5v89q43 -20 95 -33t111 -13q78 0 112 32t34 86q0 24 -5.5 42t-18.5 31.5t-34.5 24t-52.5 20.5l-72 24q-38 12 -67.5 28t-50.5 40t-32 57t-11 77t14.5 81t44 63.5t73.5 41.5t103 15q69 0 111 -12.5t73 -27.5v-90q-34 14 -79 26.5
t-105 12.5q-61 0 -94 -26t-33 -74q0 -47 21 -72t77 -42l72 -23q41 -13 74 -29.5t56.5 -40.5t36 -57.5t12.5 -80.5q0 -100 -61 -159t-191 -59z" />
    <glyph glyph-name="T" unicode="T" horiz-adv-x="584" 
d="M238 597h-213v91h535v-91h-212v-637h-110v637z" />
    <glyph glyph-name="U" unicode="U" horiz-adv-x="707" 
d="M357 -53q-134 0 -206 65.5t-72 201.5v474h112v-468q0 -54 11 -90.5t32.5 -58t53.5 -31t74 -9.5q41 0 71.5 9t51 31t30.5 58.5t10 91.5v467h101v-471q0 -141 -66.5 -205.5t-202.5 -64.5z" />
    <glyph glyph-name="V" unicode="V" horiz-adv-x="655" 
d="M14 688h114l203 -585h3l202 585h104l-260 -728h-105z" />
    <glyph glyph-name="W" unicode="W" horiz-adv-x="931" 
d="M22 688h112l131 -562h3l159 562h91l155 -562h3l133 562h100l-181 -728h-107l-151 552h-3l-155 -552h-107z" />
    <glyph glyph-name="X" unicode="X" horiz-adv-x="657" 
d="M263 331l-221 357h121l174 -278h6l160 278h112l-214 -357l227 -371h-122l-181 293h-3l-181 -293h-113z" />
    <glyph glyph-name="Y" unicode="Y" horiz-adv-x="608" 
d="M250 242l-237 446h117l180 -343h3l176 343h107l-236 -446v-282h-110v282z" />
    <glyph glyph-name="Z" unicode="Z" horiz-adv-x="582" 
d="M36 42l381 552v3h-354v91h485v-81l-382 -553v-3h370v-91h-500v82z" />
    <glyph glyph-name="bracketleft" unicode="[" horiz-adv-x="372" 
d="M86 751h246v-81h-141v-739h141v-82h-246v902z" />
    <glyph glyph-name="backslash" unicode="\" horiz-adv-x="934" 
d="M869 295h-92l-85 -331h-99l-87 331h-99l-44 -165.5l-44 -165.5h-100l-84 331h-99v89h77l-32 136.5t-32 135.5h98l63 -272h125l66 272h108l67 -272h126l31.5 136l31.5 136h99l-66 -272h71v-89zM680 295h-80q5 -22 10 -41l10 -37.5l10 -38l11 -42.5zM312 295h-81l39 -158z
M483 384l-7 27l-6 23l-6.5 23.5t-7.5 29.5l-13.5 -50.5l-13.5 -52.5h54z" />
    <glyph glyph-name="bracketright" unicode="]" horiz-adv-x="372" 
d="M40 -69h142v739h-142v81h247v-902h-247v82z" />
    <glyph glyph-name="asciicircum" unicode="^" horiz-adv-x="494" 
d="M204 708h88l152 -260h-90l-106 166l-107 -166h-91z" />
    <glyph glyph-name="underscore" unicode="_" horiz-adv-x="359" 
d="M2 -88h355v-69h-355v69z" />
    <glyph glyph-name="grave" unicode="`" horiz-adv-x="533" 
d="M113 744h115l88 -153h-91z" />
    <glyph glyph-name="a" unicode="a" horiz-adv-x="514" 
d="M233 27q34 0 63.5 10t46.5 25v144l-113 -11q-44 -5 -65 -24.5t-21 -62.5q0 -42 24 -61.5t65 -19.5zM205 -50q-37 0 -67.5 9.5t-53 28.5t-35 48t-12.5 68q0 73 45 110.5t124 48.5l137 16v47q0 30 -7 49t-22.5 30t-40 15t-60.5 4q-40 0 -73 -5t-58 -10v73q38 15 79.5 23
t92.5 8q93 0 143.5 -39t50.5 -122v-392h-86l-10 45h-6q-20 -24 -53.5 -39.5t-87.5 -15.5z" />
    <glyph glyph-name="b" unicode="b" horiz-adv-x="591" 
d="M282 31q32 0 61 8.5t51.5 30t35.5 57.5t13 91v22q0 52 -9 87.5t-27.5 57.5t-46.5 31t-67 9q-36 0 -68 -10.5t-50 -18.5v-347q17 -7 42.5 -12.5t64.5 -5.5zM275 -53q-25 0 -53.5 2t-56 6t-52.5 9.5t-43 11.5v760h105v-269h5q31 20 70 33t94 13q37 0 74.5 -13t67 -43.5
t48 -81t18.5 -126.5v-15q0 -139 -70 -213t-207 -74z" />
    <glyph glyph-name="c" unicode="c" horiz-adv-x="482" 
d="M293 -50q-117 0 -186 66.5t-69 201.5v18q0 71 20 123.5t55.5 86.5t83 50.5t102.5 16.5q54 0 88 -9.5t61 -25.5v-86l-34 13.5t-33 10.5t-37 6.5t-46 2.5q-70 0 -110.5 -44.5t-40.5 -130.5v-28q0 -98 40.5 -142t121.5 -44q52 0 88 13t57 23v-79q-27 -18 -65.5 -30.5
t-95.5 -12.5z" />
    <glyph glyph-name="d" unicode="d" horiz-adv-x="591" 
d="M299 33q42 0 71.5 13.5t46.5 26.5v323q-16 14 -48.5 22t-70.5 8q-35 0 -62.5 -9.5t-47 -31.5t-29.5 -57.5t-10 -87.5v-22q0 -53 11 -88.5t30.5 -57t47.5 -30.5t61 -9zM263 -50q-40 0 -79.5 13.5t-71 44.5t-51.5 81.5t-20 124.5v14q0 75 18 128.5t50.5 88.5t76.5 51.5
t96 16.5q50 0 82.5 -11t52.5 -22v256h105v-776h-89l-10 43h-5q-24 -24 -62.5 -38.5t-92.5 -14.5z" />
    <glyph glyph-name="e" unicode="e" horiz-adv-x="542" 
d="M277 430q-22 0 -44 -6.5t-40.5 -23.5t-31 -46.5t-15.5 -74.5h250q0 82 -30 116.5t-89 34.5zM301 -50q-131 0 -197 73t-66 201v14q0 70 19.5 122t53 86t77.5 50.5t93 16.5q115 0 169.5 -65.5t54.5 -194.5v-51h-359q5 -93 49.5 -129.5t124.5 -36.5q27 0 49.5 3t42.5 8.5
t38.5 12.5t37.5 16v-74q-26 -18 -72 -35t-115 -17z" />
    <glyph glyph-name="f" unicode="f" horiz-adv-x="353" 
d="M102 418h-79v84h79v74q0 44 13 76t36 52.5t54.5 30.5t69.5 10q35 0 58.5 -5.5t37.5 -12.5v-72q-11 2 -29 5t-44 3q-44 0 -67.5 -23t-23.5 -74v-64h121v-84h-121v-458h-105v458z" />
    <glyph glyph-name="g" unicode="g" horiz-adv-x="548" 
d="M267 235q51 0 78.5 22.5t27.5 69.5v15q0 51 -28.5 73.5t-77.5 22.5q-50 0 -78 -24t-28 -70v-15q0 -48 29 -71t77 -23zM263 -120q88 0 123.5 14.5t35.5 53.5q0 34 -20.5 48.5t-68.5 14.5h-146q-27 -9 -45 -27.5t-18 -49.5q0 -32 32 -43t107 -11zM265 -198q-126 0 -187 28
t-61 89q0 43 29.5 70.5t71.5 41.5v5q-23 8 -39 20.5t-16 39.5q0 56 62 100q-30 20 -49 52.5t-19 78.5v10q0 42 15.5 75t43.5 55.5t67 34t85 11.5q43 0 82 -9h184v-75h-87q29 -34 29 -88v-10q0 -43 -16 -74.5t-44 -52.5t-66.5 -31t-82.5 -10q-23 0 -45.5 2.5t-42.5 8.5
q-9 -8 -15 -18t-6 -21q0 -21 12 -25.5t38 -4.5h149q38 0 70 -7.5t55 -24t36 -43.5t13 -66q0 -75 -62.5 -118.5t-203.5 -43.5z" />
    <glyph glyph-name="h" unicode="h" horiz-adv-x="581" 
d="M70 736h105v-279h5q33 23 80 39.5t97 16.5q80 0 118.5 -35t38.5 -114v-404h-105v379q0 22 -4 38t-15 26.5t-30.5 15t-49.5 4.5q-35 0 -71 -10t-64 -24v-429h-105v776z" />
    <glyph glyph-name="i" unicode="i" horiz-adv-x="252" 
d="M72 705h107v-102h-107v102zM73 502h105v-542h-105v542z" />
    <glyph glyph-name="j" unicode="j" horiz-adv-x="252" 
d="M72 705h107v-102h-107v102zM22 -199q-29 0 -48.5 4.5t-35.5 13.5v72q14 -3 28 -5t28 -2q38 0 58.5 18.5t20.5 60.5v539h105v-546q0 -34 -9 -62.5t-27.5 -49t-48 -32t-71.5 -11.5z" />
    <glyph glyph-name="k" unicode="k" horiz-adv-x="528" 
d="M184 240l200 262h112l-199 -255l214 -287h-118zM70 736h105v-776h-105v776z" />
    <glyph glyph-name="l" unicode="l" horiz-adv-x="252" 
d="M73 736h105v-776h-105v776z" />
    <glyph glyph-name="m" unicode="m" horiz-adv-x="874" 
d="M70 502h101v-47h5q34 23 76 40.5t90 17.5q92 0 128 -61h5q43 28 89 44.5t93 16.5q71 0 110.5 -35t39.5 -114v-404h-105v379q0 45 -19.5 64.5t-70.5 19.5q-29 0 -60 -9t-64 -26q1 -7 1.5 -13.5t0.5 -14.5v-400h-104v379q0 45 -19 64.5t-70 19.5q-32 0 -63 -10t-59 -24
v-429h-105v542z" />
    <glyph glyph-name="n" unicode="n" horiz-adv-x="581" 
d="M70 502h101v-47h5q34 24 82.5 41t98.5 17q80 0 118.5 -35t38.5 -114v-404h-105v379q0 22 -4 38t-15 26.5t-30.5 15t-49.5 4.5q-35 0 -71 -10t-64 -24v-429h-105v542z" />
    <glyph glyph-name="o" unicode="o" horiz-adv-x="579" 
d="M292 32q66 0 103 46t37 136v29q0 54 -11 89.5t-30.5 57t-45.5 30.5t-56 9q-69 0 -106 -46t-37 -136v-29q0 -54 11.5 -90t31 -57t46.5 -30t57 -9zM290 -50q-121 0 -186.5 70.5t-65.5 198.5v18q0 65 18.5 116t51.5 86.5t79.5 54.5t103.5 19q119 0 184.5 -71.5t65.5 -201.5
v-15q0 -65 -18.5 -116t-51.5 -86.5t-79.5 -54t-101.5 -18.5z" />
    <glyph glyph-name="p" unicode="p" horiz-adv-x="591" 
d="M295 38q35 0 62.5 9t46.5 30t29 55.5t10 86.5v22q0 53 -9.5 88.5t-27.5 56.5t-45 30t-61 9q-43 0 -75.5 -11.5t-49.5 -24.5v-317q17 -13 49 -23.5t71 -10.5zM70 502h101v-44h5q25 23 65 39t90 16q44 0 84 -13.5t70.5 -44t48.5 -81.5t18 -126v-15q0 -75 -17.5 -128
t-49.5 -86t-77 -48t-101 -15q-45 0 -78 10t-54 22v-188h-105v702z" />
    <glyph glyph-name="q" unicode="q" horiz-adv-x="589" 
d="M298 40q43 0 72.5 12.5t46.5 25.5v336q-19 5 -47.5 10.5t-63.5 5.5q-36 0 -65 -9t-49.5 -31t-31.5 -57.5t-11 -87.5v-22q0 -53 10.5 -88.5t30 -56.5t47 -29.5t61.5 -8.5zM417 -2h-5q-21 -16 -57.5 -29.5t-90.5 -13.5q-40 0 -79.5 13t-71.5 44t-52 81.5t-20 124.5v15
q0 82 21.5 136t58 86t86 45t106.5 13q72 0 123 -11.5t86 -27.5v-674h-105v198z" />
    <glyph glyph-name="r" unicode="r" horiz-adv-x="376" 
d="M70 502h101v-61h5q23 28 62 48t83 20q10 0 20 -1.5t14 -3.5v-93q-10 2 -22 2.5t-20 0.5q-38 0 -74 -10.5t-64 -28.5v-415h-105v542z" />
    <glyph glyph-name="s" unicode="s" horiz-adv-x="451" 
d="M214 -49q-53 0 -98.5 9t-78.5 29v79q17 -6 33.5 -12.5t35.5 -11t41.5 -7.5t51.5 -3q59 0 85.5 19t26.5 53q0 32 -18.5 49t-67.5 28l-51 14q-30 7 -55 18.5t-43 29.5t-28 44t-10 62q0 73 47.5 117.5t146.5 44.5q56 0 92 -10t60 -22v-81q-22 9 -60.5 18t-83.5 9
q-102 0 -102 -67q0 -32 17.5 -47t58.5 -26l51 -12q40 -10 68 -22.5t46 -31.5t26.5 -45t8.5 -62q0 -81 -53.5 -122t-146.5 -41z" />
    <glyph glyph-name="t" unicode="t" horiz-adv-x="379" 
d="M250 -46q-68 0 -109 31t-41 105v328h-77v84h77v128h105v-128h131v-84h-131v-313q0 -37 15.5 -52t59.5 -15q17 0 34 2t33 5v-70q-17 -8 -38 -14.5t-59 -6.5z" />
    <glyph glyph-name="u" unicode="u" horiz-adv-x="575" 
d="M232 -50q-80 0 -122.5 39.5t-42.5 118.5v394h105v-375q0 -48 20 -68.5t75 -20.5q40 0 72.5 11t60.5 24v429h104v-542h-89l-11 46h-5q-34 -24 -75 -40t-92 -16z" />
    <glyph glyph-name="v" unicode="v" horiz-adv-x="539" 
d="M18 502h113l141 -412h4l143 412h102l-198 -542h-106z" />
    <glyph glyph-name="w" unicode="w" horiz-adv-x="793" 
d="M22 502h111l103 -407h5l118 407h89l119 -407h4l102 407h98l-152 -542h-103l-116 386h-4l-116 -386h-106z" />
    <glyph glyph-name="x" unicode="x" horiz-adv-x="526" 
d="M198 236l-173 266h124l121 -195l113 195h111l-164 -265l178 -277h-124l-126 204l-128 -204h-113z" />
    <glyph glyph-name="y" unicode="y" horiz-adv-x="529" 
d="M114 -199q-20 0 -41 4.5t-32 10.5v73q10 -3 24 -4.5t28 -1.5q19 0 35.5 1.5t30 6t23.5 13.5t16 25l23 60l-207 513h112l147 -380h3l136 380h102l-218 -588q-14 -38 -30.5 -60.5t-38.5 -34t-49.5 -15t-63.5 -3.5z" />
    <glyph glyph-name="z" unicode="z" horiz-adv-x="489" 
d="M40 36l281 379v3h-267v84h395v-74l-283 -382v-3h282v-83h-408v76z" />
    <glyph glyph-name="braceleft" unicode="{" horiz-adv-x="396" 
d="M363 -154q-72 2 -117 16t-70.5 37.5t-34.5 54.5t-9 66v144q0 25 -6 42t-19.5 27.5t-35.5 16.5t-55 8v83q33 2 55 8t35.5 17t19.5 28t6 41v144q0 36 9 67t34.5 54t70.5 37t117 16v-81q-33 -2 -57 -7.5t-39 -16.5t-22.5 -29t-7.5 -46v-142q0 -22 -4.5 -42.5t-17 -37.5
t-34.5 -30t-57 -20v-3q35 -6 57 -19t34.5 -30t17 -37t4.5 -42v-143q0 -29 7.5 -47t22.5 -28.5t39 -15.5t57 -7v-83z" />
    <glyph glyph-name="bar" unicode="|" horiz-adv-x="305" 
d="M108 751h89v-902h-89v902z" />
    <glyph glyph-name="braceright" unicode="}" horiz-adv-x="396" 
d="M33 -71q33 2 56.5 7t39.5 16t23.5 29t7.5 46v143q0 22 4.5 42t16.5 37t34 30t57 19v3q-35 7 -57 20t-34 30t-16.5 37.5t-4.5 42.5v142q0 28 -7.5 46.5t-23.5 29.5t-39.5 16t-56.5 7v81q72 -2 117 -15.5t70.5 -37t35 -54t9.5 -66.5v-144q0 -25 5.5 -42t19 -27.5
t35.5 -16.5t55 -8v-83q-65 -5 -90 -25t-25 -69v-144q0 -35 -9.5 -66t-35 -54.5t-70.5 -38t-117 -16.5v83z" />
    <glyph glyph-name="asciitilde" unicode="~" horiz-adv-x="699" 
d="M356 374l29 -20.5t30 -19.5t30.5 -14.5t31.5 -5.5q29 0 52 28t27 73q24 -8 43 -12.5t43 -12.5q-5 -46 -21 -79t-39 -53.5t-50.5 -30t-56.5 -9.5q-37 2 -68 13.5t-56 29.5l-28.5 21.5t-31.5 21.5t-31 17t-27 8q-31 3 -57 -21t-35 -69q-21 11 -39.5 17.5t-39.5 16.5
q10 47 30 78t45 49t53 23.5t56 1.5q37 -5 62 -19t48 -32z" />
    <glyph glyph-name="uni20A9" unicode="&#x20a9;" 
d="M862 295h-92l-85 -331h-99l-87 331h-99l-44 -165.5l-44 -165.5h-100l-84 331h-99v89h77l-32 136.5t-32 135.5h98l63 -272h125l66 272h108l67 -272h126l31.5 136l31.5 136h99l-66 -272h71v-89zM673 295h-80q5 -22 10 -41l10 -37.5l10 -38l11 -42.5zM305 295h-81l39 -158z
M476 384l-7 27l-6 23l-6.5 23.5t-7.5 29.5l-13.5 -50.5l-13.5 -52.5h54z" />
    <glyph glyph-name="uni2010" unicode="&#x2010;" horiz-adv-x="438" 
d="M414 270h-390v73h390v-73z" />
    <glyph glyph-name="copyright" unicode="&#xa9;" horiz-adv-x="837" 
d="M428 128q-86 0 -137.5 50t-51.5 153v13q0 54 15.5 92t42 62t61.5 35t75 11q36 0 61.5 -6.5t40.5 -14.5v-72q-23 9 -46 14t-54 5q-45 0 -72 -27.5t-27 -90.5v-21q0 -65 24.5 -98t82.5 -33q35 0 57.5 9t39.5 17v-70q-20 -11 -47.5 -19.5t-64.5 -8.5zM418 14q67 0 124 24
t98.5 66.5t64.5 101.5t23 130t-23 130t-64.5 101t-98.5 65.5t-124 23.5q-68 0 -124.5 -23.5t-97.5 -65.5t-64 -101t-23 -130t23 -130t64 -101.5t97.5 -66.5t124.5 -24zM418 -39q-80 0 -148.5 29.5t-118.5 80.5t-78 119t-28 146t28 146t78 118.5t118.5 80t148.5 29.5
q79 0 148 -29.5t119 -80t79 -118.5t29 -146t-29 -146t-79 -119t-119 -80.5t-148 -29.5z" />
    <glyph glyph-name="glyph99" horiz-adv-x="694" 
d="M107 643h-89v60h251v-60h-91v-246h-71v246zM321 703h97l74 -216h3l75 216h97v-306h-71v218h-3l-73 -218h-62l-72 218h-4v-218h-61v306z" />
    <glyph glyph-name="glyph100" 
d="M711 102h117v-115h-117v115zM403 102h117v-115h-117v115zM91 102h117v-115h-117v115z" />
    <glyph glyph-name="uni3000" unicode="&#x3000;" 
 />
    <glyph glyph-name="uni3000" unicode="&#x3164;" 
 />
    <glyph glyph-name="uni3001" unicode="&#x3001;" horiz-adv-x="725" 
d="M228 -171q-25 34 -48 62t-46 52.5t-48.5 47t-55.5 46.5l73 67q32 -24 58 -46t50 -45.5t47.5 -49.5t49.5 -59z" />
    <glyph glyph-name="uni3002" unicode="&#x3002;" horiz-adv-x="822" 
d="M188 -98q34 0 59 25t25 60t-25 59.5t-59 24.5t-59 -24.5t-25 -59.5t25 -60t59 -25zM188 -166q-31 0 -58.5 12t-48.5 33t-33 48.5t-12 59.5q0 31 12 59t33 48.5t48.5 32.5t58.5 12q32 0 60 -12t48.5 -32.5t32.5 -48.5t12 -59q0 -32 -12 -59.5t-33 -48.5t-49 -33t-59 -12z
" />
    <glyph glyph-name="periodcentered" unicode="&#xb7;" horiz-adv-x="322" 
d="M98 375h118v-116h-118v116z" />
    <glyph glyph-name="periodcentered" unicode="&#x30fb;" horiz-adv-x="322" 
d="M98 375h118v-116h-118v116z" />
    <glyph glyph-name="twodotenleader" unicode="&#x2025;" horiz-adv-x="850" 
d="M553 374h117v-115h-117v115zM180 374h117v-115h-117v115z" />
    <glyph glyph-name="ellipsis" unicode="&#x2026;" 
d="M711 375h117v-115h-117v115zM403 375h117v-115h-117v115zM91 375h117v-115h-117v115z" />
    <glyph glyph-name="ellipsis" unicode="&#x22ef;" 
d="M711 375h117v-115h-117v115zM403 375h117v-115h-117v115zM91 375h117v-115h-117v115z" />
    <glyph glyph-name="dieresis" unicode="&#xa8;" horiz-adv-x="519" 
d="M118 718h99v-100h-99v100zM303 718h98v-100h-98v100z" />
    <glyph glyph-name="uni3003" unicode="&#x3003;" horiz-adv-x="900" 
d="M533 415h120l-136 -287h-68zM344 415h120l-135 -287h-68z" />
    <glyph glyph-name="uni00AD" unicode="&#xad;" horiz-adv-x="410" 
d="M353 280h-296v69h296v-69z" />
    <glyph glyph-name="uni00AD" unicode="&#x2013;" horiz-adv-x="410" 
d="M353 280h-296v69h296v-69z" />
    <glyph glyph-name="emdash" unicode="&#x2014;" horiz-adv-x="864" 
d="M861 283h-858v63h858v-63z" />
    <glyph glyph-name="emdash" unicode="&#x2015;" horiz-adv-x="864" 
d="M861 283h-858v63h858v-63z" />
    <glyph glyph-name="uni2016" unicode="&#x2016;" horiz-adv-x="900" 
d="M395 -178h-64v957h64v-957zM569 -178h-65v957h65v-957z" />
    <glyph glyph-name="uniFF3C" unicode="&#xff3c;" horiz-adv-x="900" 
d="M864 -118l-36 -36l-792 875l35 38z" />
    <glyph glyph-name="similar" unicode="&#x223c;" horiz-adv-x="900" 
d="M739 340q-12 -19 -29.5 -36.5t-38 -31t-43 -22t-44.5 -8.5q-43 0 -73.5 9t-62.5 26q-26 14 -60.5 27t-71.5 13q-36 0 -63 -17.5t-45 -45.5l-47 31q12 19 29.5 36.5t38 31t43 22t44.5 8.5q44 0 74 -9t62 -26t63 -29t69 -12q36 0 63 18t45 46z" />
    <glyph glyph-name="similar" unicode="&#xff5e;" horiz-adv-x="900" 
d="M739 340q-12 -19 -29.5 -36.5t-38 -31t-43 -22t-44.5 -8.5q-43 0 -73.5 9t-62.5 26q-26 14 -60.5 27t-71.5 13q-36 0 -63 -17.5t-45 -45.5l-47 31q12 19 29.5 36.5t38 31t43 22t44.5 8.5q44 0 74 -9t62 -26t63 -29t69 -12q36 0 63 18t45 46z" />
    <glyph glyph-name="similar" unicode="&#x301c;" horiz-adv-x="900" 
d="M739 340q-12 -19 -29.5 -36.5t-38 -31t-43 -22t-44.5 -8.5q-43 0 -73.5 9t-62.5 26q-26 14 -60.5 27t-71.5 13q-36 0 -63 -17.5t-45 -45.5l-47 31q12 19 29.5 36.5t38 31t43 22t44.5 8.5q44 0 74 -9t62 -26t63 -29t69 -12q36 0 63 18t45 46z" />
    <glyph glyph-name="quoteleft" unicode="&#x2018;" horiz-adv-x="220" 
d="M175 520h-125v120q0 28 9 54t25.5 46.5t39 35t50.5 20.5v-55q-65 -19 -67 -96h68v-125z" />
    <glyph glyph-name="quoteright" unicode="&#x2019;" horiz-adv-x="220" 
d="M164 621q0 -29 -9 -55t-25.5 -47t-39.5 -35.5t-50 -20.5v56q31 9 48.5 33.5t18.5 62.5h-69v126h126v-120z" />
    <glyph glyph-name="quotedblleft" unicode="&#x201c;" horiz-adv-x="385" 
d="M71 633q0 60 35.5 104t97.5 58v-63q-61 -17 -64 -87h58v-132h-127v120zM226 633q0 60 35 104t98 58v-63q-62 -17 -65 -87h60v-132h-128v120z" />
    <glyph glyph-name="quotedblright" unicode="&#x201d;" horiz-adv-x="385" 
d="M322 633q0 -60 -35 -105t-97 -59v65q61 17 64 87h-58v132h126v-120zM168 633q0 -60 -35 -105t-98 -59v65q62 17 65 87h-60v132h128v-120z" />
    <glyph glyph-name="uni3014" unicode="&#x3014;" horiz-adv-x="344" 
d="M314 -85l-35 -61l-244 135v624l244 136l35 -61l-205 -116v-540z" />
    <glyph glyph-name="uni3015" unicode="&#x3015;" horiz-adv-x="358" 
d="M315 -11l-243 -135l-35 61l204 116v541l-100 58l-53.5 30t-50.5 29l35 60l243 -136v-624z" />
    <glyph glyph-name="uni3008" unicode="&#x3008;" horiz-adv-x="467" 
d="M430 -94l-51 -38l-341 434l340 434l52 -38l-312 -396z" />
    <glyph glyph-name="uni3009" unicode="&#x3009;" horiz-adv-x="477" 
d="M434 302l-340 -434l-53 38l312 395l-312 397l52 38z" />
    <glyph glyph-name="uni300A" unicode="&#x300a;" horiz-adv-x="496" 
d="M473 -130l-52 -29l-267 461l267 461l52 -30l-250 -431zM343 -130l-51 -29l-267 461l267 461l51 -30l-250 -431z" />
    <glyph glyph-name="uni300B" unicode="&#x300b;" horiz-adv-x="498" 
d="M470 302l-267 -461l-52 29l250 432l-55.5 96.5l-69 118.5l-69 119l-56.5 97l52 30zM341 302l-267 -461l-52 29l249 432l-35 60.5l-43 74l-46.5 80.5l-46.5 80.5l-43 74.5l-35 61l52 30z" />
    <glyph glyph-name="uni300C" unicode="&#x300c;" horiz-adv-x="363" 
d="M336 660h-225v-372h-84v445h309v-73z" />
    <glyph glyph-name="uni300D" unicode="&#x300d;" horiz-adv-x="369" 
d="M333 -129h-309v73h225v372h84v-445z" />
    <glyph glyph-name="uni300E" unicode="&#x300e;" horiz-adv-x="392" 
d="M301 643v36h-210v-337h40v301h170zM358 589h-170v-301h-153v445h323v-144z" />
    <glyph glyph-name="uni300F" unicode="&#x300f;" horiz-adv-x="388" 
d="M292 -75v336h-39v-299h-171v-37h210zM349 -129h-323v144h170v301h153v-445z" />
    <glyph glyph-name="uni3010" unicode="&#x3010;" horiz-adv-x="374" 
d="M24 -140v880h336q-55 -36 -99.5 -83.5t-76 -104.5t-48.5 -121t-17 -132t17 -132t48.5 -120.5t76.5 -104t100 -82.5h-337z" />
    <glyph glyph-name="uni3011" unicode="&#x3011;" horiz-adv-x="382" 
d="M352 -140h-337q55 35 99.5 82.5t76 104t48.5 120.5t17 132t-17 132t-48.5 121t-76 105t-99.5 84h337v-881z" />
    <glyph glyph-name="plusminus" unicode="&#xb1;" horiz-adv-x="625" 
d="M588 52v-73h-551v73h551zM351 591v-202h237v-72h-237v-208h-78v208h-236v72h236v202h78z" />
    <glyph glyph-name="multiply" unicode="&#xd7;" horiz-adv-x="625" 
d="M89 542l223 -227l224 227l52 -53l-223 -228l223 -227l-52 -55l-224 228l-223 -228l-52 55l223 227l-223 228z" />
    <glyph glyph-name="divide" unicode="&#xf7;" horiz-adv-x="625" 
d="M311 13q-27 0 -44 18.5t-17 44.5q0 29 17 47.5t45 18.5q29 0 45 -18.5t17 -47.5q0 -26 -16.5 -44.5t-45.5 -18.5h-1zM37 227v75h551v-75h-551zM311 387q-27 0 -44 18.5t-17 47.5q0 27 17 45.5t45 18.5q29 0 45 -18.5t17 -45.5q0 -29 -16.5 -47.5t-45.5 -18.5h-1z" />
    <glyph glyph-name="notequal" unicode="&#x2260;" horiz-adv-x="596" 
d="M255 124l-17.5 -28.5l-22 -35.5l-22.5 -35l-17 -27h-86l79 126h-138v76h187l16 23.5l20.5 31l21 32.5t16.5 26h-261v78h309l79 125h86l-80 -125h140v-78h-189q-7 -10 -16.5 -25l-19.5 -30.5l-20 -31l-17 -26.5h262v-76h-310z" />
    <glyph glyph-name="lessequal" unicode="&#x2264;" horiz-adv-x="625" 
d="M61 290v74l251 100.5l251 100.5v-82l-398 -156v-2l398 -154v-83zM63 -21v72h500v-72h-500z" />
    <glyph glyph-name="greaterequal" unicode="&#x2265;" horiz-adv-x="625" 
d="M61 -21v72h500v-72h-500zM61 88v83l198.5 77l199.5 78v1l-398 156v82l251 -100.5l251 -100.5v-74z" />
    <glyph glyph-name="infinity" unicode="&#x221e;" horiz-adv-x="769" 
d="M192 186q22 0 41.5 8.5t37.5 21.5t34 29.5l31 31.5q-15 13 -30.5 29t-33 30t-37 23t-41.5 9q-19 0 -35.5 -7.5t-28.5 -20t-19 -29t-7 -34.5q0 -40 24.5 -65.5t62.5 -25.5h1zM577 186q38 0 62.5 26.5t24.5 64.5q0 39 -23.5 65t-61.5 26q-22 0 -42 -8.5t-38 -21.5
t-34.5 -29.5l-31.5 -31.5l31 -30t33.5 -29.5t36.5 -22.5t42 -9h1zM574 114q-30 0 -56 10.5t-49 26.5t-44 36t-40 40l-42 -40.5t-45 -36.5t-51.5 -26t-60.5 -10q-35 0 -64 12t-50 34t-32.5 51.5t-11.5 65.5q0 33 12 62t34 51.5t52.5 35.5t67.5 13q30 0 56.5 -10.5t49.5 -26.5
t44 -36l41 -39l41 40t45 36t51.5 26t60.5 10q36 0 65 -12t50 -33.5t32.5 -51.5t11.5 -65q0 -33 -12.5 -62.5t-34.5 -52t-52.5 -35.5t-67.5 -13h-1z" />
    <glyph glyph-name="therefore" unicode="&#x2234;" horiz-adv-x="586" 
d="M359 505q0 -29 -18.5 -48.5t-47.5 -19.5t-48.5 19.5t-19.5 48.5q0 27 19.5 46.5t48.5 19.5t47.5 -19.5t18.5 -46.5zM166 102q0 -29 -19.5 -48t-47.5 -19t-47.5 19t-19.5 48q0 28 19.5 47t47.5 19t47.5 -19t19.5 -47zM554 102q0 -29 -20 -48t-47 -19q-29 0 -48 19t-19 48
q0 28 19 47t48 19q27 0 47 -19t20 -47z" />
    <glyph glyph-name="degree" unicode="&#xb0;" horiz-adv-x="343" 
d="M172 666q-20 0 -35 -8t-25 -21t-15.5 -29.5t-5.5 -33.5q0 -36 23.5 -61t58.5 -25q36 0 59.5 26t23.5 64q0 15 -5 30.5t-15 28.5t-26 21t-37 8h-1zM175 722q34 0 61 -12t46 -32t29 -45.5t10 -53.5q0 -33 -12.5 -60.5t-33.5 -46.5t-47.5 -29.5t-54.5 -10.5q-33 0 -60 11.5
t-46.5 31t-30 45t-10.5 54.5q0 31 11.5 58.5t31.5 47t47 31t58 11.5h1z" />
    <glyph glyph-name="minute" unicode="&#x2032;" horiz-adv-x="459" 
d="M199 741l121 1l-129 -272h-69z" />
    <glyph glyph-name="second" unicode="&#x2033;" horiz-adv-x="515" 
d="M323 741h121l-128 -271h-69zM141 741h120l-128 -271h-69z" />
    <glyph glyph-name="uni2103" unicode="&#x2103;" horiz-adv-x="827" 
d="M571 -42q-73 0 -132.5 21t-102 65t-65.5 111.5t-23 160.5v25q0 99 27 166.5t73 109t107.5 60t129.5 18.5q60 0 104 -11t78 -28v-90q-45 17 -86.5 27.5t-94.5 10.5q-47 0 -87.5 -13.5t-70 -43t-46 -76.5t-16.5 -115v-39q0 -131 52.5 -199.5t170.5 -68.5q65 0 108.5 14
t77.5 30v-89q-38 -22 -88.5 -34t-115.5 -12zM124 696q-22 0 -35.5 -17t-13.5 -40q0 -20 13.5 -35.5t35.5 -15.5q23 0 37 15t14 38t-14 39t-37 16zM126 736q46 0 74 -28t28 -69q0 -39 -29 -65.5t-74 -26.5q-46 0 -74.5 27t-28.5 65q0 40 28 68.5t76 28.5z" />
    <glyph glyph-name="uni212B" unicode="&#x212b;" horiz-adv-x="661" 
d="M319 753q-21 0 -34 -16t-13 -38q0 -18 13.5 -33.5t34.5 -15.5q22 0 35.5 15t13.5 36q0 22 -13.5 37t-35.5 15h-1zM322 798q48 0 76.5 -28.5t28.5 -70.5q0 -40 -30 -67.5t-76 -27.5q-23 0 -42.5 7.5t-33.5 20.5t-22 30t-8 37q0 42 29 70.5t77 28.5h1zM400 235l-81 197h-1
l-79 -197h161zM214 142l-71 -178h-112l244 585h92l243 -585h-113l-74 178h-209z" />
    <glyph glyph-name="cent" unicode="&#xa2;" horiz-adv-x="466" 
d="M210 -27q-85 18 -132 83t-47 177v17q0 71 20 123t55 86.5t82.5 51t103.5 16.5q2 16 5.5 32.5t5.5 33.5h72q-2 -18 -5.5 -36.5t-5.5 -35.5q23 -5 42 -12.5t36 -16.5v-82q-24 9 -44.5 16t-45.5 11l-30.5 -195l-28.5 -195h10q52 0 87.5 13l56.5 21v-73q-26 -18 -64.5 -30.5
t-95.5 -12.5h-7l-16 -115h-73zM138 237q0 -72 21 -115t63 -61l29 191l28 189q-66 -4 -103.5 -49.5t-37.5 -127.5v-27z" />
    <glyph glyph-name="cent" unicode="&#xffe0;" horiz-adv-x="466" 
d="M210 -27q-85 18 -132 83t-47 177v17q0 71 20 123t55 86.5t82.5 51t103.5 16.5q2 16 5.5 32.5t5.5 33.5h72q-2 -18 -5.5 -36.5t-5.5 -35.5q23 -5 42 -12.5t36 -16.5v-82q-24 9 -44.5 16t-45.5 11l-30.5 -195l-28.5 -195h10q52 0 87.5 13l56.5 21v-73q-26 -18 -64.5 -30.5
t-95.5 -12.5h-7l-16 -115h-73zM138 237q0 -72 21 -115t63 -61l29 191l28 189q-66 -4 -103.5 -49.5t-37.5 -127.5v-27z" />
    <glyph glyph-name="sterling" unicode="&#xa3;" horiz-adv-x="552" 
d="M46 375h81v102q0 64 20 109t53.5 74t76.5 42.5t88 13.5q49 0 86 -9.5t61 -23.5v-82q-15 6 -29 10.5t-28 7.5t-30.5 4.5t-36.5 1.5q-29 0 -56 -7t-48 -24t-33.5 -47t-12.5 -76v-96h189v-79h-189v-53q0 -69 -18 -107.5t-54 -67.5v-2h353v-91h-481v80q45 25 67 66t22 113v62
h-81v79z" />
    <glyph glyph-name="sterling" unicode="&#xffe1;" horiz-adv-x="552" 
d="M46 375h81v102q0 64 20 109t53.5 74t76.5 42.5t88 13.5q49 0 86 -9.5t61 -23.5v-82q-15 6 -29 10.5t-28 7.5t-30.5 4.5t-36.5 1.5q-29 0 -56 -7t-48 -24t-33.5 -47t-12.5 -76v-96h189v-79h-189v-53q0 -69 -18 -107.5t-54 -67.5v-2h353v-91h-481v80q45 25 67 66t22 113v62
h-81v79z" />
    <glyph glyph-name="yen" unicode="&#xa5;" horiz-adv-x="619" 
d="M258 118h-169v81h169v70h-169v83h145l-204 351h119l166 -301h5l168 301h107l-204 -351h147v-83h-171v-70h171v-81h-171v-143h-109v143z" />
    <glyph glyph-name="yen" unicode="&#xffe5;" horiz-adv-x="619" 
d="M258 118h-169v81h169v70h-169v83h145l-204 351h119l166 -301h5l168 301h107l-204 -351h147v-83h-171v-70h171v-81h-171v-143h-109v143z" />
    <glyph glyph-name="male" unicode="&#x2642;" horiz-adv-x="776" 
d="M123 261q0 -42 15.5 -79.5t42.5 -66t64 -45t80 -16.5q42 0 78.5 16.5t64 45t43 66t15.5 79.5t-15.5 79.5t-43 65.5t-64 44.5t-78.5 16.5q-43 0 -80 -16.5t-64 -44.5t-42.5 -65.5t-15.5 -79.5zM42 261q0 58 22 109.5t60 90t90 60.5t111 22q50 0 92.5 -15t79.5 -44l114 114
h-105v72h229v-228h-73v106l-115 -115q29 -36 44.5 -79t15.5 -93q0 -59 -22 -110.5t-60.5 -89.5t-90 -60.5t-109.5 -22.5q-59 0 -111 22.5t-90 60.5t-60 89.5t-22 110.5z" />
    <glyph glyph-name="female" unicode="&#x2640;" horiz-adv-x="652" 
d="M124 465q0 -42 15.5 -79.5t42.5 -66t64 -45t80 -16.5q42 0 78.5 16.5t64 45t43 66t15.5 79.5t-15.5 79.5t-43 65.5t-64 44.5t-78.5 16.5q-43 0 -80 -16.5t-64 -44.5t-42.5 -65.5t-15.5 -79.5zM289 185q-52 7 -97 31t-78 61t-52 85t-19 103q0 58 22 110t60 90t90 60.5
t111 22.5q58 0 110 -22.5t90 -60.5t60.5 -90t22.5 -110q0 -55 -19 -103.5t-52 -85.5t-78 -61t-97 -30v-130h143v-73h-143v-140h-74v140h-144v73h144v130z" />
    <glyph glyph-name="angle" unicode="&#x2220;" horiz-adv-x="900" 
d="M762 -6h-624v53l479 558l59 -49l-421 -488h507v-74z" />
    <glyph glyph-name="perpendicular" unicode="&#x22a5;" horiz-adv-x="900" 
d="M775 -6h-650v77h286v511h78v-511h286v-77z" />
    <glyph glyph-name="uni2312" unicode="&#x2312;" horiz-adv-x="900" 
d="M638 572q-26 47 -73.5 79t-119.5 32t-121 -32t-75 -79h-75q19 37 45 67.5t59 52.5t74 34t91 12q51 0 92 -12t74 -34t58.5 -52.5t45.5 -67.5h-75z" />
    <glyph glyph-name="partialdiff" unicode="&#x2202;" horiz-adv-x="541" 
d="M238 67q32 0 59 17t47.5 45.5t34 65.5t18.5 77q-7 18 -19 34.5t-29.5 29.5t-39 21t-46.5 8q-29 0 -54 -12.5t-43.5 -34.5t-29 -52.5t-10.5 -65.5q0 -63 31.5 -98t80.5 -35zM51 679q26 18 71 37t111 19q55 0 105.5 -24t88.5 -70t60.5 -114t22.5 -155q0 -97 -23 -170
t-62 -122t-90.5 -73.5t-107.5 -24.5q-53 0 -92 19t-64.5 49.5t-38 69.5t-12.5 79q0 52 17 97.5t47 79.5t71 53.5t89 19.5q31 0 57.5 -8t47 -20.5t35 -28t22.5 -29.5h1q1 7 1 14.5v15.5q0 62 -15 109.5t-40.5 80t-59 49.5t-69.5 17q-48 0 -82 -13t-59 -27z" />
    <glyph glyph-name="gradient" unicode="&#x2207;" horiz-adv-x="900" 
d="M854 606l-404 -639l-404 639h808zM723 534h-546l273 -437z" />
    <glyph glyph-name="equivalence" unicode="&#x2261;" horiz-adv-x="660" 
d="M56 281v67h547v-67h-547zM56 434v66h547v-66h-547zM56 127v66h547v-66h-547z" />
    <glyph glyph-name="uni2252" unicode="&#x2252;" horiz-adv-x="660" 
d="M412 85q0 25 18 43.5t44 18.5t44 -18.5t18 -43.5q0 -26 -18 -44.5t-44 -18.5t-44 18.5t-18 44.5zM121 540q0 26 18.5 44.5t43.5 18.5q26 0 44.5 -18.5t18.5 -44.5t-18.5 -44t-44.5 -18q-25 0 -43.5 18t-18.5 44zM56 427h547v-66h-547v66zM56 266h547v-66h-547v66z" />
    <glyph glyph-name="section" unicode="&#xa7;" horiz-adv-x="524" 
d="M306 351q-25 8 -48.5 14.5t-48.5 15.5q-41 -7 -61.5 -29.5t-20.5 -54.5q0 -27 10 -44t31.5 -29t55 -22l79.5 -24q3 -2 6.5 -2t6.5 -2q42 8 63 30.5t21 54.5q0 37 -20.5 56.5t-73.5 35.5zM244 -164q-57 0 -100.5 11t-78.5 30v84q18 -8 35.5 -14.5t37 -11.5t42.5 -8t52 -3
q63 0 93 21t30 60q0 18 -3.5 31t-13.5 22t-27 16.5t-44 15.5l-91.5 28.5t-76.5 33.5t-52.5 52t-19.5 83q0 53 25 85t73 49q-23 19 -37 49t-14 74q0 38 13.5 70t40 54.5t66 35t92.5 12.5q58 0 93 -11.5t62 -24.5v-83q-25 11 -63 21.5t-87 10.5q-54 0 -85 -19t-31 -56
q0 -18 3 -31t11.5 -22.5t22.5 -16.5t36 -14l108.5 -34.5t80.5 -34.5t50 -50.5t17 -81.5q0 -56 -26 -88t-71 -49q54 -38 54 -119q0 -85 -56.5 -131t-160.5 -46z" />
    <glyph glyph-name="uni203B" unicode="&#x203b;" 
d="M849 -13l-62 -60l-324 320l-161.5 -160l-161.5 -160l-61 59l164.5 157.5l164.5 158.5l-327 317l57 61l324 -323l327 323l57 -60l-327 -318zM244 301q0 -15 -6.5 -29.5t-18 -26t-27 -18t-32.5 -6.5q-16 0 -31 6.5t-27 17.5t-19 25.5t-7 30.5q0 17 7 32t18.5 26t26.5 17.5
t31 6.5t31.5 -6.5t27.5 -17.5t19 -26t7 -32zM544 604q0 -16 -6.5 -30.5t-18 -26t-26.5 -18t-32 -6.5t-32 6.5t-26.5 18t-18.5 26t-7 30.5q0 33 24.5 57t58.5 24q17 0 32.5 -6.5t27 -17.5t18 -26t6.5 -31zM865 301q0 -16 -6.5 -30.5t-18 -25t-26.5 -17t-32 -6.5t-32 6.5
t-26 17t-18 25t-7 30.5q0 17 6.5 32t18 26t26 17.5t30.5 6.5q35 0 60 -23.5t25 -58.5zM544 -10q0 -32 -24 -55.5t-59 -23.5q-17 0 -32 6.5t-26 17t-18 25t-7 30.5q0 33 24 56.5t58 23.5q35 0 59.5 -23.5t24.5 -56.5z" />
    <glyph glyph-name="uni2606" unicode="&#x2606;" 
d="M461 586l-69 -209h-225l180 -133l-71 -211l185 129l179 -129l-66 211l179 133h-222zM573 433h350l-283 -210l106 -333l-284 201l-290 -201l111 333l-286 210h354l111 331z" />
    <glyph glyph-name="uni2605" unicode="&#x2605;" 
d="M573 433h350l-283 -210l106 -333l-284 201l-290 -201l111 333l-286 210h354l111 331z" />
    <glyph glyph-name="circle" unicode="&#x25cb;" 
d="M159 329q0 -62 23.5 -117t64 -95.5t95.5 -64t117 -23.5q63 0 117.5 23.5t95.5 64t64.5 95.5t23.5 117t-23.5 116.5t-64.5 95.5t-95.5 65t-117.5 24q-62 0 -117 -24t-95.5 -65t-64 -95.5t-23.5 -116.5zM89 329q0 76 29 144t79 118t117.5 79.5t144.5 29.5t144.5 -29.5
t118 -79.5t79.5 -118t29 -144q0 -77 -29 -145t-79.5 -118t-118 -79t-144.5 -29t-144.5 29t-117.5 79t-79 118t-29 145z" />
    <glyph glyph-name="H18533" unicode="&#x25cf;" 
d="M89 329q0 76 29 144t79 118t117.5 79.5t144.5 29.5t144.5 -29.5t118 -79.5t79.5 -118t29 -144q0 -77 -29 -145t-79.5 -118t-118 -79t-144.5 -29t-144.5 29t-117.5 79t-79 118t-29 145z" />
    <glyph glyph-name="uni25CE" unicode="&#x25ce;" 
d="M304 329q0 -32 12 -60.5t33 -49.5t49.5 -33t60.5 -12q33 0 61.5 12t49.5 33t33 49.5t12 60.5t-12 60.5t-33 49.5t-49.5 33.5t-61.5 12.5q-32 0 -60.5 -12.5t-49.5 -33.5t-33 -49.5t-12 -60.5zM240 329q0 45 17 85t47 69.5t70 47t85 17.5t85 -17.5t70 -47t47 -69.5t17 -85
t-17 -85t-47 -70t-70 -47t-85 -17t-85 17t-70 47t-47 70t-17 85zM160 329q0 -62 23.5 -116.5t64 -95t95 -64t116.5 -23.5t116.5 23.5t95 64t64 95t23.5 116.5q0 61 -23.5 115.5t-64 95t-95 64.5t-116.5 24t-116.5 -24t-95 -64.5t-64 -95t-23.5 -115.5zM89 329q0 76 29 144
t79 118t117.5 79.5t144.5 29.5t144.5 -29.5t118 -79.5t79.5 -118t29 -144q0 -77 -29 -145t-79.5 -118t-118 -79t-144.5 -29t-144.5 29t-117.5 79t-79 118t-29 145z" />
    <glyph glyph-name="uni25C7" unicode="&#x25c7;" 
d="M460 632l-304 -303l304 -305l303 304zM460 731l402 -403l-402 -403l-403 403z" />
    <glyph glyph-name="uni25C6" unicode="&#x25c6;" 
d="M57 329l403 402l403 -403l-402 -403z" />
    <glyph glyph-name="H22073" unicode="&#x25a1;" 
d="M174 613v-569h570v569h-570zM104 684h711v-711h-711v711z" />
    <glyph glyph-name="filledbox" unicode="&#x25a0;" 
d="M104 -27v711h712v-711h-712z" />
    <glyph glyph-name="uni25B3" unicode="&#x25b3;" 
d="M733 17l-275 550l-275 -550h550zM80 -45l380 756l380 -756h-760z" />
    <glyph glyph-name="triagup" unicode="&#x25b2;" 
d="M81 -52l379 755l379 -755h-758z" />
    <glyph glyph-name="uni25BD" unicode="&#x25bd;" 
d="M185 613l275 -551l275 551h-550zM840 675l-380 -755l-380 755h760z" />
    <glyph glyph-name="triagdn" unicode="&#x25bc;" 
d="M839 675l-379 -755l-379 755h758z" />
    <glyph glyph-name="arrowright" unicode="&#x2192;" horiz-adv-x="750" 
d="M0 374h564l-76 129l15 17l212 -176l-212 -176l-15 17l76 128h-564v61z" />
    <glyph glyph-name="arrowleft" unicode="&#x2190;" horiz-adv-x="750" 
d="M749 313h-564l76 -128l-15 -17l-212 176l212 176l15 -17l-76 -129h564v-61z" />
    <glyph glyph-name="arrowup" unicode="&#x2191;" horiz-adv-x="586" 
d="M263 -7v564l-129 -76l-17 15l176 212l176 -212l-17 -15l-129 76v-564h-60z" />
    <glyph glyph-name="arrowdown" unicode="&#x2193;" horiz-adv-x="586" 
d="M323 694v-563l129 75l17 -15l-176 -212l-176 212l17 15l129 -75v563h60z" />
    <glyph glyph-name="arrowboth" unicode="&#x2194;" horiz-adv-x="819" 
d="M229 185l-16 -17l-212 176l212 176l16 -17l-77 -129h506l-77 129l16 17l212 -176l-212 -176l-16 17l77 128h-506z" />
    <glyph glyph-name="uni3013" unicode="&#x3013;" horiz-adv-x="856" 
d="M780 393h-660v38h660v-38zM780 193h-660v38h660v-38z" />
    <glyph glyph-name="guillemotleft" unicode="&#xab;" 
d="M818 13l-32 -54l-492 320v47l483 330l39 -51l-444 -302zM606 9l-35 -54l-489 324v47l481 335l39 -53l-442 -306z" />
    <glyph glyph-name="guillemotleft" unicode="&#x226a;" 
d="M818 13l-32 -54l-492 320v47l483 330l39 -51l-444 -302zM606 9l-35 -54l-489 324v47l481 335l39 -53l-442 -306z" />
    <glyph glyph-name="guillemotright" unicode="&#xbb;" 
d="M815 279l-489 -324l-35 54l446 293l-441 306l38 53l481 -335v-47zM603 279l-492 -320l-32 54l446 289l-444 303l39 51l483 -330v-47z" />
    <glyph glyph-name="guillemotright" unicode="&#x226b;" 
d="M815 279l-489 -324l-35 54l446 293l-441 306l38 53l481 -335v-47zM603 279l-492 -320l-32 54l446 289l-444 303l39 51l483 -330v-47z" />
    <glyph glyph-name="radical" unicode="&#x221a;" horiz-adv-x="568" 
d="M358 -130h-74l-163 432l-76 -31l-22 52l151 62l122 -340q6 -17 11 -36t8 -33h2q3 13 6.5 32.5t8.5 37.5l183 751h78z" />
    <glyph glyph-name="uni223D" unicode="&#x223d;" 
d="M839 316q0 -39 -14 -74t-38.5 -62t-59 -42.5t-75.5 -15.5q-32 0 -63 12t-62 34l33 54q24 -17 46 -24.5t46 -7.5q26 0 47.5 9.5t37.5 26.5t24.5 40t8.5 50q0 24 -8.5 46t-24 39.5t-37 28t-47.5 10.5q-55 0 -91 -35t-70 -99q-12 -23 -30.5 -54.5t-45.5 -60t-65 -48.5
t-89 -20q-35 0 -68.5 12t-59.5 36t-42 60.5t-16 84.5q0 46 15.5 82t41.5 60.5t59 37t69 12.5q35 0 66.5 -12.5t60.5 -30.5l-33 -56q-23 14 -44.5 21.5t-42.5 7.5q-55 0 -88 -34t-33 -88q0 -55 31.5 -89t88.5 -34q37 0 65 16.5t49 41t36 52l26 48.5q16 30 36 58.5t45.5 50.5
t57 35t69.5 13q41 0 75.5 -16t59.5 -42.5t39 -61.5t14 -72z" />
    <glyph glyph-name="proportional" unicode="&#x221d;" 
d="M303 193q30 0 54 11t43 29t33.5 39.5t26.5 42.5q-12 21 -26.5 42.5t-34 39.5t-43 29.5t-53.5 11.5q-54 0 -86.5 -34t-32.5 -88q0 -56 30.5 -89.5t88.5 -33.5zM771 408q-20 14 -42 23t-42 9q-51 0 -87.5 -33t-68.5 -92q32 -59 68 -92t88 -33q17 0 36.5 6t39.5 17l32 -58
q-27 -16 -54.5 -24.5t-53.5 -8.5q-33 0 -61 10.5t-52 27.5t-43.5 40t-35.5 49q-14 -22 -32 -44.5t-41.5 -40.5t-54 -29.5t-68.5 -11.5q-35 0 -68.5 12t-60 36t-42.5 60t-16 85q0 46 16 82t42 60.5t59.5 37t68.5 12.5q39 0 69 -11.5t54 -30t42 -41.5t32 -45q16 25 35.5 48.5
t43.5 41t52 28t61 10.5q30 0 60 -12t59 -32z" />
    <glyph glyph-name="uni2235" unicode="&#x2235;" horiz-adv-x="586" 
d="M359 101q0 -27 -18.5 -46.5t-47.5 -19.5t-48.5 19.5t-19.5 46.5q0 29 19.5 48.5t48.5 19.5t47.5 -19.5t18.5 -48.5zM166 504q0 -28 -19.5 -47t-47.5 -19t-47.5 19t-19.5 47q0 29 19.5 48t47.5 19t47.5 -19t19.5 -48zM554 504q0 -28 -20 -47t-47 -19q-29 0 -48 19t-19 47
q0 29 19 48t48 19q27 0 47 -19t20 -48z" />
    <glyph glyph-name="integral" unicode="&#x222b;" horiz-adv-x="336" 
d="M308 713q-8 2 -16 3t-17 1q-14 0 -26.5 -6t-20.5 -18q-14 -19 -20.5 -55t-6.5 -102q0 -113 6.5 -234t6.5 -240q0 -73 -11.5 -119t-30.5 -71q-18 -29 -46 -43t-60 -14q-18 0 -34.5 3.5t-24.5 7.5l13 67q7 -2 16.5 -4t20.5 -2q27 0 45 21q6 8 11.5 20t9.5 29.5t6.5 43
t2.5 60.5q0 120 -7 243.5t-7 238.5q0 79 13.5 126t42.5 78q39 40 97 40q14 0 27.5 -2.5t21.5 -5.5z" />
    <glyph glyph-name="uni222C" unicode="&#x222c;" horiz-adv-x="573" 
d="M544 713q-8 2 -16 3t-16 1q-14 0 -26.5 -6t-20.5 -18q-15 -19 -21.5 -55t-6.5 -102q0 -113 6.5 -234t6.5 -240q0 -73 -11.5 -119t-29.5 -71q-19 -29 -47 -43t-60 -14q-18 0 -34.5 3.5t-24.5 7.5l13 67q8 -2 17 -4t20 -2q27 0 45 21q6 8 11.5 20t9.5 29.5t6.5 43t2.5 60.5
q0 120 -7 243.5t-7 238.5q0 79 14 126t43 78q18 20 43 30t53 10q15 0 28 -2.5t20 -5.5zM305 713q-8 2 -15.5 3t-16.5 1q-31 0 -47 -24q-14 -19 -21 -55t-7 -102q0 -113 7 -234t7 -240q0 -73 -12 -119t-30 -71q-19 -29 -46.5 -43t-59.5 -14q-19 0 -35 3.5t-24 7.5l13 67
q7 -2 16.5 -4t20.5 -2q26 0 44 21q7 8 12.5 20t9.5 29.5t6.5 43t2.5 60.5q0 120 -7 243.5t-7 238.5q0 79 13.5 126t42.5 78q19 20 44 30t53 10q14 0 27.5 -2.5t21.5 -5.5z" />
    <glyph glyph-name="element" unicode="&#x2208;" 
d="M772 278h-608q10 -59 57.5 -97.5t142.5 -38.5h410v-83h-406q-76 0 -131 20.5t-91 56t-53.5 83t-17.5 101.5q0 51 16.5 95.5t51.5 78.5t89.5 53.5t131.5 19.5h410v-83h-410q-47 0 -81.5 -9.5t-58.5 -26.5t-38 -40t-20 -49h606v-81z" />
    <glyph glyph-name="suchthat" unicode="&#x220b;" 
d="M118 360h605q-6 25 -20 48t-37.5 39.5t-58 26.5t-80.5 10h-410v83h410q76 0 130.5 -20t90 -53.5t52 -78.5t16.5 -95q0 -53 -17.5 -100.5t-53.5 -83t-91.5 -56.5t-131.5 -21h-405v83h410q47 0 82 10.5t59 28.5t38 43t19 54h-607v82z" />
    <glyph glyph-name="reflexsubset" unicode="&#x2286;" 
d="M772 -53h-661v82h661v-82zM774 500h-410q-56 0 -94.5 -11.5t-62.5 -32t-34.5 -47.5t-10.5 -57q0 -35 11 -63.5t35.5 -49t63 -32t92.5 -11.5h410v-83h-406q-76 0 -131 18.5t-91 51t-53.5 77t-17.5 95.5q0 48 16.5 89t51.5 72t89.5 48.5t131.5 17.5h410v-82z" />
    <glyph glyph-name="reflexsuperset" unicode="&#x2287;" 
d="M117 582h410q76 0 130.5 -17.5t90 -48.5t52 -72t16.5 -89q0 -51 -17.5 -95.5t-53.5 -77t-91.5 -51t-131.5 -18.5h-405v83h410q54 0 92.5 11.5t62.5 32t35 49t11 63.5q0 30 -10.5 57t-34.5 47.5t-62.5 32t-93.5 11.5h-410v82zM118 29h662v-82h-662v82z" />
    <glyph glyph-name="propersubset" unicode="&#x2282;" 
d="M774 478h-410q-56 0 -94.5 -13t-62.5 -34.5t-34.5 -51t-10.5 -62.5q0 -36 11 -67t35.5 -53.5t63 -35.5t92.5 -13h410v-83h-406q-76 0 -131 20t-91 54.5t-53.5 81t-17.5 99.5q0 50 16.5 94t51.5 76.5t89.5 51.5t131.5 19h410v-83z" />
    <glyph glyph-name="propersuperset" unicode="&#x2283;" 
d="M117 561h410q76 0 130.5 -19t90 -51.5t52 -76.5t16.5 -94q0 -53 -17.5 -99.5t-53.5 -81t-91.5 -54.5t-131.5 -20h-405v83h410q54 0 92.5 13t62.5 35.5t35 53.5t11 67q0 33 -10.5 62.5t-34.5 51t-62.5 34.5t-93.5 13h-410v83z" />
    <glyph glyph-name="union" unicode="&#x222a;" horiz-adv-x="656" 
d="M162 644v-410q0 -56 13 -95t35.5 -63.5t51.5 -36t62 -11.5q36 0 67.5 11.5t54 36.5t35.5 64t13 94v410h87v-405q0 -76 -20.5 -131.5t-56 -92t-83 -54t-100.5 -17.5q-50 0 -94.5 16.5t-78.5 52t-53.5 90t-19.5 131.5v410h87z" />
    <glyph glyph-name="intersection" unicode="&#x2229;" horiz-adv-x="656" 
d="M328 644q54 0 100 -17.5t79.5 -53.5t53 -91.5t19.5 -131.5v-406h-87v411q0 54 -12 93.5t-34 65t-52.5 37.5t-66.5 12t-66.5 -12t-52.5 -37.5t-34 -65t-12 -93.5v-411h-87v406q0 76 19.5 131.5t53 91.5t79.5 53.5t100 17.5z" />
    <glyph glyph-name="logicaland" unicode="&#x2227;" 
d="M778 18l-60 -29l-268 518l-268 -518l-60 29l299 580h58z" />
    <glyph glyph-name="logicalor" unicode="&#x2228;" 
d="M778 576l-299 -579h-58l-299 579l60 29l268 -518l268 518z" />
    <glyph glyph-name="logicalnot" unicode="&#xac;" 
d="M886 -157h-66v258h-806v64h872v-322z" />
    <glyph glyph-name="logicalnot" unicode="&#xffe2;" 
d="M886 -157h-66v258h-806v64h872v-322z" />
    <glyph glyph-name="arrowdblright" unicode="&#x21d2;" horiz-adv-x="948" 
d="M938 299l-273 -275l-41 40l112 113h-731v58h788l67 64l-67 65h-788v58h730l-111 111l41 40z" />
    <glyph glyph-name="arrowdblboth" unicode="&#x21d4;" horiz-adv-x="940" 
d="M856 299l-67 65h-643l-67 -65l67 -64h643zM934 299l-273 -275l-41 40l112 113h-529l112 -113l-41 -40l-273 275l273 274l41 -40l-111 -111h527l-111 111l41 40z" />
    <glyph glyph-name="universal" unicode="&#x2200;" horiz-adv-x="900" 
d="M772 682l-251 -730h-136l-248 730h115l70 -216h258l72 216h120zM450 44l109 336h-215l105 -336h1z" />
    <glyph glyph-name="existential" unicode="&#x2203;" horiz-adv-x="900" 
d="M260 378h305v214h-323v92h433v-731h-447v92h337v242h-305v91z" />
    <glyph glyph-name="acute" unicode="&#xb4;" horiz-adv-x="519" 
d="M297 744h116l-111 -153h-92z" />
    <glyph glyph-name="tilde" unicode="&#x2dc;" horiz-adv-x="519" 
d="M96 607q6 63 37 91t67 28q17 0 32.5 -6t29.5 -12.5l26.5 -12.5t23.5 -6q31 0 37 38h69q-3 -31 -13 -53.5t-24.5 -36.5t-31.5 -21t-35 -7q-17 0 -32.5 5.5t-29.5 12.5t-26.5 12.5t-23.5 5.5q-30 0 -37 -38h-69z" />
    <glyph glyph-name="caron" unicode="&#x2c7;" horiz-adv-x="519" 
d="M411 743l-53.5 -76l-53.5 -76h-90l-53.5 76l-53.5 76h81l36 -39.5l36 -38.5l69 78h82z" />
    <glyph glyph-name="breve" unicode="&#x2d8;" horiz-adv-x="519" 
d="M259 597q-63 0 -101.5 37.5t-41.5 98.5h79q4 -29 19 -45t45 -16q32 0 46.5 16t19.5 45h77q-2 -61 -41 -98.5t-102 -37.5z" />
    <glyph glyph-name="hungarumlaut" unicode="&#x2dd;" horiz-adv-x="519" 
d="M337 744h109l-73 -153h-86zM165 744h109l-72 -153h-87z" />
    <glyph glyph-name="ring" unicode="&#x2da;" horiz-adv-x="519" 
d="M259 580q-22 0 -41 8t-33 21.5t-22 31.5t-8 38q0 42 29.5 71t74.5 29q23 0 42 -8t33 -21.5t22 -31.5t8 -39q0 -20 -8 -38t-22 -31.5t-33 -21.5t-42 -8zM259 629q23 0 37 13.5t14 36.5t-14 37.5t-37 14.5t-36 -14.5t-13 -37.5t13 -36.5t36 -13.5z" />
    <glyph glyph-name="dotaccent" unicode="&#x2d9;" horiz-adv-x="519" 
d="M206 720h107v-102h-107v102z" />
    <glyph glyph-name="cedilla" unicode="&#xb8;" horiz-adv-x="519" 
d="M212 -139q57 5 81.5 14.5t24.5 26.5q0 20 -20 26.5t-63 6.5v98h62v-49q49 -3 76 -21.5t27 -53.5q0 -47 -42 -72.5t-146 -33.5v58z" />
    <glyph glyph-name="ogonek" unicode="&#x2db;" horiz-adv-x="519" 
d="M268 -196q-54 0 -84.5 24t-30.5 66q0 22 8.5 40.5t22 33.5t29.5 26.5t31 19.5h76q-32 -26 -54 -52t-22 -53q0 -23 15 -30t37 -7q11 0 19.5 1t13.5 3v-62q-11 -4 -26 -7t-35 -3z" />
    <glyph glyph-name="exclamdown" unicode="&#xa1;" horiz-adv-x="426" 
d="M145 713h117v-115h-117v115zM156 491h95l13 -543h-122z" />
    <glyph glyph-name="questiondown" unicode="&#xbf;" horiz-adv-x="446" 
d="M321 595h-117v115h117v-115zM313 437q0 -28 -7 -48.5t-21 -38t-34 -35t-47 -38.5q-34 -28 -48.5 -62.5t-14.5 -79.5q0 -55 33 -77t93 -22q47 0 77.5 7.5t63.5 18.5v-82q-36 -16 -76 -24t-93 -8q-44 0 -82.5 10t-67 31.5t-45.5 56t-17 83.5q0 34 6 61t19 51t33.5 46
t49.5 46l34 27.5t25.5 25t15.5 26.5t5 33v43h98v-51z" />
    <glyph glyph-name="uni02D0" unicode="&#x2d0;" 
d="M317 503l-93 -97l-92 97h185zM317 99h-185l92 96z" />
    <glyph glyph-name="uni02D0" unicode="&#x2236;" 
d="M317 503l-93 -97l-92 97h185zM317 99h-185l92 96z" />
    <glyph glyph-name="uni222E" unicode="&#x222e;" horiz-adv-x="900" 
d="M424 412q-32 -12 -53.5 -41.5t-25.5 -71.5q-4 -45 14 -75t53 -40q4 52 6 116q1 30 2.5 57.5t3.5 54.5zM563 299q4 43 -16.5 76t-60.5 41q-4 -52 -6 -116q-1 -32 -2.5 -61t-5.5 -56q38 9 62.5 40t28.5 76zM615 635q-8 19 -20.5 29.5t-30.5 10.5q-22 0 -42.5 -59.5
t-32.5 -168.5q27 -3 50.5 -14t41 -29.5t26.5 -45t6 -59.5q-3 -32 -15.5 -57.5t-32 -44.5t-44.5 -30t-52 -15q-14 -113 -43 -185q-17 -39 -41 -63t-54 -24q-63 0 -94 60l45 26q9 -19 21.5 -30t30.5 -11q22 0 43 59t32 169q-25 4 -47 15.5t-38 30t-24 43.5t-5 57
q3 31 14.5 55.5t29.5 42.5t41 30t48 17q14 115 44 189q17 39 40.5 63t54.5 24q65 0 96 -64z" />
    <glyph glyph-name="summation" unicode="&#x2211;" horiz-adv-x="582" 
d="M571 -111h-550v68l263 325l-125.5 157.5l-124.5 157.5v77h512v-92h-367v-2l231 -295l-121 -150.5l-122 -149.5v-4h404v-92z" />
    <glyph glyph-name="product" unicode="&#x220f;" horiz-adv-x="696" 
d="M568 582v-693h-104v693h-232v-693h-104v693h-113v92h666v-92h-113z" />
    <glyph glyph-name="currency" unicode="&#xa4;" horiz-adv-x="882" 
d="M813 575l-118 -105q21 -35 33 -76.5t12 -87.5q0 -48 -14 -93t-40 -83q4 -3 22.5 -19.5l40 -35.5l40 -36t21.5 -20l-55 -62l-124 113q-41 -35 -92.5 -55t-108.5 -20q-54 0 -103 17.5t-90 49.5q-3 -3 -21 -19l-39 -34l-39 -33.5t-21 -18.5l-55 62l117 104
q-27 38 -43.5 84.5t-16.5 98.5q0 47 13 89.5t37 80.5q-3 3 -19.5 17.5l-35 32l-35 32t-19.5 17.5l59 59l105 -94q41 35 94 56t112 21q62 0 115 -23t96 -61q3 3 19.5 18l36 32.5l36.5 32.5t20 18zM662 306q0 48 -18.5 90.5t-50 74t-73.5 49.5t-90 18t-90.5 -18t-74 -49.5
t-49.5 -74t-18 -90.5t18 -90.5t49.5 -74t74 -49.5t90.5 -18t90 18t73.5 49.5t50 74t18.5 90.5z" />
    <glyph glyph-name="uni2109" unicode="&#x2109;" horiz-adv-x="905" 
d="M787 576h-298v-211h271v-92h-270v-311h-110v706h407v-92zM308 605q0 -12 -3 -22q-8 -31 -35 -50.5t-63 -19.5q-44 0 -73 27t-29 65q0 40 28.5 68.5t73.5 28.5t73 -28t28 -69zM258 607v7t-1 7q-4 17 -17.5 29.5t-33.5 12.5q-22 0 -37 -17.5t-15 -40.5q0 -20 15 -37t37 -17
q23 0 37.5 16.5t14.5 39.5z" />
    <glyph glyph-name="perthousand" unicode="&#x2030;" 
d="M870 146q0 -91 -33 -141t-93 -50q-62 0 -95 50t-33 141t32.5 141t94.5 50q61 0 94 -50t33 -141zM177 662q61 0 93.5 -50t32.5 -141q1 -92 -32 -142t-93 -50q-61 0 -94 50t-33 141t32.5 141.5t93.5 50.5zM578 680l-425 -743h-68l427 743h66zM603 146q0 -91 -33 -141
t-94 -50q-60 0 -93 50t-33 141t32.5 141t93.5 50t94 -50t33 -141zM801 146q0 27 -3.5 50t-10 40.5t-17.5 27.5t-26 10t-26.5 -10t-19 -27.5t-11 -40.5t-3.5 -50t3.5 -50t10.5 -40.5t18.5 -27.5t26.5 -10t26 10t18 27.5t10.5 40.5t3.5 50zM236 470q0 27 -3.5 50t-10.5 40.5
t-18 27.5t-26 10t-26 -10t-18.5 -27.5t-11 -40.5t-3.5 -50t3.5 -50t10.5 -40.5t18 -27.5t26 -10t26 10.5t18.5 28.5t11 41t3.5 48zM535 146q0 27 -3.5 50t-10.5 40.5t-18.5 27.5t-26.5 10t-26 -10t-18 -27.5t-10.5 -40.5t-3.5 -50t3.5 -50t10.5 -40.5t18 -27.5t26 -10t26 10
t18.5 27.5t11 40.5t3.5 50z" />
    <glyph glyph-name="uni25C1" unicode="&#x25c1;" 
d="M789 -102l-639 402l639 404v-806zM731 3v596l-475 -299z" />
    <glyph glyph-name="uni25C0" unicode="&#x25c0;" 
d="M789 -102l-639 402l639 404v-806z" />
    <glyph glyph-name="uni25B7" unicode="&#x25b7;" 
d="M789 300l-639 -402v806zM683 300l-475 299v-596z" />
    <glyph glyph-name="uni25B6" unicode="&#x25b6;" 
d="M789 300l-639 -402v806z" />
    <glyph glyph-name="uni2664" unicode="&#x2664;" 
d="M737 210q0 35 -26.5 87.5t-66 111t-86.5 118l-88 109.5l-88 -109.5t-87 -118t-66 -111t-26 -87.5q0 -17 5 -36.5t15.5 -35.5t27.5 -26.5t42 -10.5q21 0 40 8t35 18l28.5 18t20.5 8q19 0 25 -10.5t4 -34.5q-3 -31 -10.5 -65.5t-21.5 -78.5q-5 -17 18 -18q8 0 17.5 -0.5
t20.5 -0.5q10 0 20 0.5t18 0.5q21 2 17 18q-13 44 -20.5 78.5t-10.5 65.5q-2 24 4 34.5t24 10.5q9 0 21.5 -8l28.5 -18t35 -18t40 -8q24 0 41.5 10.5t28 26.5t15.5 35.5t5 36.5zM809 197q0 -34 -10.5 -62.5t-29 -49.5t-45 -32.5t-59.5 -11.5q-31 0 -60 13t-68 36
q1 -20 5.5 -45t12 -52t16.5 -52.5t19 -45.5q9 -19 -14 -22q-20 -2 -49 -4t-57 -2q-31 0 -58.5 2t-48.5 4q-24 3 -14 22q10 22 19 47.5t16 51.5t12 50.5t7 45.5q-40 -23 -68.5 -36t-59.5 -13q-33 0 -59.5 11.5t-45 32.5t-29 49.5t-10.5 62.5q0 45 31 107.5t79.5 134
t109 147.5l119.5 150l119.5 -150t109 -147.5t79.5 -134t31 -107.5z" />
    <glyph glyph-name="spade" unicode="&#x2660;" 
d="M809 197q0 -34 -10.5 -62.5t-29 -49.5t-45 -32.5t-59.5 -11.5q-31 0 -60 13t-68 36q1 -20 5.5 -45t12 -52t16.5 -52.5t19 -45.5q9 -19 -14 -22q-20 -2 -49 -4t-57 -2q-31 0 -58.5 2t-48.5 4q-24 3 -14 22q10 22 19 47.5t16 51.5t12 50.5t7 45.5q-40 -23 -68.5 -36
t-59.5 -13q-33 0 -59.5 11.5t-45 32.5t-29 49.5t-10.5 62.5q0 45 31 107.5t79.5 134t109 147.5l119.5 150l119.5 -150t109 -147.5t79.5 -134t31 -107.5z" />
    <glyph glyph-name="uni2661" unicode="&#x2661;" 
d="M758 460q0 33 -9 60.5t-27 48t-45 32t-63 11.5q-23 0 -40.5 -11.5t-30.5 -29t-22 -38t-15 -39.5q-5 -17 -12.5 -33t-23.5 -16q-17 0 -24 16t-12 33q-6 19 -15 39.5t-22.5 38t-31 29t-39.5 11.5q-37 0 -64 -11.5t-45 -32t-27 -48t-9 -60.5q0 -56 28 -119.5t71 -127.5
t94 -123t96 -106q45 47 96 106t93.5 123t70.5 127.5t28 119.5zM832 484q0 -50 -16.5 -103t-44.5 -106.5t-64.5 -106.5t-76.5 -102.5t-81.5 -93.5l-78.5 -80l-78.5 80t-81.5 93.5t-76.5 102.5t-64.5 106.5t-44.5 107t-16.5 102.5q0 43 14 80t39 64.5t58.5 43t71.5 15.5
q66 0 111 -43.5t68 -143.5q23 100 67.5 143.5t110.5 43.5q38 0 71.5 -15.5t58.5 -43t39.5 -64.5t14.5 -80z" />
    <glyph glyph-name="heart" unicode="&#x2665;" 
d="M832 484q0 -50 -16.5 -103t-44.5 -106.5t-64.5 -106.5t-76.5 -102.5t-81.5 -93.5l-78.5 -80l-78.5 80t-81.5 93.5t-76.5 102.5t-64.5 106.5t-44.5 107t-16.5 102.5q0 43 14 80t39 64.5t58.5 43t71.5 15.5q66 0 111 -43.5t68 -143.5q23 100 67.5 143.5t110.5 43.5
q38 0 71.5 -15.5t58.5 -43t39.5 -64.5t14.5 -80z" />
    <glyph glyph-name="uni2667" unicode="&#x2667;" 
d="M822 214q0 26 -9 49t-26 40.5t-40.5 27.5t-52.5 10q-24 0 -45 -6.5t-39 -14l-33.5 -13.5t-28.5 -6q-23 0 -38 14t-15 37q0 21 16 38l35 37.5t35 48t16 71.5q0 60 -36.5 91.5t-90.5 31.5q-27 0 -50 -8t-40.5 -23.5t-27.5 -38.5t-10 -53q0 -44 16 -71.5t34.5 -48
l34.5 -37.5t16 -38q0 -23 -14 -37t-37 -14q-13 0 -28.5 6l-33.5 13.5t-39 14t-45 6.5q-29 0 -52.5 -10t-40.5 -27.5t-26 -40.5t-9 -49q0 -28 9 -53t26.5 -43.5t42 -29t55.5 -10.5q36 0 61.5 14t45.5 31l36 31t32 14q11 0 13.5 -5t2.5 -16q0 -19 -4.5 -41l-10 -47.5
t-10 -55.5t-4.5 -65q0 -12 12 -13q11 -1 22 -1.5t23 -0.5q11 0 22.5 0.5t21.5 1.5q13 1 13 13q0 35 -4.5 65t-10 55.5l-10 47.5t-4.5 41q0 11 2.5 16t12.5 5q15 0 31.5 -14l36.5 -31t46.5 -31t61.5 -14q31 0 55.5 10.5t41.5 29t26.5 43.5t9.5 53zM883 207q0 -38 -12.5 -72.5
t-35.5 -61t-55 -42.5t-72 -16q-28 0 -53 8.5t-46.5 21t-38.5 27.5t-29 28q7 -18 14.5 -42.5t13 -52t9 -57.5t3.5 -58q0 -7 -5.5 -11t-12.5 -5q-13 -1 -20.5 -1.5t-16.5 -1t-21.5 -0.5h-34.5q-25 0 -46.5 0.5t-47.5 2.5q-7 1 -12.5 5t-5.5 11q0 28 3 58t8.5 57.5t13 52
t16.5 42.5q-12 -13 -29 -28t-38.5 -27.5t-46.5 -21t-53 -8.5q-40 0 -72 16t-55 42.5t-35.5 61t-12.5 72.5q0 36 12.5 70t35 59.5t54 41t68.5 15.5q35 0 66 -12t61 -26q8 -4 17 -3t12 6q5 8 1 16.5t-9 13.5q-24 22 -42 41t-29 39.5t-16.5 42.5t-5.5 50q0 38 15.5 69
t41.5 52.5t60 33.5t71 12t71 -12t60 -33.5t41.5 -52.5t15.5 -69q0 -28 -5.5 -50t-17 -42.5t-29 -39.5t-42.5 -41q-5 -5 -9 -13.5t1 -16.5q3 -5 12 -6t17 3q31 14 62 26t66 12q37 0 68.5 -15.5t54 -41t35 -59.5t12.5 -70z" />
    <glyph glyph-name="club" unicode="&#x2663;" 
d="M883 207q0 -38 -12.5 -72.5t-35.5 -61t-55 -42.5t-72 -16q-28 0 -53 8.5t-46.5 21t-38.5 27.5t-29 28q7 -18 14.5 -42.5t13 -52t9 -57.5t3.5 -58q0 -7 -5.5 -11t-12.5 -5q-13 -1 -20.5 -1.5t-16.5 -1t-21.5 -0.5h-34.5q-25 0 -46.5 0.5t-47.5 2.5q-7 1 -12.5 5t-5.5 11
q0 28 3 58t8.5 57.5t13 52t16.5 42.5q-12 -13 -29 -28t-38.5 -27.5t-46.5 -21t-53 -8.5q-40 0 -72 16t-55 42.5t-35.5 61t-12.5 72.5q0 36 12.5 70t35 59.5t54 41t68.5 15.5q35 0 66 -12t61 -26q8 -4 17 -3t12 6q5 8 1 16.5t-9 13.5q-24 22 -42 41t-29 39.5t-16.5 42.5
t-5.5 50q0 38 15.5 69t41.5 52.5t60 33.5t71 12t71 -12t60 -33.5t41.5 -52.5t15.5 -69q0 -28 -5.5 -50t-17 -42.5t-29 -39.5t-42.5 -41q-5 -5 -9 -13.5t1 -16.5q3 -5 12 -6t17 3q31 14 62 26t66 12q37 0 68.5 -15.5t54 -41t35 -59.5t12.5 -70z" />
    <glyph glyph-name="uni2299" unicode="&#x2299;" 
d="M874 299q0 -84 -32 -157.5t-86.5 -128t-128 -86.5t-157.5 -32q-83 0 -156 32t-128.5 86.5t-87.5 128t-32 157.5t32 157.5t87.5 128t128.5 86.5t156 32q84 0 157.5 -32t128 -86.5t86.5 -128t32 -157.5zM809 299q0 70 -27 131.5t-73 107.5t-107.5 73t-131.5 27t-131.5 -27
t-107.5 -73t-72.5 -107.5t-26.5 -131.5t26.5 -131.5t72.5 -107.5t107.5 -72.5t131.5 -26.5t131.5 26.5t107.5 72.5t73 107.5t27 131.5zM628 299q0 -33 -12.5 -62t-33.5 -50t-50 -33.5t-62 -12.5q-32 0 -61 12.5t-50.5 33.5t-34 50t-12.5 62t12.5 62t34 50t50.5 33.5t61 12.5
q33 0 62 -12.5t50 -33.5t33.5 -50t12.5 -62z" />
    <glyph glyph-name="uni2299" unicode="&#x25c9;" 
d="M874 299q0 -84 -32 -157.5t-86.5 -128t-128 -86.5t-157.5 -32q-83 0 -156 32t-128.5 86.5t-87.5 128t-32 157.5t32 157.5t87.5 128t128.5 86.5t156 32q84 0 157.5 -32t128 -86.5t86.5 -128t32 -157.5zM809 299q0 70 -27 131.5t-73 107.5t-107.5 73t-131.5 27t-131.5 -27
t-107.5 -73t-72.5 -107.5t-26.5 -131.5t26.5 -131.5t72.5 -107.5t107.5 -72.5t131.5 -26.5t131.5 26.5t107.5 72.5t73 107.5t27 131.5zM628 299q0 -33 -12.5 -62t-33.5 -50t-50 -33.5t-62 -12.5q-32 0 -61 12.5t-50.5 33.5t-34 50t-12.5 62t12.5 62t34 50t50.5 33.5t61 12.5
q33 0 62 -12.5t50 -33.5t33.5 -50t12.5 -62z" />
    <glyph glyph-name="uni25C8" unicode="&#x25c8;" 
d="M920 298l-451 -450l-449 449l450 451zM856 298l-386 385l-387 -386l386 -386zM739 297l-269 -269l-270 269l270 269z" />
    <glyph glyph-name="uni25A3" unicode="&#x25a3;" 
d="M855 -87h-770v769h770v-769zM806 -38v671h-672v-671h672zM701 66h-462v462h462v-462z" />
    <glyph glyph-name="uni25D0" unicode="&#x25d0;" 
d="M868 299q0 -83 -31.5 -155.5t-85.5 -126.5t-126.5 -85t-154.5 -31q-81 0 -153.5 31t-127 85t-86 126.5t-31.5 155.5q0 82 31.5 154.5t86 126.5t127 85.5t153.5 31.5q82 0 154.5 -31.5t126.5 -85.5t85.5 -126.5t31.5 -154.5zM828 299q0 73 -28.5 138.5t-77 114t-114 77
t-138.5 28.5v-715q73 0 138.5 28t114 77t77 113.5t28.5 138.5z" />
    <glyph glyph-name="uni25D1" unicode="&#x25d1;" 
d="M868 299q0 -83 -31.5 -155.5t-86 -126.5t-127 -85t-153.5 -31q-83 0 -155.5 31t-126.5 85t-85 126.5t-31 155.5q0 82 31 154.5t85 126.5t126.5 85.5t155.5 31.5q81 0 153.5 -31.5t127 -85.5t86 -126.5t31.5 -154.5zM470 657q-74 0 -139 -28.5t-113.5 -77t-77 -114
t-28.5 -138.5q0 -74 28.5 -138.5t77 -113.5t113.5 -77t139 -28v715z" />
    <glyph glyph-name="shade" unicode="&#x2592;" 
d="M849 -81h-758v757h758v-757zM816 -48v691h-692v-691h692zM783 587q0 -12 -7.5 -19t-18.5 -7q-26 0 -26 26q0 11 7 18.5t19 7.5q11 0 18.5 -7.5t7.5 -18.5zM687 587q0 -26 -25 -26q-26 0 -26 26q0 11 7 18.5t19 7.5q11 0 18 -7.5t7 -18.5zM783 491q0 -10 -7.5 -17.5
t-18.5 -7.5q-12 0 -19 7.5t-7 17.5q0 11 7 18.5t19 7.5q11 0 18.5 -7.5t7.5 -18.5zM687 491q0 -10 -7 -17.5t-18 -7.5q-12 0 -19 7.5t-7 17.5q0 11 7 18.5t19 7.5q11 0 18 -7.5t7 -18.5zM592 587q0 -12 -7.5 -19t-18.5 -7t-19 7t-8 19q0 11 8 18.5t19 7.5t18.5 -7.5
t7.5 -18.5zM783 396q0 -11 -7.5 -19t-18.5 -8q-12 0 -19 8t-7 19t7 18.5t19 7.5q11 0 18.5 -7.5t7.5 -18.5zM592 491q0 -10 -7.5 -17.5t-18.5 -7.5t-19 7.5t-8 17.5q0 11 8 18.5t19 7.5t18.5 -7.5t7.5 -18.5zM687 396q0 -11 -7 -19t-18 -8q-12 0 -19 8t-7 19t7 18.5t19 7.5
q11 0 18 -7.5t7 -18.5zM495 587q0 -26 -25 -26q-10 0 -18 7t-8 19q0 11 8 18.5t18 7.5q11 0 18 -7.5t7 -18.5zM783 300q0 -10 -7.5 -17.5t-18.5 -7.5q-12 0 -19 7.5t-7 17.5q0 26 26 26q11 0 18.5 -7.5t7.5 -18.5zM495 491q0 -10 -7 -17.5t-18 -7.5q-10 0 -18 7.5t-8 17.5
q0 11 8 18.5t18 7.5q11 0 18 -7.5t7 -18.5zM592 396q0 -11 -7.5 -19t-18.5 -8t-19 8t-8 19t8 18.5t19 7.5t18.5 -7.5t7.5 -18.5zM687 300q0 -10 -7 -17.5t-18 -7.5q-12 0 -19 7.5t-7 17.5q0 26 26 26q25 0 25 -26zM401 587q0 -12 -8 -19t-19 -7q-25 0 -25 26q0 11 7 18.5
t18 7.5t19 -7.5t8 -18.5zM783 204q0 -11 -7.5 -18.5t-18.5 -7.5q-12 0 -19 7.5t-7 18.5t7 19t19 8q11 0 18.5 -8t7.5 -19zM401 491q0 -10 -8 -17.5t-19 -7.5t-18 7.5t-7 17.5q0 11 7 18.5t18 7.5t19 -7.5t8 -18.5zM495 396q0 -11 -7 -19t-18 -8q-10 0 -18 8t-8 19t8 18.5
t18 7.5q11 0 18 -7.5t7 -18.5zM592 300q0 -10 -7.5 -17.5t-18.5 -7.5t-19 7.5t-8 17.5q0 11 8 18.5t19 7.5t18.5 -7.5t7.5 -18.5zM687 204q0 -11 -7 -18.5t-18 -7.5q-12 0 -19 7.5t-7 18.5t7 19t19 8q11 0 18 -8t7 -19zM305 587q0 -12 -7.5 -19t-18.5 -7t-18.5 7t-7.5 19
q0 11 7.5 18.5t18.5 7.5t18.5 -7.5t7.5 -18.5zM783 109q0 -11 -7.5 -18.5t-18.5 -7.5q-12 0 -19 7.5t-7 18.5t7 18t19 7q11 0 18.5 -7t7.5 -18zM209 587q0 -26 -25 -26q-11 0 -18.5 7t-7.5 19q0 11 7.5 18.5t18.5 7.5q12 0 18.5 -7.5t6.5 -18.5zM305 491q0 -10 -7.5 -17.5
t-18.5 -7.5t-18.5 7.5t-7.5 17.5q0 11 7.5 18.5t18.5 7.5t18.5 -7.5t7.5 -18.5zM401 396q0 -11 -8 -19t-19 -8t-18 8t-7 19t7 18.5t18 7.5t19 -7.5t8 -18.5zM495 300q0 -10 -7 -17.5t-18 -7.5q-10 0 -18 7.5t-8 17.5q0 11 8 18.5t18 7.5q25 0 25 -26zM592 204
q0 -11 -7.5 -18.5t-18.5 -7.5t-19 7.5t-8 18.5t8 19t19 8t18.5 -8t7.5 -19zM687 109q0 -11 -7 -18.5t-18 -7.5q-12 0 -19 7.5t-7 18.5t7 18t19 7q11 0 18 -7t7 -18zM783 13q0 -11 -7.5 -18.5t-18.5 -7.5q-12 0 -19 7.5t-7 18.5q0 26 26 26q11 0 18.5 -7t7.5 -19zM209 491
q0 -10 -6.5 -17.5t-18.5 -7.5q-11 0 -18.5 7.5t-7.5 17.5q0 11 7.5 18.5t18.5 7.5q12 0 18.5 -7.5t6.5 -18.5zM687 13q0 -11 -7 -18.5t-18 -7.5q-12 0 -19 7.5t-7 18.5q0 26 26 26q25 0 25 -26zM305 396q0 -11 -7.5 -19t-18.5 -8t-18.5 8t-7.5 19t7.5 18.5t18.5 7.5
t18.5 -7.5t7.5 -18.5zM401 300q0 -10 -8 -17.5t-19 -7.5t-18 7.5t-7 17.5q0 26 25 26q11 0 19 -7.5t8 -18.5zM495 204q0 -11 -7 -18.5t-18 -7.5q-10 0 -18 7.5t-8 18.5t8 19t18 8q11 0 18 -8t7 -19zM592 109q0 -11 -7.5 -18.5t-18.5 -7.5t-19 7.5t-8 18.5t8 18t19 7t18.5 -7
t7.5 -18zM209 396q0 -11 -6.5 -19t-18.5 -8q-11 0 -18.5 8t-7.5 19t7.5 18.5t18.5 7.5q12 0 18.5 -7.5t6.5 -18.5zM592 13q0 -11 -7.5 -18.5t-18.5 -7.5t-19 7.5t-8 18.5q0 12 8 19t19 7t18.5 -7t7.5 -19zM305 300q0 -10 -7.5 -17.5t-18.5 -7.5t-18.5 7.5t-7.5 17.5
q0 11 7.5 18.5t18.5 7.5t18.5 -7.5t7.5 -18.5zM401 204q0 -11 -8 -18.5t-19 -7.5t-18 7.5t-7 18.5t7 19t18 8t19 -8t8 -19zM495 109q0 -11 -7 -18.5t-18 -7.5q-10 0 -18 7.5t-8 18.5t8 18t18 7q11 0 18 -7t7 -18zM209 300q0 -10 -6.5 -17.5t-18.5 -7.5q-11 0 -18.5 7.5
t-7.5 17.5q0 11 7.5 18.5t18.5 7.5q25 0 25 -26zM495 13q0 -11 -7 -18.5t-18 -7.5q-10 0 -18 7.5t-8 18.5q0 12 8 19t18 7q25 0 25 -26zM305 204q0 -11 -7.5 -18.5t-18.5 -7.5t-18.5 7.5t-7.5 18.5t7.5 19t18.5 8t18.5 -8t7.5 -19zM401 109q0 -11 -8 -18.5t-19 -7.5t-18 7.5
t-7 18.5t7 18t18 7t19 -7t8 -18zM209 204q0 -11 -6.5 -18.5t-18.5 -7.5q-11 0 -18.5 7.5t-7.5 18.5t7.5 19t18.5 8q12 0 18.5 -8t6.5 -19zM401 13q0 -11 -8 -18.5t-19 -7.5t-18 7.5t-7 18.5q0 26 25 26q11 0 19 -7t8 -19zM305 109q0 -11 -7.5 -18.5t-18.5 -7.5t-18.5 7.5
t-7.5 18.5t7.5 18t18.5 7t18.5 -7t7.5 -18zM209 109q0 -11 -6.5 -18.5t-18.5 -7.5q-11 0 -18.5 7.5t-7.5 18.5t7.5 18t18.5 7q12 0 18.5 -7t6.5 -18zM305 13q0 -11 -7.5 -18.5t-18.5 -7.5t-18.5 7.5t-7.5 18.5q0 12 7.5 19t18.5 7t18.5 -7t7.5 -19zM209 13q0 -11 -6.5 -18.5
t-18.5 -7.5q-11 0 -18.5 7.5t-7.5 18.5q0 12 7.5 19t18.5 7q25 0 25 -26z" />
    <glyph glyph-name="uni25A4" unicode="&#x25a4;" 
d="M849 -81h-758v757h758v-757zM816 573v70h-692v-70h692zM816 466v75h-692v-75h692zM816 366v68h-692v-68h692zM816 261v73h-692v-73h692zM816 155v74h-692v-74h692zM816 53v70h-692v-70h692zM816 -48v69h-692v-69h692z" />
    <glyph glyph-name="uni25A5" unicode="&#x25a5;" 
d="M849 -81h-758v757h758v-757zM816 -48v691h-70v-691h70zM714 -48v691h-70v-691h70zM612 -48v691h-74v-691h74zM506 -48v691h-73v-691h73zM401 -48v691h-68v-691h68zM301 -48v691h-75v-691h75zM194 -48v691h-70v-691h70z" />
    <glyph glyph-name="uni25A8" unicode="&#x25a8;" 
d="M849 -81h-758v757h758v-757zM816 499v120l-667 -667h120zM816 330v120l-498 -498h120zM816 160v121l-329 -329h121zM816 -48v159l-159 -159h159zM282 643h-158v-157zM453 643h-122l-207 -206v-122zM622 643h-120l-378 -377v-120zM790 643h-119l-547 -546v-120z" />
    <glyph glyph-name="uni25A7" unicode="&#x25a7;" 
d="M849 -81h-758v757h758v-757zM816 486v157h-158zM816 315v122l-207 206h-122zM816 146v120l-378 377h-120zM816 -23v120l-547 546h-119zM791 -48l-667 667v-120l547 -547h120zM622 -48l-498 498v-120l378 -378h120zM453 -48l-329 329v-121l208 -208h121zM283 -48l-159 159
v-159h159z" />
    <glyph glyph-name="uni25A6" unicode="&#x25a6;" 
d="M849 -81h-758v757h758v-757zM816 570v73h-73v-73h73zM816 467v73h-73v-73h73zM712 570v73h-73v-73h73zM816 364v73h-73v-73h73zM609 570v73h-73v-73h73zM712 467v73h-73v-73h73zM816 261v73h-73v-73h73zM506 570v73h-73v-73h73zM609 467v73h-73v-73h73zM712 364v73h-73
v-73h73zM816 158v73h-73v-73h73zM403 570v73h-73v-73h73zM506 467v73h-73v-73h73zM609 364v73h-73v-73h73zM712 261v73h-73v-73h73zM816 55v73h-73v-73h73zM300 570v73h-73v-73h73zM403 467v73h-73v-73h73zM506 364v73h-73v-73h73zM609 261v73h-73v-73h73zM712 158v73h-73
v-73h73zM816 -48v73h-73v-73h73zM197 570v73h-73v-73h73zM300 467v73h-73v-73h73zM403 364v73h-73v-73h73zM506 261v73h-73v-73h73zM609 158v73h-73v-73h73zM712 55v73h-73v-73h73zM712 -48v73h-73v-73h73zM197 467v73h-73v-73h73zM300 364v73h-73v-73h73zM403 261v73h-73
v-73h73zM506 158v73h-73v-73h73zM609 55v73h-73v-73h73zM609 -48v73h-73v-73h73zM197 364v73h-73v-73h73zM300 261v73h-73v-73h73zM403 158v73h-73v-73h73zM506 55v73h-73v-73h73zM506 -48v73h-73v-73h73zM197 261v73h-73v-73h73zM300 158v73h-73v-73h73zM403 55v73h-73v-73
h73zM403 -48v73h-73v-73h73zM197 158v73h-73v-73h73zM300 55v73h-73v-73h73zM300 -48v73h-73v-73h73zM197 55v73h-73v-73h73zM197 -48v73h-73v-73h73z" />
    <glyph glyph-name="uni25A9" unicode="&#x25a9;" 
d="M849 -81h-758v757h758v-757zM816 486v135l-69 -68zM789 643h-131l65 -66zM791 461l-67 69l-62 -62l68 -68zM698 553l-65 65l-61 -60l66 -66zM610 643h-123l62 -61zM816 314v123l-61 -61zM524 558l-61 60l-60 -60l60 -60zM614 468l-66 65l-61 -60l67 -65zM706 377l-68 67
l-60 -60l67 -69zM791 291l-61 60l-60 -60l61 -60zM438 643h-120l60 -60zM816 146v120l-60 -60zM622 291l-69 68l-60 -60l68 -67zM354 558l-61 61l-60 -60l61 -60zM528 384l-65 65l-59 -60l65 -65zM707 206l-62 60l-59 -59l60 -61zM791 122l-60 60l-60 -60l60 -61zM438 473
l-61 61l-59 -60l61 -61zM269 643h-119l59 -59zM816 -23v120l-60 -60zM791 -48l-60 60l-60 -60h120zM184 559l-60 60v-120zM537 206l-68 70l-60 -62l67 -67zM269 474l-60 61l-60 -61l60 -60zM354 390l-60 60l-61 -60l61 -60zM443 299l-65 66l-60 -60l66 -65zM622 122l-60 60
l-60 -60l60 -61zM707 37l-61 60l-60 -60l60 -60zM622 -48l-60 60l-60 -60h120zM184 390l-60 60v-120zM269 305l-60 60l-60 -60l60 -60zM359 215l-65 66l-61 -61l66 -65zM453 122l-69 69l-61 -60l68 -70zM537 37l-60 60l-60 -60l60 -60zM184 220l-60 61v-120zM453 -48l-61 60
l-61 -60h122zM274 131l-65 65l-60 -60l65 -65zM367 38l-68 68l-61 -60l70 -69zM189 46l-65 65v-130zM283 -48l-69 70l-68 -70h137z" />
    <glyph glyph-name="uni2668" unicode="&#x2668;" 
d="M676 298q3 -38 -5 -68t-20.5 -54t-26 -43.5t-21.5 -35.5q-14 -26 -20.5 -45.5t-8.5 -28.5q-2 -6 -6.5 -8t-7.5 8q-3 7 -4.5 19t-1.5 26.5t2.5 29t7.5 26.5q9 23 18.5 51t15 58t4.5 60t-12 56q-17 39 -23.5 71t-5 60t9.5 54t19 53q8 17 11 37t3 33q0 9 4.5 11t9.5 -9
q8 -16 14 -51.5t-2 -94.5q-5 -35 0 -59t14 -45.5t18.5 -47t13.5 -63.5zM541 286q4 -23 -2 -50t-17.5 -54t-24 -50.5t-19.5 -38.5q-15 -29 -22 -46.5t-8 -28.5q-1 -9 -8 -8.5t-10 7.5q-7 17 -8 50t16 76q15 36 18.5 71.5t0.5 66t-9.5 53t-10.5 30.5q-20 47 -23 84t3.5 66.5
t18.5 53.5l23 45q14 30 18.5 54.5t4.5 40.5q0 11 5.5 10.5t10.5 -8.5q5 -11 9.5 -29t6 -40.5t-1 -47.5t-11.5 -50q-13 -37 -11.5 -67t10.5 -59t21 -60t20 -71zM397 260q3 -31 -14 -75t-43 -93q-13 -25 -18 -39.5t-6 -23.5t-6.5 -9.5t-10.5 9.5q-7 13 -10 39.5t9 59.5
q5 14 11 39.5t9 55.5t0.5 62.5t-13.5 60.5q-29 70 -19 134t41 121q18 30 24 61q2 8 7 7.5t7 -6.5q5 -15 6 -53t-16 -100q-6 -22 -2 -49.5t12 -59.5l17.5 -67.5t14.5 -73.5zM876 97q0 -47 -32.5 -86t-87.5 -67.5t-128 -44t-153 -15.5q-81 0 -155.5 13.5t-131.5 38t-91 58.5
t-34 75t25 72t59.5 53t70.5 35.5t57 19.5q11 4 13 -5t-11 -13l-26.5 -13t-47.5 -29t-45.5 -43.5t-20.5 -55.5q0 -26 30 -45.5t78.5 -32.5t109 -19.5t121.5 -6.5t121.5 8.5t108.5 25t78 39.5t30 52q0 21 -13 39.5t-32 33.5t-39 25t-34 14q-12 5 -9 12t14 5q15 -2 44 -11.5
t58 -27.5t51 -44t22 -60z" />
    <glyph glyph-name="uni260F" unicode="&#x260f;" 
d="M901 329q-6 -11 -20 -13.5t-33 -0.5t-40 7t-40 10q-32 9 -57.5 22.5t-29.5 32.5q-2 7 0 18t5.5 22.5t6 22t1.5 17.5q-4 21 -18.5 25t-34.5 5q-2 -12 -3 -23.5t0 -25t4 -31t11 -41.5q7 -27 16.5 -46t21.5 -34t25.5 -27.5t29.5 -25.5q26 -21 40.5 -45.5t21.5 -47.5
t8.5 -43.5t1.5 -35.5q8 -3 12.5 -12.5t7 -21.5t2.5 -25t-1 -23q-1 -9 -10 -12.5t-24 -3.5h-670q-15 0 -24 3.5t-10 12.5q-1 10 -1 23t2.5 25t7 21.5t12.5 12.5q0 15 1.5 35.5t8.5 43.5t21.5 47.5t40.5 45.5q16 13 29.5 25.5t25.5 27.5t21.5 34t16.5 46q7 24 10 41.5t4 31
t0 25l-2 23.5q-20 -1 -34.5 -5t-18.5 -25q-2 -7 0.5 -17.5t6 -22t6 -22.5t0.5 -18q-4 -19 -29.5 -32.5t-57.5 -22.5l-40.5 -10t-39.5 -7t-33 0.5t-20 13.5q-6 10 -8 29.5t1.5 42t12 45.5t22.5 41q25 32 68 55.5t97 38.5t115.5 22.5t122.5 7.5t122.5 -7.5t115.5 -22.5
t97 -38.5t68 -55.5q14 -18 22.5 -41t12 -45.5t1.5 -42t-8 -29.5zM537 437v58q-12 -5 -30.5 -7.5t-36.5 -2.5q-20 0 -37.5 2.5t-29.5 7.5v-58h134zM864 351q6 1 9 16.5t-1.5 38t-19 49t-42.5 48.5q-22 18 -63 32.5t-89.5 25t-98.5 16t-89 5.5q-52 0 -103.5 -5.5t-97 -16
t-82 -25t-58.5 -32.5q-29 -22 -43 -48t-18.5 -49t-1.5 -38.5t9 -16.5q19 -2 40 0.5t40.5 8.5t36 14t27.5 17q6 4 3.5 14.5t-6 24t-5 29t4.5 29.5q9 20 43.5 31.5t101.5 11.5q11 0 21.5 -2t24.5 -4q17 -4 31.5 -6.5t31.5 -2.5t31.5 2.5t31.5 6.5q13 2 24 4t22 2
q67 0 100.5 -11.5t43.5 -31.5q7 -14 5.5 -29.5t-5 -29t-6 -24t3.5 -14.5q10 -9 26.5 -17t36 -13.5t40.5 -8.5t40 -1zM791 8q3 0 4.5 8t0.5 18.5t-4.5 21.5t-10.5 16q0 11 -2.5 29t-7.5 37t-14 37t-22 30l-39 36.5t-27.5 29t-20 27t-15.5 31.5q-17 49 -21.5 92t-2.5 75h-39
v-89h-200v89h-40q3 -32 -1.5 -75t-22.5 -92q-7 -18 -15 -31.5t-20 -27t-28 -29l-38 -36.5q-13 -12 -22 -30t-14 -37t-7.5 -37t-2.5 -29q-8 -5 -11.5 -16t-4 -21.5t1 -18.5t4.5 -8h642zM631 203q0 -33 -13 -62t-34.5 -51t-51 -35t-62.5 -13t-62.5 13t-51 35t-34.5 51t-13 62
t13 62.5t34.5 51t51 34.5t62.5 13t62.5 -13t51 -34.5t34.5 -51t13 -62.5zM593 203q0 26 -9.5 48.5t-26.5 39.5t-39.5 26.5t-47.5 9.5q-26 0 -48.5 -9.5t-39.5 -26.5t-26.5 -39.5t-9.5 -48.5t9.5 -48.5t26.5 -39t39.5 -26t48.5 -9.5q25 0 47.5 9.5t39.5 26t26.5 39t9.5 48.5z
" />
    <glyph glyph-name="uni260E" unicode="&#x260e;" 
d="M901 329q-6 -11 -20 -13.5t-33 -0.5t-40 7t-40 10q-32 9 -57.5 22.5t-29.5 32.5q-2 7 0.5 18t6.5 22.5t7 22t2 17.5q-4 21 -20 28t-36 10q-3 -23 -3 -52t15 -77q7 -27 16.5 -46t21.5 -34t25.5 -27.5t29.5 -25.5q26 -21 40.5 -45.5t21.5 -47.5t8.5 -43.5t1.5 -35.5
q8 -3 12.5 -12.5t7 -21.5t2.5 -25t-1 -23q-1 -9 -10 -12.5t-24 -3.5h-670q-15 0 -24 3.5t-10 12.5q-1 10 -1 23t2.5 25t7 21.5t12.5 12.5q0 15 1.5 35.5t8.5 43.5t21.5 47.5t40.5 45.5q16 13 29.5 25.5t25.5 27.5t21.5 34t16.5 46q14 48 14.5 77t-2.5 52q-20 -3 -36 -10
t-20 -28q-2 -7 1 -17.5t7 -22t7 -22.5t1 -18q-4 -19 -29.5 -32.5t-57.5 -22.5l-40.5 -10t-39.5 -7t-33 0.5t-20 13.5q-6 10 -8 29.5t1.5 42t12 46t22.5 41.5q25 32 68 55.5t97 38.5t115.5 22t122.5 7t122.5 -7t115.5 -22t97 -38.5t68 -55.5q14 -18 22.5 -41.5t12 -46
t1.5 -42t-8 -29.5zM550 442v66q-15 -4 -36 -7t-44 -3t-44 3t-36 7v-66h160zM620 206q0 31 -12 58.5t-32 47.5t-47.5 32t-58.5 12t-58.5 -12t-47.5 -32t-32 -47.5t-12 -58.5t12 -58t32 -47.5t47.5 -32t58.5 -11.5t58.5 11.5t47.5 32t32 47.5t12 58z" />
    <glyph glyph-name="uni261C" unicode="&#x261c;" 
d="M837 182h-78v21h-29q-27 -16 -66.5 -30.5t-105.5 -25.5q-19 -3 -46 -4t-55 -1t-53.5 1.5t-41.5 3.5q-19 3 -35.5 10t-21.5 24q-2 12 3 19.5t13 12.5q-14 0 -26 9.5t-13 24.5q-1 11 2.5 18t8.5 13q-14 2 -25.5 9t-11.5 24q0 23 19.5 32t64.5 9l-3 8q-24 1 -43.5 1.5l-39 1
t-41.5 1.5t-50 3l-44.5 2t-41 5t-30 12.5t-11.5 24.5q0 13 9.5 20.5t25.5 11t38 5t48 3.5q14 1 45.5 2t72 1.5t86.5 1t88 0.5q33 0 66 -0.5t65.5 -5.5t62.5 -17.5t56 -36.5q17 -4 33 -5.5t28 -0.5v32h77v-240zM760 215v157q-8 -1 -21.5 0t-23.5 3q2 -7 3 -8q2 -10 0 -10.5
t-8 5.5q-8 10 -22.5 23t-36.5 27q-16 10 -42 16.5t-54 9.5t-53.5 3.5t-38.5 -1.5q-15 -2 -34 -8.5t-34 -16.5q-8 -5 -12.5 -12l-9.5 -15q-8 -19 -20 -25q-4 -5 3 -9t29 4q10 4 18.5 10.5t14.5 12.5t10 9.5t6 0.5q5 -5 -4 -16q8 -3 21 -4.5t21 0.5q20 6 30.5 13.5t12.5 3.5
q2 -5 -2.5 -12t-12.5 -12q6 -9 27.5 -25.5t53.5 -27.5q20 -7 37.5 -9.5t30 -4t19.5 -3t7 -5.5q0 -3 -9.5 -4t-23 0t-29 3.5t-27.5 5.5q-21 7 -38 16t-30 19t-21.5 18.5t-12.5 14.5q-5 -3 -11.5 -3.5t-12.5 -0.5q-14 1 -25.5 3t-16.5 4l-16 -13q27 0 45.5 -6.5t21.5 -18.5
q4 -14 0 -25t-12 -17q29 -7 32 -29q2 -14 -2.5 -20.5t-12.5 -11.5q29 -8 32 -29q3 -16 -4.5 -25t-8.5 -9q15 -3 36 0q79 7 126.5 25t79.5 39q3 3 5.5 3t1.5 -4l-2 -9h20zM410 440q-50 0 -116.5 -1t-135.5 -3q-50 -2 -77.5 -5.5t-27.5 -19.5t24 -19.5t81 -7.5l105.5 -5
l84.5 -4l9 14t13 19t17 19t23 13zM821 198v207h-45v-207h45zM473 246q1 15 -6 20.5t-23 8.5q-7 1 -23.5 1h-35t-36 -0.5t-26.5 -0.5q-10 -2 -17 -9t-7 -17q0 -16 26 -20q5 -1 23.5 -2t39 -1h36.5h17q10 0 20.5 4.5t11.5 15.5zM490 192q-1 11 -11.5 14.5t-20.5 3.5
q-27 1 -59.5 1t-55.5 -2q-11 -1 -15.5 -8.5t-2.5 -15.5q1 -6 5.5 -11.5t12.5 -7.5q27 -5 59 -5.5t57 1.5q34 1 31 30zM449 316q0 6 -4.5 11.5t-15.5 6.5q-38 2 -71.5 3t-65.5 -3q-10 -2 -15 -8.5t-4 -14.5q0 -7 5 -13t15 -6q16 -1 35 -1h37.5t35.5 1t29 2q8 2 13.5 6.5
t5.5 15.5z" />
    <glyph glyph-name="uni261E" unicode="&#x261e;" 
d="M864 411q0 -16 -11.5 -24.5t-30 -12.5t-41 -5l-44.5 -2q-28 -2 -50 -3t-41.5 -1.5l-39 -1t-43.5 -1.5l-3 -8q45 0 64.5 -9t19.5 -32q0 -17 -11.5 -24t-25.5 -9q5 -6 8.5 -13t2.5 -18q-1 -15 -13 -24.5t-26 -9.5q8 -5 13 -12.5t3 -19.5q-5 -17 -21.5 -24t-35.5 -10
q-16 -2 -41.5 -3.5t-53.5 -1.5t-55 1t-46 4q-66 11 -105.5 25.5t-66.5 30.5h-29v-21h-78v240h77v-32q12 -1 28 0.5t33 5.5q26 24 56 36.5t62.5 17.5t65.5 5.5t66 0.5q42 0 88 -0.5t86.5 -1t72 -1.5t45.5 -2q25 -2 47.5 -3.5t38.5 -5t25.5 -11t9.5 -20.5zM547 363
q-12 6 -20 25l-9.5 15t-12.5 12q-15 10 -34 16.5t-34 8.5q-14 2 -39 1.5t-53 -3.5t-54 -9.5t-42 -16.5q-22 -14 -36.5 -27t-22.5 -23q-6 -6 -8 -5.5t0 10.5q2 2 2 3.5t1 4.5q-10 -2 -23.5 -3t-21.5 0v-157h20l-2 9q-1 4 1.5 4t5.5 -3q16 -11 35.5 -21t44 -18.5t55.5 -15
t71 -9.5q21 -3 35 0q-2 2 -8.5 10.5t-3.5 23.5q3 21 32 29q-8 5 -12.5 11.5t-2.5 20.5q2 11 9.5 18t22.5 11q-8 6 -12 17t0 25q4 12 22 18.5t45 6.5l-16 13q-5 -2 -16.5 -4t-25.5 -3q-6 0 -12.5 0.5t-11.5 3.5q-4 -6 -12.5 -14.5t-21.5 -18.5t-30 -19t-38 -16
q-12 -3 -27.5 -5.5t-29 -3.5t-23 0t-9.5 4q0 4 7 5.5t19.5 3t30 4t37.5 9.5q32 11 53.5 27.5t27.5 25.5q-8 5 -12.5 12t-2.5 12q2 4 12.5 -3.5t30.5 -13.5q8 -2 21 -0.5t21 4.5q-9 11 -4 16q2 3 6 -0.5t10 -9.5t14 -12.5t19 -10.5q22 -8 29 -4t3 9zM847 411q0 16 -27.5 19.5
t-77.5 5.5q-69 2 -135.5 3t-116.5 1q14 -5 23 -13t17 -19t13 -19l9 -14l84.5 4l105.5 5q57 4 81 7.5t24 19.5zM124 198v207h-45v-207h45zM601 249q0 10 -7 17t-17 9q-9 0 -26.5 0.5t-36.5 0.5h-35t-23 -1q-15 -3 -22.5 -8.5t-6.5 -20.5q1 -11 11.5 -15.5t20.5 -4.5h17h36.5
t39 1t23.5 2q26 4 26 20zM575 185q2 8 -2.5 15.5t-15.5 8.5q-23 2 -55.5 2t-59.5 -1q-10 0 -20.5 -3.5t-11.5 -14.5q-3 -29 31 -30q25 -2 57 -1.5t59 5.5q8 2 12.5 7.5t5.5 11.5zM627 311q1 8 -4 14.5t-15 8.5q-32 4 -65.5 3t-71.5 -3q-11 -1 -15.5 -6.5t-4.5 -11.5
q0 -11 5.5 -15.5t13.5 -6.5q12 -1 29 -2t35.5 -1h37.5t35 1q10 0 15 6t5 13z" />
    <glyph glyph-name="paragraph" unicode="&#xb6;" horiz-adv-x="600" 
d="M289 327h-48q-42 0 -79.5 12t-66 35.5t-45.5 58.5t-17 81q0 39 12.5 73t41 60t74.5 41t112 15h248v-854h-73v789h-86v-789h-73v478z" />
    <glyph glyph-name="dagger" unicode="&#x2020;" horiz-adv-x="499" 
d="M201 411h-166v89h166v203h98v-203h165v-89h-165v-508h-98v508z" />
    <glyph glyph-name="daggerdbl" unicode="&#x2021;" horiz-adv-x="505" 
d="M38 313h166v98h-166v89h166v203h98v-203h164v-89h-164v-98h164v-88h-164v-322h-98v322h-166v88z" />
    <glyph glyph-name="arrowupdn" unicode="&#x2195;" horiz-adv-x="586" 
d="M323 557v-426l129 75l17 -15l-176 -212l-176 212l17 15l129 -75v426l-129 -76l-17 15l176 212l176 -212l-17 -15z" />
    <glyph glyph-name="uni2197" unicode="&#x2197;" horiz-adv-x="805" 
d="M42 25l593 592l-145 37l-1 24l274 25l-25 -274l-24 1l-37 145l-593 -593z" />
    <glyph glyph-name="uni2199" unicode="&#x2199;" horiz-adv-x="806" 
d="M764 663l-594 -592l145 -38l2 -24l-275 -25l25 275l24 -2l38 -145l593 593z" />
    <glyph glyph-name="uni2196" unicode="&#x2196;" horiz-adv-x="805" 
d="M721 -18l-593 593l-37 -145l-24 -1l-25 274l274 -25l-1 -24l-145 -37l593 -592z" />
    <glyph glyph-name="uni2198" unicode="&#x2198;" horiz-adv-x="806" 
d="M84 705l593 -593l38 145l24 2l25 -275l-275 25l2 24l145 38l-594 592z" />
    <glyph glyph-name="uni266D" unicode="&#x266d;" horiz-adv-x="517" 
d="M344 227q0 55 -19.5 92.5t-53.5 37.5q-29 0 -49.5 -12t-34.5 -30t-20.5 -39t-6.5 -39v-219q30 2 62.5 14t59.5 37t44.5 63.5t17.5 94.5zM421 265q0 -86 -31.5 -142.5t-80 -90t-105.5 -47.5t-108 -17v679h64v-335q6 16 16 33t26.5 31.5t41 23.5t59.5 9q24 0 45.5 -10
t37.5 -29t25.5 -45.5t9.5 -59.5z" />
    <glyph glyph-name="uni2669" unicode="&#x2669;" horiz-adv-x="388" 
d="M290 111q0 -44 -6.5 -72.5t-29.5 -54.5q-14 -17 -32.5 -30.5t-38.5 -20.5t-38.5 -5t-32.5 18t-14.5 35t8 38.5t24 36.5t34.5 28q39 22 87 29v556h39v-558z" />
    <glyph glyph-name="musicalnote" unicode="&#x266a;" horiz-adv-x="539" 
d="M483 340q0 -31 -9 -63t-31 -65q-20 -30 -50.5 -59t-58.5 -46q-11 -7 -14.5 -1t4.5 14l30.5 32t33.5 44t26.5 55t10.5 65q0 33 -19 57t-47 40.5t-58.5 27l-52.5 17.5v-347q0 -44 -7 -72.5t-29 -54.5q-14 -17 -32.5 -30.5t-38.5 -20.5t-38.5 -5t-32.5 18t-14.5 35t8 38.5
t24 36.5t34.5 28q39 22 87 29v510q0 14 1 27.5t8 13.5t13 -5t19 -19q13 -16 28 -32.5t43 -40.5q44 -38 74.5 -69.5t50 -58.5t28.5 -51.5t9 -47.5z" />
    <glyph glyph-name="uni266C" unicode="&#x266c;" horiz-adv-x="693" 
d="M603 490v59l-354 -75v-60zM644 189q0 -35 -20 -66t-49 -55q-13 -11 -29.5 -20t-33.5 -12.5t-32.5 0t-27.5 18.5q-9 12 -8 27.5t8 32t18.5 31.5t25.5 25q29 21 54 27.5t53 10.5v186l-354 -77v-227q0 -35 -19.5 -66t-48.5 -55q-14 -11 -30.5 -20t-33.5 -12.5t-32.5 0
t-27.5 18.5q-9 12 -8 27.5t8 32t18.5 31.5t25.5 25q29 21 54.5 27.5t52.5 10.5v455l436 88v-463z" />
    <glyph glyph-name="uni327F" unicode="&#x327f;" horiz-adv-x="900" 
d="M669 80h-113l-168 193l-4 -5v-188h-86v462h86v-175l147 171h106l-192 -215zM776 445q-40 96 -127 155q-45 30 -94 46t-105 16q-133 1 -237 -89q-100 -88 -121 -220h126v-73h-201v21q0 178 127 305q64 64 140 95t166 32q138 0 251 -80q108 -78 156 -208h-81zM884 301
q0 -180 -127 -307q-128 -126 -307 -126q-153 0 -271 96t-151 241l79 1q16 -58 46.5 -106t78.5 -85q93 -75 218 -75q144 0 248 98q105 100 112 242h-199v73h270q3 -26 3 -52z" />
    <glyph glyph-name="uni321C" unicode="&#x321c;" horiz-adv-x="915" 
d="M782 193h-286v-257h-76v257h-284v61h646v-61zM129 -174q-58 87 -90.5 210.5t-32.5 263.5t32.5 263.5t90.5 210.5h59q-32 -61 -52 -120.5t-31.5 -118t-15.5 -117t-4 -118.5t4 -118.5t15.5 -117t31.5 -118t52 -120.5h-59zM908 300q0 -140 -32 -263.5t-90 -210.5h-59
q31 61 51 120t31.5 117.5t15.5 117.5t4 119t-4 119t-15.5 117.5t-31.5 117.5t-51 120h59q58 -87 90 -210.5t32 -263.5zM720 561h-222q5 -35 32.5 -66t65 -54.5t80 -38t77.5 -15.5l-17.5 -29.5l-17.5 -28.5q-33 4 -73 18.5t-76.5 35.5t-66.5 46.5t-43 50.5q-14 -26 -42.5 -51
t-64.5 -45.5t-75 -35t-74 -18.5l-36 58q36 2 78.5 16t80 37t63.5 54t31 66h-222v60h522v-60z" />
    <glyph glyph-name="afii61352" unicode="&#x2116;" horiz-adv-x="900" 
d="M855 -39q-15 0 -25 11t-9 28q0 17 10 27t25 10q17 0 26.5 -10t9.5 -27t-10 -28t-27 -11zM652 10q30 0 48.5 22t29 55t14.5 70.5t4 69.5q0 31 -4 68.5t-14.5 70.5t-29.5 55t-50 22q-30 0 -49 -22t-29.5 -55t-14 -70.5t-3.5 -68.5q0 -32 3.5 -70t14 -70.5t29.5 -54.5
t50 -22h1zM648 -43q-32 0 -61 15.5t-51 48.5t-35.5 83.5t-13.5 121.5q0 72 14 123.5t37.5 84t54 48t62.5 15.5q31 0 60 -16t51 -49t35.5 -84t13.5 -121q0 -74 -14.5 -125.5t-38.5 -83.5t-53.5 -46.5t-59.5 -14.5h-1zM57 -35v732h63l141 -360l51 -135t47 -133h2
q-2 47 -3.5 88t-2.5 80.5t-1.5 80t-0.5 87.5v292h59v-732h-61l-148 375l-47.5 120t-44.5 137h-2q3 -39 4.5 -76.5t2 -78.5t1 -89t0.5 -108v-280h-60z" />
    <glyph glyph-name="uni33C7" unicode="&#x33c7;" horiz-adv-x="900" 
d="M852 -39q-16 0 -26 11t-9 28q0 17 10 27t26 10t25.5 -10t9.5 -27t-9.5 -28t-26.5 -11zM613 9q39 0 64 29.5t39.5 76t20 103t5.5 109.5q0 52 -5.5 108t-20.5 102t-40 75.5t-64 29.5t-64.5 -29.5t-41 -75.5t-21.5 -102t-6 -109t6 -109t21.5 -102.5t41 -76t64.5 -29.5h1z
M607 -48q-41 0 -76.5 22t-62 67.5t-41.5 116t-15 168.5q0 96 16 166.5t43.5 116.5t65 68.5t81.5 22.5q41 0 76.5 -22.5t61.5 -68.5t40.5 -116t14.5 -165q0 -102 -16.5 -173.5t-44 -116.5t-64.5 -65.5t-78 -20.5h-1zM382 -27q-35 -19 -103 -19q-48 0 -91 20t-75 63.5
t-50.5 112.5t-18.5 167q0 110 23.5 183.5t59.5 117.5t80 62t85 18q31 0 53.5 -5t33.5 -13l-16 -55q-14 5 -30 10t-46 5q-29 0 -60 -16t-56.5 -52.5t-42 -97t-16.5 -148.5q0 -90 15 -150.5t40 -97t57 -52t67 -15.5q25 0 45.5 5.5t33.5 11.5z" />
    <glyph glyph-name="trademark" unicode="&#x2122;" horiz-adv-x="694" 
d="M107 643h-89v60h251v-60h-91v-246h-71v246zM321 703h97l74 -216h3l75 216h97v-306h-71v218h-3l-73 -218h-62l-72 218h-4v-218h-61v306z" />
    <glyph glyph-name="uni33C2" unicode="&#x33c2;" horiz-adv-x="917" 
d="M872 -33q-14 0 -23 10t-8 25q0 14 9 23t23 9t23 -9t9 -23q0 -15 -9.5 -25t-23.5 -10zM315 -33q-14 0 -22.5 10t-7.5 25q0 14 8.5 23t22.5 9t23 -9t9 -23q0 -15 -9 -25t-24 -10zM196 244q-6 0 -25 -2.5t-40 -15t-37.5 -39.5t-16.5 -76q0 -29 5 -48t13.5 -30.5t18.5 -16
t20 -4.5q18 0 36 19.5t24 65.5q1 10 1.5 17.5t0.5 15.5v114zM256 83v-61t4 -55h-56l-4 51h-3q-28 -58 -77 -58q-20 0 -38.5 9.5t-33.5 28t-24 46t-9 63.5q0 49 16.5 84t42.5 57t58 32.5t63 11.5v21q0 69 -16.5 100.5t-55.5 31.5q-16 0 -30.5 -6t-27.5 -14l-15 46
q8 7 32.5 17t55.5 10q23 0 44 -7t37.5 -25.5t26.5 -50.5t10 -81v-251zM369 365q0 25 -0.5 42.5t-1.5 31t-1.5 25.5t-0.5 27h55l4 -57h1q13 30 37 47t57 17q27 0 53 -13.5t40 -57.5h2q22 41 48 58q13 8 27 10.5t27 2.5q49 0 75.5 -38t26.5 -124v-369h-62v349q0 20 -0.5 43
t-6 42t-18 31.5t-36.5 12.5q-23 0 -42.5 -21t-25.5 -64q-2 -12 -1.5 -24.5t0.5 -25.5v-343h-62v360q0 20 -1 41t-7 38t-19 28t-37 11q-22 0 -42.5 -21.5t-25.5 -72.5q-1 -11 -1 -21.5v-22.5v-340h-62v398z" />
    <glyph glyph-name="uni33D8" unicode="&#x33d8;" horiz-adv-x="917" 
d="M106 169q0 -12 0.5 -22.5t2.5 -22.5q6 -34 14.5 -52.5t17.5 -27.5t16.5 -11t9.5 -2q23 0 36.5 18t21 48t9.5 68t2 78q0 42 -3 81t-11 69t-22 48.5t-36 18.5q-12 0 -22 -9.5t-17.5 -23.5t-12 -32t-5.5 -34q-1 -11 -1 -23.5v-23.5v-145zM45 347q0 71 -2 106t-2 55h56l3 -58
h2q10 21 21 34t22 20t20.5 9t15.5 2q25 0 47 -15.5t38 -48t25.5 -83.5t9.5 -123q0 -75 -11.5 -126.5t-30 -83t-42 -45t-46.5 -13.5q-16 0 -27 5t-18 13t-11 17.5t-7 17.5h-2v-227h-61v544zM872 -32q-14 0 -23 10.5t-8 24.5q0 14 9 23.5t23 9.5t22.5 -9.5t8.5 -23.5t-9 -24.5
t-23 -10.5zM315 -32q-14 0 -23 10.5t-8 24.5q0 14 9 23.5t23 9.5t23 -9.5t9 -23.5t-9.5 -24.5t-23.5 -10.5zM377 366q0 25 -0.5 42.5t-1.5 31t-1.5 26t-0.5 27.5h55l4 -57h1q13 29 35.5 46.5t54.5 17.5q27 0 52.5 -13.5t40.5 -58.5h2q11 20 22.5 35.5t25.5 23.5
q13 8 27 10.5t27 2.5q48 0 73 -38.5t25 -123.5v-370h-62v349v43t-5 42.5t-17 32t-36 12.5q-22 0 -41.5 -21.5t-25.5 -64.5q-2 -11 -1.5 -24t0.5 -26v-343h-62v360q0 20 -1.5 41t-7.5 38.5t-19 28.5t-36 11q-21 0 -40 -21.5t-24 -72.5q-1 -11 -1 -22v-23v-340h-62v398z" />
    <glyph glyph-name="uni2121" unicode="&#x2121;" horiz-adv-x="900" 
d="M396 230q0 -70 12 -113t30 -67t40.5 -32t44.5 -8q26 0 47 6t36 14q2 -12 6 -24.5t6 -24.5q-21 -12 -49 -18t-57 -6q-45 0 -79 18.5t-56.5 53t-34 83.5t-11.5 109q0 63 12 115t33.5 89.5t52.5 58.5t69 21q39 0 65.5 -22t43 -56t23.5 -76t7 -81v-21.5t-1 -18.5h-240z
M176 639h-134v58h335v-58h-135v-674h-66v674zM721 715h65v-750h-65v750zM572 280v8q0 42 -7.5 72.5t-19.5 51t-27 30.5t-30 10q-21 0 -37.5 -16t-28 -41t-18 -55.5t-7.5 -59.5h175z" />
    <glyph glyph-name="uniFF01" unicode="&#xff01;" 
d="M402 63h117v-115h-117v115zM399 713h122l-13 -543h-95z" />
    <glyph glyph-name="uniFF02" unicode="&#xff02;" 
d="M317 703h112l-11 -200h-89zM490 703h113l-12 -200h-88z" />
    <glyph glyph-name="uniFF03" unicode="&#xff03;" 
d="M396 281h111l21 126h-110zM246 496h105l32 207h81l-33 -207h111l33 207h81l-32 -207h78v-89h-94l-19 -126h86v-89h-100l-35 -217h-81l35 217h-111l-35 -217h-80l33 217h-83v89h98l20 126h-90v89z" />
    <glyph glyph-name="uniFF04" unicode="&#xff04;" 
d="M371 -164l6 57.5t7 57.5q-50 5 -89 16.5t-68 28.5v83q36 -17 78 -28.5t88 -16.5q8 66 14.5 130t15.5 127q-45 15 -81 31.5t-60.5 39.5t-37.5 56t-13 82q0 43 14.5 79.5t44 63.5t74 42.5t103.5 15.5q3 16 4.5 31t3.5 32h72l-4 -34.5l-4 -34.5q37 -5 63 -14.5t48 -19.5v-86
q-25 10 -54 19.5t-66 14.5q-8 -60 -14.5 -118.5t-12.5 -118.5q45 -12 80.5 -29.5t59.5 -42t36.5 -59t12.5 -80.5q0 -96 -57.5 -153t-179.5 -61l-13 -111h-71zM585 151q0 46 -20 72.5t-73 46.5q-8 -59 -14 -118t-14 -118q63 7 92 38.5t29 78.5zM335 510q0 -23 4 -40.5t15 -31
t30.5 -24.5t49.5 -21q5 56 11 110.5t13 110.5q-60 -2 -91.5 -30t-31.5 -74z" />
    <glyph glyph-name="uniFF05" unicode="&#xff05;" 
d="M216 362q42 0 61.5 29.5t19.5 93.5v26q0 122 -81 122q-39 0 -59.5 -29t-20.5 -92v-26q0 -65 20 -94.5t60 -29.5zM703 18q42 0 61 29t19 94v24q0 64 -20 93.5t-60 29.5q-39 0 -60 -29t-21 -93v-24q0 -66 20 -95t61 -29zM662 709h87l-502 -791h-88zM703 -49q-81 0 -128 50
t-47 141v17q0 43 12.5 79.5t35.5 62.5t55 40.5t72 14.5q80 0 127 -51t47 -140v-16q0 -45 -12 -81.5t-34.5 -62.5t-55 -40t-72.5 -14zM216 296q-81 0 -127.5 50.5t-46.5 139.5v18q0 44 12.5 80t35 62t54.5 40.5t72 14.5q80 0 127.5 -51t47.5 -139v-18q0 -44 -12.5 -80.5
t-35 -62.5t-55 -40t-72.5 -14z" />
    <glyph glyph-name="uniFF06" unicode="&#xff06;" 
d="M346 532q0 -30 12.5 -56.5t35.5 -55.5l12 -14q20 10 39 22.5t34 28.5t24.5 35.5t9.5 44.5q0 39 -23 62t-58 23q-37 0 -61.5 -22.5t-24.5 -67.5zM406 31q42 0 77.5 13t63.5 36l-195 231q-43 -24 -71 -56.5t-28 -85.5q0 -63 38 -100.5t115 -37.5zM403 -52q-122 0 -191 53
t-69 157q0 40 12 72t33 57.5t50 46t64 37.5q-33 40 -48.5 77t-15.5 78q0 45 16 78t43 54.5t62 32t73 10.5q39 0 73 -11t59 -32t39 -50.5t14 -66.5q0 -38 -13 -67t-35.5 -51.5t-52 -40.5t-62.5 -33l154 -185q15 32 24 69.5t13 79.5h95q-11 -127 -73 -220l110 -133h-130
l-48 58q-40 -34 -89.5 -52t-106.5 -18z" />
    <glyph glyph-name="uniFF07" unicode="&#xff07;" 
d="M404 703h112l-11 -200h-89z" />
    <glyph glyph-name="uniFF08" unicode="&#xff08;" 
d="M510 -151q-38 37 -73 83.5t-61.5 102t-42.5 120t-16 136.5v19q0 72 16 136t42.5 119.5t61.5 102t73 83.5h92q-36 -40 -68.5 -88.5t-56.5 -103.5t-38 -115.5t-14 -124.5v-29q0 -62 14 -123.5t38 -118.5t56.5 -108t68.5 -91h-92z" />
    <glyph glyph-name="uniFF09" unicode="&#xff09;" 
d="M317 -151q36 40 68.5 89t56.5 104t38 115.5t14 124.5v29q0 62 -14 123t-38 118t-56.5 107.5t-68.5 91.5h92q39 -37 74 -84t61.5 -102.5t42 -119t15.5 -135.5v-19q0 -72 -15.5 -136.5t-42 -120t-61.5 -102t-74 -83.5h-92z" />
    <glyph glyph-name="uniFF0A" unicode="&#xff0a;" 
d="M426 484l-92 -61l-37 67l98 47l-98 47l37 67l92 -60l-4 112h76l-4 -112l90 60l38 -67l-97 -47l97 -47l-38 -67l-90 61l4 -113h-76z" />
    <glyph glyph-name="uniFF0B" unicode="&#xff0b;" 
d="M412 267h-185v89h185v193h95v-193h186v-89h-186v-193h-95v193z" />
    <glyph glyph-name="uniFF0C" unicode="&#xff0c;" 
d="M408 61h119l-47 -238h-88z" />
    <glyph glyph-name="uniFF0D" unicode="&#xff0d;" 
d="M292 356h317v-90h-317v90z" />
    <glyph glyph-name="uniFF0E" unicode="&#xff0e;" 
d="M401 63h117v-115h-117v115z" />
    <glyph glyph-name="uniFF0F" unicode="&#xff0f;" 
d="M539 751h94l-253 -902h-94z" />
    <glyph glyph-name="uniFF10" unicode="&#xff10;" 
d="M460 33q70 0 101.5 62.5t31.5 203.5v39q0 142 -31.5 204.5t-101.5 62.5t-101.5 -62t-31.5 -204v-38q0 -141 31 -204.5t102 -63.5zM460 -53q-126 0 -187.5 88.5t-61.5 259.5v47q0 170 62 259.5t187 89.5q126 0 187.5 -89t61.5 -259v-48q0 -171 -61.5 -259.5t-187.5 -88.5z
" />
    <glyph glyph-name="uniFF11" unicode="&#xff11;" 
d="M468 569l-127 -28v65l179 81h59v-732h-111v614z" />
    <glyph glyph-name="uniFF12" unicode="&#xff12;" 
d="M220 30l204 194l67.5 66t46.5 56t26.5 55.5t8.5 64.5q0 69 -40 101.5t-114 32.5q-38 0 -79.5 -13t-77.5 -35l-33 76q42 26 97 44.5t118 18.5q62 0 108 -17t76.5 -46t45.5 -68t15 -82q0 -49 -12.5 -88.5t-36.5 -75.5t-59 -71.5t-80 -76.5l-128 -117h326v-89h-479v70z" />
    <glyph glyph-name="uniFF13" unicode="&#xff13;" 
d="M434 -53q-60 0 -118 13.5t-98 36.5l28 86q18 -10 40.5 -18.5t46 -14.5t45.5 -9t40 -3q74 0 121 33t47 101q0 65 -49 93t-127 28h-70v85h68q33 0 61.5 6.5t49 21t32.5 36t12 51.5q0 52 -34.5 80t-106.5 28q-38 0 -75.5 -9t-76.5 -29l-29 79q45 26 98.5 37.5t98.5 11.5
q112 0 174.5 -47.5t62.5 -131.5q0 -74 -38.5 -114.5t-97.5 -55.5v-1q31 -4 60.5 -15.5t52 -32.5t36.5 -53.5t14 -77.5q0 -47 -17.5 -86.5t-51 -68t-83.5 -44.5t-116 -16z" />
    <glyph glyph-name="uniFF14" unicode="&#xff14;" 
d="M526 188v313l-232 -313h232zM525 104h-348v69l375 507h79v-492h112v-84h-112v-144h-106v144z" />
    <glyph glyph-name="uniFF15" unicode="&#xff15;" 
d="M434 -53q-65 0 -121.5 11.5t-94.5 34.5l21 86q36 -21 82 -31t84 -10q85 0 134 39.5t49 105.5q0 77 -43.5 109t-129.5 32q-38 0 -83.5 -11.5t-79.5 -28.5l26 395h381v-89h-294l-13 -200q11 5 25.5 9t30 6.5t30 3.5t26.5 1q53 0 97 -13.5t75.5 -41t48.5 -69.5t17 -100
q0 -45 -17 -88t-50.5 -76.5t-84 -54t-116.5 -20.5z" />
    <glyph glyph-name="uniFF16" unicode="&#xff16;" 
d="M463 32q30 0 55 10.5t43 30.5t28 48.5t10 64.5q0 67 -30.5 105.5t-105.5 38.5q-39 0 -78 -20.5t-63 -51.5v-14q0 -43 8 -81.5t25 -67.5t43.5 -46t64.5 -17zM463 -53q-74 0 -123 29.5t-78.5 76.5t-41.5 105t-12 114v47q0 97 24 167.5t64 116t92.5 67t108.5 21.5t104.5 -12
t80.5 -31l-25 -84q-23 12 -62 24t-87 12q-38 0 -71 -13t-57.5 -43t-40 -78t-18.5 -118q30 29 71.5 47.5t97.5 18.5q48 0 89 -14t70 -42t45.5 -68.5t16.5 -92.5q0 -44 -13 -88.5t-42.5 -80.5t-77 -58.5t-115.5 -22.5z" />
    <glyph glyph-name="uniFF17" unicode="&#xff17;" 
d="M589 590h-384v89h509v-68l-286 -651h-124z" />
    <glyph glyph-name="uniFF18" unicode="&#xff18;" 
d="M478 376q60 27 81.5 59.5t21.5 70.5q0 20 -6.5 38.5t-21 32.5t-37 22.5t-55.5 8.5q-58 0 -89 -28t-31 -72q0 -19 6.5 -38t22.5 -36t42.5 -32t65.5 -26zM457 30q30 0 56 8.5t45.5 23.5t31 36t11.5 46q0 29 -8.5 51t-28 39.5t-50.5 31.5t-75 27q-72 -24 -99 -61.5
t-27 -80.5q0 -54 38 -87.5t106 -33.5zM457 -53q-62 0 -109 15t-78.5 41t-47.5 62t-16 77q0 66 39 113.5t115 72.5q-56 23 -93.5 66t-37.5 113q0 39 16 73t45.5 58.5t72 38.5t95.5 14q58 0 101 -14.5t71.5 -39t42 -56.5t13.5 -67q0 -51 -29.5 -95.5t-103.5 -78.5
q38 -13 68 -29.5t50.5 -38.5t31.5 -51.5t11 -68.5q0 -45 -19 -82.5t-52.5 -65t-81 -42.5t-104.5 -15z" />
    <glyph glyph-name="uniFF19" unicode="&#xff19;" 
d="M452 605q-25 0 -49 -8t-42.5 -25.5t-30 -46t-11.5 -69.5q0 -30 7 -58t23 -49t42 -33.5t63 -12.5q20 0 41 5.5t40.5 15.5t36 24t28.5 30v25q0 38 -9 74t-27 64.5t-46 46t-66 17.5zM453 691q70 0 119 -27t80 -71.5t45 -102.5t14 -120v-49q0 -101 -21.5 -172t-60.5 -116
t-93 -65.5t-119 -20.5q-28 0 -55 4t-50.5 10.5t-43 14.5t-32.5 17l23 85q10 -6 27 -13t37 -13t42.5 -10t44.5 -4q93 0 140.5 57.5t49.5 189.5q-11 -11 -27.5 -22.5t-38 -21t-48 -16t-57.5 -6.5q-49 0 -89.5 16t-69.5 46t-45 73t-16 96q0 50 16 94t47 76.5t76.5 51.5
t104.5 19z" />
    <glyph glyph-name="uniFF1A" unicode="&#xff1a;" 
d="M402 146h116v-113h-116v113zM402 488h116v-113h-116v113z" />
    <glyph glyph-name="uniFF1B" unicode="&#xff1b;" 
d="M408 146h119l-47 -238h-88zM409 488h116v-113h-116v113z" />
    <glyph glyph-name="uniFF1C" unicode="&#xff1c;" 
d="M233 254v83l398 242v-99l-290 -184l290 -183v-100z" />
    <glyph glyph-name="uniFF1D" unicode="&#xff1d;" 
d="M240 239h440v-86h-440v86zM240 460h440v-86h-440v86z" />
    <glyph glyph-name="uniFF1E" unicode="&#xff1e;" 
d="M233 13v100l290 183l-290 184v99l398 -242v-83z" />
    <glyph glyph-name="uniFF1F" unicode="&#xff1f;" 
d="M356 63h117v-115h-117v115zM364 221q0 28 7 48.5t21 38t34 35t47 38.5q34 28 48.5 62.5t14.5 79.5q0 55 -33 77t-93 22q-47 0 -77.5 -7.5t-63.5 -18.5v82q36 16 76 24t93 8q43 0 82 -10t67.5 -32t45.5 -56t17 -83q0 -34 -6 -61t-19 -51t-33.5 -46t-49.5 -46
q-20 -15 -34.5 -27.5t-25 -25t-15.5 -26.5t-5 -33v-66h-98v74z" />
    <glyph glyph-name="uniFF20" unicode="&#xff20;" 
d="M420 85q34 0 57.5 14.5t41.5 31.5l43 238q-12 14 -35.5 23.5t-55.5 9.5q-35 0 -58.5 -16t-38 -45.5t-21 -69.5t-6.5 -88t19 -73t54 -25zM458 -189q-100 0 -178.5 26t-133 76.5t-83 123.5t-28.5 167q0 93 30.5 180.5t89.5 155t146.5 108.5t201.5 41q87 0 157.5 -27.5
t120.5 -76t77 -116t27 -147.5q0 -74 -16.5 -132.5t-48 -98.5t-76 -61t-100.5 -21q-53 0 -81.5 17t-36.5 48h-6q-21 -26 -53.5 -45t-74.5 -19q-70 0 -109 45.5t-39 126.5q0 67 15.5 121.5t44 93.5t70 60t92.5 21q36 0 65.5 -11.5t46.5 -28.5h5l6 31h95l-63 -333q-5 -24 3 -40
t37 -16q66 0 103 60.5t37 175.5q0 67 -18.5 122t-55.5 95t-94 62t-133 22q-93 0 -164 -32t-119.5 -87.5t-73 -130t-24.5 -160.5q0 -154 85 -240t255 -86q37 0 72 4.5t66 10.5t56.5 13t44.5 13v-62q-46 -20 -107 -34.5t-133 -14.5z" />
    <glyph glyph-name="uniFF21" unicode="&#xff21;" 
d="M344 245h217l-108 305h-3zM406 688h110l262 -728h-115l-70 197h-279l-69 -197h-103z" />
    <glyph glyph-name="uniFF22" unicode="&#xff22;" 
d="M425 376q31 0 58 5.5t46.5 18.5t30.5 35t11 54q0 64 -35.5 88t-103.5 24h-116v-225h109zM451 47q147 0 147 126q0 66 -39 94.5t-114 28.5h-129v-249h135zM206 688h238q127 0 183 -48.5t56 -134.5q0 -57 -27 -97.5t-93 -60.5v-5q69 -13 110 -54.5t41 -120.5
q0 -45 -15.5 -83t-47 -65.5t-78 -43t-109.5 -15.5h-258v728z" />
    <glyph glyph-name="uniFF23" unicode="&#xff23;" 
d="M519 -52q-74 0 -134 22.5t-102 68t-64.5 114t-22.5 161.5v25q0 99 26.5 167.5t72.5 112t107.5 63t130.5 19.5q60 0 104 -11t78 -28v-90q-45 17 -86.5 27.5t-94.5 10.5q-48 0 -88.5 -14.5t-70 -45.5t-45.5 -79.5t-16 -116.5v-39q0 -65 12.5 -116.5t39 -87t69 -54
t102.5 -18.5q65 0 108.5 14t77.5 30v-89q-38 -22 -88.5 -34t-115.5 -12z" />
    <glyph glyph-name="uniFF24" unicode="&#xff24;" 
d="M405 51q115 0 169 60.5t54 197.5v36q0 72 -15.5 120t-45.5 77.5t-74 42t-101 12.5h-109v-546h122zM173 688h228q166 0 256 -84t90 -259v-23q0 -172 -84.5 -267t-259.5 -95h-230v728z" />
    <glyph glyph-name="uniFF25" unicode="&#xff25;" 
d="M236 688h443v-91h-333v-217h258v-91h-258v-238h337v-91h-447v728z" />
    <glyph glyph-name="uniFF26" unicode="&#xff26;" 
d="M243 688h434v-91h-324v-232h251v-90h-251v-315h-110v728z" />
    <glyph glyph-name="uniFF27" unicode="&#xff27;" 
d="M515 -52q-78 0 -141.5 20.5t-108 64.5t-69 112t-24.5 163v22q0 105 29 176t77.5 114.5t112 62t132.5 18.5t116 -13.5t79 -30.5v-91l-36 15t-42.5 14.5t-53 10.5t-65.5 4q-66 0 -110.5 -22t-71.5 -59t-38.5 -85t-11.5 -100v-34q0 -59 10 -109t35.5 -86t69.5 -56.5
t112 -20.5q35 0 68 5t55 13v179h-145v87h254v-331q-42 -17 -101.5 -30t-131.5 -13z" />
    <glyph glyph-name="uniFF28" unicode="&#xff28;" 
d="M183 688h110v-307h334v307h110v-728h-110v330h-334v-330h-110v728z" />
    <glyph glyph-name="uniFF29" unicode="&#xff29;" 
d="M404 688h111v-728h-111v728z" />
    <glyph glyph-name="uniFF2A" unicode="&#xff2a;" 
d="M428 -47q-48 0 -80.5 7t-61.5 21v86q23 -8 54 -15.5t71 -7.5q58 0 84 29.5t26 85.5v529h112v-536q0 -42 -12 -78.5t-37 -63t-63.5 -42t-92.5 -15.5z" />
    <glyph glyph-name="uniFF2B" unicode="&#xff2b;" 
d="M190 688h110v-728h-110v728zM318 331l281 357h115l-272 -346l287 -382h-128z" />
    <glyph glyph-name="uniFF2C" unicode="&#xff2c;" 
d="M247 688h110v-637h316v-91h-426v728z" />
    <glyph glyph-name="uniFF2D" unicode="&#xff2d;" 
d="M110 688h159l190 -581h3l191 581h156v-728h-109v588h-3l-195 -588h-97l-193 588h-4v-588h-98v728z" />
    <glyph glyph-name="uniFF2E" unicode="&#xff2e;" 
d="M185 688h127l321 -545h3v545h99v-728h-111l-336 577h-4v-577h-99v728z" />
    <glyph glyph-name="uniFF2F" unicode="&#xff2f;" 
d="M461 35q52 0 91 19.5t64.5 55t38 83.5t12.5 105v35q0 63 -11 114.5t-36 88t-65 57t-98 20.5q-52 0 -90.5 -19.5t-63.5 -54.5t-37.5 -83t-12.5 -104v-37q0 -63 11 -114.5t36 -88t64.5 -57t96.5 -20.5zM458 -52q-74 0 -134 23.5t-102 69.5t-64.5 114.5t-22.5 158.5v21
q0 86 23 154t65.5 115t103 72t135.5 25q74 0 134 -23.5t102 -70t64.5 -115t22.5 -158.5v-21q0 -86 -23 -154t-65.5 -115t-103 -71.5t-135.5 -24.5z" />
    <glyph glyph-name="uniFF30" unicode="&#xff30;" 
d="M444 327q79 0 112 33t33 101q0 74 -32.5 106t-110.5 32h-121v-272h119zM215 688h241q126 0 187.5 -56.5t61.5 -162.5q0 -56 -17.5 -99t-49 -72t-75.5 -43.5t-98 -14.5h-140v-280h-110v728z" />
    <glyph glyph-name="uniFF31" unicode="&#xff31;" 
d="M773 314q0 -138 -55.5 -220.5t-157.5 -111.5l237 -57l-25 -94l-413 122q-113 34 -174.5 120t-61.5 241v21q0 86 23 154t65.5 115t103 72t135.5 25q74 0 134 -23.5t102 -70t64.5 -114.5t22.5 -158v-21zM449 33q52 0 91 20t64.5 55.5t38 84t12.5 105.5v35q0 63 -11 114.5
t-36 88t-65 57t-98 20.5q-52 0 -90.5 -19.5t-63.5 -54.5t-37.5 -83t-12.5 -104v-37q0 -63 11 -115t36 -89t64.5 -57.5t96.5 -20.5z" />
    <glyph glyph-name="uniFF32" unicode="&#xff32;" 
d="M414 344q77 0 110.5 32t33.5 99q0 66 -34.5 95t-110.5 29h-106v-255h107zM197 688h228q122 0 185 -52t63 -158q0 -77 -37 -121.5t-99 -68.5v-5l186 -323h-123l-170 303h-123v-303h-110v728z" />
    <glyph glyph-name="uniFF33" unicode="&#xff33;" 
d="M440 -53q-70 0 -122.5 13.5t-90.5 34.5v89q43 -20 95 -33t111 -13q78 0 112 32t34 86q0 24 -5.5 42t-18.5 31.5t-34.5 24t-52.5 20.5l-72 24q-38 12 -67.5 28t-50.5 40t-32 57t-11 77t14.5 81t44 63.5t73.5 41.5t103 15q69 0 111 -12.5t73 -27.5v-90q-34 14 -79 26.5
t-105 12.5q-61 0 -94 -26t-33 -74q0 -47 21 -72t77 -42l72 -23q41 -13 74 -29.5t56.5 -40.5t36 -57.5t12.5 -80.5q0 -100 -61 -159t-191 -59z" />
    <glyph glyph-name="uniFF34" unicode="&#xff34;" 
d="M405 597h-213v91h535v-91h-212v-637h-110v637z" />
    <glyph glyph-name="uniFF35" unicode="&#xff35;" 
d="M464 -53q-134 0 -206 65.5t-72 201.5v474h112v-468q0 -54 11 -90.5t32.5 -58t53.5 -31t74 -9.5q41 0 71.5 9t51 31t30.5 58.5t10 91.5v467h101v-471q0 -141 -66.5 -205.5t-202.5 -64.5z" />
    <glyph glyph-name="uniFF36" unicode="&#xff36;" 
d="M147 688h114l203 -585h3l202 585h104l-260 -728h-105z" />
    <glyph glyph-name="uniFF37" unicode="&#xff37;" 
d="M16 688h112l131 -562h3l159 562h91l155 -562h3l133 562h100l-181 -728h-107l-151 552h-3l-155 -552h-107z" />
    <glyph glyph-name="uniFF38" unicode="&#xff38;" 
d="M395 331l-221 357h121l174 -278h6l160 278h112l-214 -357l227 -371h-122l-181 293h-3l-181 -293h-113z" />
    <glyph glyph-name="uniFF39" unicode="&#xff39;" 
d="M405 242l-237 446h117l180 -343h3l176 343h107l-236 -446v-282h-110v282z" />
    <glyph glyph-name="uniFF3A" unicode="&#xff3a;" 
d="M204 42l381 552v3h-354v91h485v-81l-382 -553v-3h370v-91h-500v82z" />
    <glyph glyph-name="uniFF3B" unicode="&#xff3b;" 
d="M614 751h246v-81h-141v-739h141v-82h-246v902z" />
    <glyph glyph-name="uniFFE6" unicode="&#xffe6;" horiz-adv-x="934" 
d="M869 295h-92l-85 -331h-99l-87 331h-99l-44 -165.5l-44 -165.5h-100l-84 331h-99v89h77l-32 136.5t-32 135.5h98l63 -272h125l66 272h108l67 -272h126l31.5 136l31.5 136h99l-66 -272h71v-89zM680 295h-80q5 -22 10 -41l10 -37.5l10 -38l11 -42.5zM312 295h-81l39 -158z
M483 384l-7 27l-6 23l-6.5 23.5t-7.5 29.5l-13.5 -50.5l-13.5 -52.5h54z" />
    <glyph glyph-name="uniFF3D" unicode="&#xff3d;" 
d="M60 -69h142v739h-142v81h247v-902h-247v82z" />
    <glyph glyph-name="uniFF3E" unicode="&#xff3e;" 
d="M417 708h88l152 -260h-90l-106 166l-107 -166h-91z" />
    <glyph glyph-name="uniFF3F" unicode="&#xff3f;" 
d="M282 -88h355v-69h-355v69z" />
    <glyph glyph-name="uniFF40" unicode="&#xff40;" 
d="M358 744h115l88 -153h-91z" />
    <glyph glyph-name="uniFF41" unicode="&#xff41;" 
d="M450 27q34 0 63.5 10t46.5 25v144l-113 -11q-44 -5 -65 -24.5t-21 -62.5q0 -42 24 -61.5t65 -19.5zM422 -50q-37 0 -67.5 9.5t-53 28.5t-35 48t-12.5 68q0 73 45 110.5t124 48.5l137 16v47q0 30 -7 49t-22.5 30t-40 15t-60.5 4q-40 0 -73 -5t-58 -10v73q38 15 79.5 23
t92.5 8q93 0 143.5 -39t50.5 -122v-392h-86l-10 45h-6q-20 -24 -53.5 -39.5t-87.5 -15.5z" />
    <glyph glyph-name="uniFF42" unicode="&#xff42;" 
d="M431 31q32 0 61 8.5t51.5 30t35.5 57.5t13 91v22q0 52 -9 87.5t-27.5 57.5t-46.5 31t-67 9q-36 0 -68 -10.5t-50 -18.5v-347q17 -7 42.5 -12.5t64.5 -5.5zM424 -53q-25 0 -53.5 2t-56 6t-52.5 9.5t-43 11.5v760h105v-269h5q31 20 70 33t94 13q37 0 74.5 -13t67 -43.5
t48 -81t18.5 -126.5v-15q0 -139 -70 -213t-207 -74z" />
    <glyph glyph-name="uniFF43" unicode="&#xff43;" 
d="M507 -50q-117 0 -186 66.5t-69 201.5v18q0 71 20 123.5t55.5 86.5t83 50.5t102.5 16.5q54 0 88 -9.5t61 -25.5v-86l-34 13.5t-33 10.5t-37 6.5t-46 2.5q-70 0 -110.5 -44.5t-40.5 -130.5v-28q0 -98 40.5 -142t121.5 -44q52 0 88 13t57 23v-79q-27 -18 -65.5 -30.5
t-95.5 -12.5z" />
    <glyph glyph-name="uniFF44" unicode="&#xff44;" 
d="M477 33q42 0 71.5 13.5t46.5 26.5v323q-16 14 -48.5 22t-70.5 8q-35 0 -62.5 -9.5t-47 -31.5t-29.5 -57.5t-10 -87.5v-22q0 -53 11 -88.5t30.5 -57t47.5 -30.5t61 -9zM441 -50q-40 0 -79.5 13.5t-71 44.5t-51.5 81.5t-20 124.5v14q0 75 18 128.5t50.5 88.5t76.5 51.5
t96 16.5q50 0 82.5 -11t52.5 -22v256h105v-776h-89l-10 43h-5q-24 -24 -62.5 -38.5t-92.5 -14.5z" />
    <glyph glyph-name="uniFF45" unicode="&#xff45;" 
d="M465 430q-22 0 -44 -6.5t-40.5 -23.5t-31 -46.5t-15.5 -74.5h250q0 82 -30 116.5t-89 34.5zM489 -50q-131 0 -197 73t-66 201v14q0 70 19.5 122t53 86t77.5 50.5t93 16.5q115 0 169.5 -65.5t54.5 -194.5v-51h-359q5 -93 49.5 -129.5t124.5 -36.5q27 0 49.5 3t42.5 8.5
t38.5 12.5t37.5 16v-74q-26 -18 -72 -35t-115 -17z" />
    <glyph glyph-name="uniFF46" unicode="&#xff46;" 
d="M365 418h-79v84h79v74q0 44 13 76t36 52.5t54.5 30.5t69.5 10q35 0 58.5 -5.5t37.5 -12.5v-72q-11 2 -29 5t-44 3q-44 0 -67.5 -23t-23.5 -74v-64h121v-84h-121v-458h-105v458z" />
    <glyph glyph-name="uniFF47" unicode="&#xff47;" 
d="M450 235q51 0 78.5 22.5t27.5 69.5v15q0 51 -28.5 73.5t-77.5 22.5q-50 0 -78 -24t-28 -70v-15q0 -48 29 -71t77 -23zM446 -120q88 0 123.5 14.5t35.5 53.5q0 34 -20.5 48.5t-68.5 14.5h-146q-27 -9 -45 -27.5t-18 -49.5q0 -32 32 -43t107 -11zM448 -198q-126 0 -187 28
t-61 89q0 43 29.5 70.5t71.5 41.5v5q-23 8 -39 20.5t-16 39.5q0 56 62 100q-30 20 -49 52.5t-19 78.5v10q0 42 15.5 75t43.5 55.5t67 34t85 11.5q43 0 82 -9h184v-75h-87q29 -34 29 -88v-10q0 -43 -16 -74.5t-44 -52.5t-66.5 -31t-82.5 -10q-23 0 -45.5 2.5t-42.5 8.5
q-9 -8 -15 -18t-6 -21q0 -21 12 -25.5t38 -4.5h149q38 0 70 -7.5t55 -24t36 -43.5t13 -66q0 -75 -62.5 -118.5t-203.5 -43.5z" />
    <glyph glyph-name="uniFF48" unicode="&#xff48;" 
d="M238 736h105v-279h5q33 23 80 39.5t97 16.5q80 0 118.5 -35t38.5 -114v-404h-105v379q0 22 -4 38t-15 26.5t-30.5 15t-49.5 4.5q-35 0 -71 -10t-64 -24v-429h-105v776z" />
    <glyph glyph-name="uniFF49" unicode="&#xff49;" 
d="M406 705h107v-102h-107v102zM407 502h105v-542h-105v542z" />
    <glyph glyph-name="uniFF4A" unicode="&#xff4a;" 
d="M473 705h107v-102h-107v102zM423 -199q-29 0 -48.5 4.5t-35.5 13.5v72q14 -3 28 -5t28 -2q38 0 58.5 18.5t20.5 60.5v539h105v-546q0 -34 -9 -62.5t-27.5 -49t-48 -32t-71.5 -11.5z" />
    <glyph glyph-name="uniFF4B" unicode="&#xff4b;" 
d="M360 240l193 262h112l-192 -255l207 -287h-118zM239 736h105v-776h-105v776z" />
    <glyph glyph-name="uniFF4C" unicode="&#xff4c;" 
d="M407 736h105v-776h-105v776z" />
    <glyph glyph-name="uniFF4D" unicode="&#xff4d;" 
d="M91 502h101v-47h5q34 23 76 40.5t90 17.5q92 0 128 -61h5q43 28 89 44.5t93 16.5q71 0 110.5 -35t39.5 -114v-404h-105v379q0 45 -19.5 64.5t-70.5 19.5q-29 0 -60 -9t-64 -26q1 -7 1.5 -13.5t0.5 -14.5v-400h-104v379q0 45 -19 64.5t-70 19.5q-32 0 -63 -10t-59 -24
v-429h-105v542z" />
    <glyph glyph-name="uniFF4E" unicode="&#xff4e;" 
d="M238 502h101v-47h5q34 24 82.5 41t98.5 17q80 0 118.5 -35t38.5 -114v-404h-105v379q0 22 -4 38t-15 26.5t-30.5 15t-49.5 4.5q-35 0 -71 -10t-64 -24v-429h-105v542z" />
    <glyph glyph-name="uniFF4F" unicode="&#xff4f;" 
d="M462 32q66 0 103 46t37 136v29q0 54 -11 89.5t-30.5 57t-45.5 30.5t-56 9q-69 0 -106 -46t-37 -136v-29q0 -54 11.5 -90t31 -57t46.5 -30t57 -9zM460 -50q-121 0 -186.5 70.5t-65.5 198.5v18q0 65 18.5 116t51.5 86.5t79.5 54.5t103.5 19q119 0 184.5 -71.5t65.5 -201.5
v-15q0 -65 -18.5 -116t-51.5 -86.5t-79.5 -54t-101.5 -18.5z" />
    <glyph glyph-name="uniFF50" unicode="&#xff50;" 
d="M444 38q35 0 62.5 9t46.5 30t29 55.5t10 86.5v22q0 53 -9.5 88.5t-27.5 56.5t-45 30t-61 9q-43 0 -75.5 -11.5t-49.5 -24.5v-317q17 -13 49 -23.5t71 -10.5zM219 502h101v-44h5q25 23 65 39t90 16q44 0 84 -13.5t70.5 -44t48.5 -81.5t18 -126v-15q0 -75 -17.5 -128
t-49.5 -86t-77 -48t-101 -15q-45 0 -78 10t-54 22v-187h-105v701z" />
    <glyph glyph-name="uniFF51" unicode="&#xff51;" 
d="M476 40q43 0 72.5 12.5t46.5 25.5v336q-19 5 -47.5 10.5t-63.5 5.5q-36 0 -65 -9t-49.5 -31t-31.5 -57.5t-11 -87.5v-22q0 -53 10.5 -88.5t30 -56.5t47 -29.5t61.5 -8.5zM595 -2h-5q-21 -16 -57.5 -29.5t-90.5 -13.5q-40 0 -79.5 13t-71.5 44t-52 81.5t-20 124.5v15
q0 82 21.5 136t58 86t86 45t106.5 13q72 0 123 -11.5t86 -27.5v-674h-105v198z" />
    <glyph glyph-name="uniFF52" unicode="&#xff52;" 
d="M317 502h101v-61h5q23 28 62 48t83 20q10 0 20 -1.5t14 -3.5v-93q-10 2 -22 2.5t-20 0.5q-38 0 -74 -10.5t-64 -28.5v-415h-105v542z" />
    <glyph glyph-name="uniFF53" unicode="&#xff53;" 
d="M448 -49q-53 0 -98.5 9t-78.5 29v79q17 -6 33.5 -12.5t35.5 -11t41.5 -7.5t51.5 -3q59 0 85.5 19t26.5 53q0 32 -18.5 49t-67.5 28l-51 14q-30 7 -55 18.5t-43 29.5t-28 44t-10 62q0 73 47.5 117.5t146.5 44.5q56 0 92 -10t60 -22v-81q-22 9 -60.5 18t-83.5 9
q-102 0 -102 -67q0 -32 17.5 -47t58.5 -26l51 -12q40 -10 68 -22.5t46 -31.5t26.5 -45t8.5 -62q0 -81 -53.5 -122t-146.5 -41z" />
    <glyph glyph-name="uniFF54" unicode="&#xff54;" 
d="M525 -46q-68 0 -109 31t-41 105v328h-77v84h77v128h105v-128h131v-84h-131v-313q0 -37 15.5 -52t59.5 -15q17 0 34 2t33 5v-70q-17 -8 -38 -14.5t-59 -6.5z" />
    <glyph glyph-name="uniFF55" unicode="&#xff55;" 
d="M406 -50q-80 0 -122.5 39.5t-42.5 118.5v394h105v-375q0 -48 20 -68.5t75 -20.5q40 0 72.5 11t60.5 24v429h104v-542h-89l-11 46h-5q-34 -24 -75 -40t-92 -16z" />
    <glyph glyph-name="uniFF56" unicode="&#xff56;" 
d="M208 502h113l141 -412h4l143 412h102l-198 -542h-106z" />
    <glyph glyph-name="uniFF57" unicode="&#xff57;" 
d="M85 502h111l103 -407h5l118 407h89l119 -407h4l102 407h98l-152 -542h-103l-116 386h-4l-116 -386h-106z" />
    <glyph glyph-name="uniFF58" unicode="&#xff58;" 
d="M399 236l-173 266h120l123 -195l111 195h107l-164 -265l178 -277h-120l-126 204l-128 -204h-109z" />
    <glyph glyph-name="uniFF59" unicode="&#xff59;" 
d="M312 -198q-20 0 -41 4.5t-32 10.5v73q10 -3 24 -4.5t28 -1.5q19 0 35.5 1.5t30 6t23.5 13.5t16 25l23 59l-207 513h112l147 -380h3l136 380h102l-218 -587q-14 -38 -30.5 -60.5t-38.5 -34t-49.5 -15t-63.5 -3.5z" />
    <glyph glyph-name="uniFF5A" unicode="&#xff5a;" 
d="M255 36l281 379v3h-267v84h395v-74l-283 -382v-3h282v-83h-408v76z" />
    <glyph glyph-name="uniFF5B" unicode="&#xff5b;" 
d="M860 -154q-72 2 -117 16t-70.5 37.5t-34.5 54.5t-9 66v144q0 25 -6 42t-19.5 27.5t-35.5 16.5t-55 8v83q33 2 55 8t35.5 17t19.5 28t6 41v144q0 36 9 67t34.5 54t70.5 37t117 16v-81q-33 -2 -57 -7.5t-39 -16.5t-22.5 -29t-7.5 -46v-142q0 -22 -4.5 -42.5t-17 -37.5
t-34.5 -30t-57 -20v-3q35 -6 57 -19t34.5 -30t17 -37t4.5 -42v-143q0 -29 7.5 -47t22.5 -28.5t39 -15.5t57 -7v-83z" />
    <glyph glyph-name="uniFF5C" unicode="&#xff5c;" 
d="M415 751h89v-902h-89v902z" />
    <glyph glyph-name="uniFF5D" unicode="&#xff5d;" 
d="M60 -71q33 2 56.5 7t39.5 16t23.5 29t7.5 46v143q0 22 4.5 42t16.5 37t34 30t57 19v3q-35 7 -57 20t-34 30t-16.5 37.5t-4.5 42.5v142q0 28 -7.5 46.5t-23.5 29.5t-39.5 16t-56.5 7v81q72 -2 117 -15.5t70.5 -37t35 -54t9.5 -66.5v-144q0 -25 5.5 -42t19 -27.5
t35.5 -16.5t55 -8v-83q-65 -5 -90 -25t-25 -69v-144q0 -35 -9.5 -66t-35 -54.5t-70.5 -38t-117 -16.5v83z" />
    <glyph glyph-name="uni203E" unicode="&#x203e;" 
d="M907 712h-900v50h900v-50z" />
    <glyph glyph-name="uni203E" unicode="&#xffe3;" 
d="M907 712h-900v50h900v-50z" />
    <glyph glyph-name="uni3131" unicode="&#x3131;" 
d="M661 58v401h-486v86h579v-487h-93z" />
    <glyph glyph-name="uni3132" unicode="&#x3132;" 
d="M460 58h-93v401h-225v86h318v-487zM490 545h303v-487h-93v401h-210v86z" />
    <glyph glyph-name="uni3133" unicode="&#x3133;" 
d="M803 48q-51 34 -91 83.5t-61 98.5q-21 -49 -61 -98.5t-91 -83.5l-55 63q34 23 63 54t50.5 68t34 79t12.5 88v141h95v-141q0 -46 12.5 -88t34 -79t51 -68t62.5 -54zM326 58v397h-197v86h289v-483h-92z" />
    <glyph glyph-name="uni3134" unicode="&#x3134;" 
d="M278 545v-401h495v-86h-588v487h93z" />
    <glyph glyph-name="uni3135" unicode="&#x3135;" 
d="M252 545v-411h187v-14q62 50 95 121t33 167v55h-121v85h335v-85h-120v-55q0 -103 36.5 -177t105.5 -125l-58 -65q-46 34 -80.5 79t-51.5 87q-18 -43 -53.5 -87.5t-83.5 -79.5l-37 42v-34h-279v497h92z" />
    <glyph glyph-name="uni3136" unicode="&#x3136;" 
d="M763 183q0 -33 -10.5 -61t-30.5 -49t-48 -32.5t-63 -11.5q-34 0 -62.5 11.5t-49 32.5t-32 49t-11.5 61t11.5 61t32 49t49 32.5t62.5 11.5q35 0 63 -11.5t48 -32.5t30.5 -49t10.5 -61zM430 362v80h367v-80h-367zM513 477v80h205v-80h-205zM677 183q0 32 -18 55t-48 23
q-31 0 -50 -23t-19 -55t19 -54.5t50 -22.5q30 0 48 22.5t18 54.5zM261 545v-411h187v-86h-280v497h93z" />
    <glyph glyph-name="uni3137" unicode="&#x3137;" 
d="M182 56v491h576v-86h-483v-319h486v-86h-579z" />
    <glyph glyph-name="uni3138" unicode="&#x3138;" 
d="M147 56v491h301v-86h-208v-319h210v-86h-303zM478 56v491h301v-86h-208v-319h211v-86h-304z" />
    <glyph glyph-name="uni3139" unicode="&#x3139;" 
d="M177 45v302h490v126h-490v84h582v-295h-489v-132h503v-85h-596z" />
    <glyph glyph-name="uni313A" unicode="&#x313a;" 
d="M160 57v288h209v121h-209v85h300v-289h-209v-120h220v-85h-311zM708 57v408h-222v86h315v-494h-93z" />
    <glyph glyph-name="uni313B" unicode="&#x313b;" 
d="M492 56v492h316v-492h-316zM715 462h-130v-320h130v320zM153 56v288h204v119h-204v85h296v-287h-204v-120h212v-85h-304z" />
    <glyph glyph-name="uni313C" unicode="&#x313c;" 
d="M147 56v288h206v119h-206v85h298v-287h-206v-120h213v-85h-305zM490 56v492h93v-169h133v169h93v-492h-319zM716 294h-133v-152h133v152z" />
    <glyph glyph-name="uni313D" unicode="&#x313d;" 
d="M159 56v288h205v119h-205v85h297v-287h-206v-120h213v-21q60 47 99.5 124t39.5 180v125h95v-125q0 -54 11.5 -101t32 -86.5t48 -71.5t60.5 -54l-60 -68q-53 36 -87 80t-53 90q-19 -46 -52.5 -90t-86.5 -80l-47 53v-40h-304z" />
    <glyph glyph-name="uni313E" unicode="&#x313e;" 
d="M490 56v491h306v-86h-213v-117h204v-84h-204v-118h218v-86h-311zM159 56v288h197v119h-197v85h289v-287h-198v-120h206v-85h-297z" />
    <glyph glyph-name="uni313F" unicode="&#x313f;" 
d="M802 472h-337v80h337v-80zM806 56h-345v82h66l-14 305l83 7l11 -312h54l14 312l82 -6l-17 -306h66v-82zM147 56v287h189v122h-189v83h278v-286h-188v-124h201v-82h-291z" />
    <glyph glyph-name="uni3140" unicode="&#x3140;" 
d="M676 183q0 32 -18 53.5t-49 21.5t-50 -21.5t-19 -53.5t19 -53t50 -21t49 21t18 53zM512 480v80h204v-80h-204zM762 183q0 -32 -10.5 -59.5t-30.5 -47.5t-48.5 -31.5t-63.5 -11.5q-34 0 -62.5 11.5t-49 31.5t-32 47.5t-11.5 59.5t11.5 59.5t32 47.5t49 31.5t62.5 11.5
q35 0 63.5 -11.5t48.5 -31.5t30.5 -47.5t10.5 -59.5zM431 359v-96h-195v-129h208v-81h-299v289h195v124h-195v81h286v-108h364v-80h-364z" />
    <glyph glyph-name="uni3141" unicode="&#x3141;" 
d="M179 56v493h580v-493h-580zM666 463h-394v-321h394v321z" />
    <glyph glyph-name="uni3142" unicode="&#x3142;" 
d="M178 55v502h93v-179h394v179h93v-502h-580zM665 293h-394v-152h394v152z" />
    <glyph glyph-name="uni3143" unicode="&#x3143;" 
d="M489 56v500h91v-182h115v182h92v-500h-298zM151 56v500h92v-182h115v182h91v-500h-298zM358 289h-115v-147h115v147zM695 289h-115v-147h115v147z" />
    <glyph glyph-name="uni3144" unicode="&#x3144;" 
d="M366 288h-122v-146h122v146zM151 56v492h93v-175h122v175h92v-435q30 24 57.5 55.5t48 69t32.5 79.5t12 87v143h95v-143q0 -47 13 -91t35.5 -83t51.5 -71t62 -55l-59 -62q-54 38 -92 88.5t-59 99.5q-21 -49 -59.5 -99.5t-92.5 -88.5l-45 48v-34h-307z" />
    <glyph glyph-name="uni3145" unicode="&#x3145;" 
d="M762 42q-44 10 -88 31.5t-83 51t-70 66t-50 75.5q-19 -39 -50 -75.5t-70 -66.5t-83 -52.5t-89 -34.5l-40 78q56 16 107.5 46.5t90.5 71t62 88t23 97.5v148h96v-145q0 -52 22.5 -100t60.5 -87.5t89 -69t108 -44.5z" />
    <glyph glyph-name="uni3146" unicode="&#x3146;" 
d="M839 139q-26 -34 -56 -68q-21 13 -41.5 30.5t-39.5 38t-34.5 42.5t-26.5 45q-26 -54 -68 -102t-94 -88l-59 66q39 29 71 64t55 74.5t36 81.5t13 86v139h91v-133q0 -82 40 -153.5t113 -122.5zM466 187l-59 -67q-29 21 -56.5 48t-45.5 59q-22 -51 -59.5 -100t-83.5 -80
l-64 66q31 22 59.5 54.5t50.5 71t35 81.5t13 85v140h92v-135q0 -75 30.5 -130.5t87.5 -92.5z" />
    <glyph glyph-name="uni3147" unicode="&#x3147;" 
d="M752 306q0 -60 -23 -108t-62.5 -81.5t-92.5 -51.5t-114 -18q-58 0 -111 18t-93.5 51.5t-64.5 81.5t-24 108q0 61 24 108.5t64.5 80.5t93.5 50.5t111 17.5q57 0 110 -17.5t93.5 -50.5t64.5 -80.5t24 -108.5zM460 481q-41 0 -77 -11.5t-62.5 -33.5t-42 -55t-15.5 -75
t15 -75t41.5 -55.5t62.5 -34.5t78 -12t78.5 12t63 34.5t42 55.5t15.5 75t-15.5 75t-42 55t-63 33.5t-78.5 11.5z" />
    <glyph glyph-name="uni3148" unicode="&#x3148;" 
d="M522 475v-63q0 -53 24 -98.5t64 -82.5t90.5 -63.5t104.5 -41.5l-46 -75q-45 13 -87.5 34t-80 47.5t-67.5 58t-48 67.5q-20 -36 -50 -68t-67.5 -59.5t-80 -49t-87.5 -34.5l-49 74q54 15 105 42t90.5 64t64 82.5t24.5 98.5v67h-238v81h571v-81h-237z" />
    <glyph glyph-name="uni3149" unicode="&#x3149;" 
d="M393 119q-29 23 -53 52t-39 59q-20 -48 -57.5 -96t-88.5 -84l-56 64q33 22 61.5 54.5t50.5 71.5t34.5 82t12.5 87v66h-133v82h320v-82h-100v-67q0 -78 32 -134.5t82 -95.5zM774 61q-52 34 -91 78t-59 90q-11 -26 -27.5 -52t-36.5 -51t-43.5 -47t-48.5 -39l-60 63
q30 20 61 51t56 70t40.5 85t15.5 96v70h-102v82h320v-82h-131v-71q0 -45 12.5 -86t35 -76.5t52.5 -64.5t65 -50z" />
    <glyph glyph-name="uni314A" unicode="&#x314a;" 
d="M311 517v82h316v-82h-316zM519 384v-20q0 -49 23.5 -92t62.5 -77.5t89 -59.5t103 -38l-43 -80q-50 12 -93.5 32.5t-79.5 47t-64 56.5t-46 62q-19 -32 -48.5 -63t-66.5 -58t-80.5 -48.5t-91.5 -33.5l-41 80q52 15 101.5 40.5t88.5 60t62.5 77t23.5 91.5v23h-234v82h564
v-82h-230z" />
    <glyph glyph-name="uni314B" unicode="&#x314b;" 
d="M757 49h-96v206h-493v82h493v134h-482v85h578v-507z" />
    <glyph glyph-name="uni314C" unicode="&#x314c;" 
d="M769 54h-587v495h583v-86h-489v-114h479v-86h-479v-123h493v-86z" />
    <glyph glyph-name="uni314D" unicode="&#x314d;" 
d="M769 464h-599v82h599v-82zM784 51h-629v81h147l-26 287l89 11l25 -298h156l33 298l88 -11l-32 -287h149v-81z" />
    <glyph glyph-name="uni314E" unicode="&#x314e;" 
d="M691 184q0 -39 -17 -70.5t-47 -53t-70 -33.5t-86 -12q-47 0 -87 12t-70 33.5t-47 53t-17 70.5q0 40 17 71t47 53t70 33.5t87 11.5q46 0 86 -11.5t70 -33.5t47 -53t17 -71zM158 383v82h622v-82h-622zM598 184q0 42 -35 65.5t-92 23.5t-92.5 -23.5t-35.5 -65.5
q0 -41 35.5 -64.5t92.5 -23.5t92 23.5t35 64.5zM317 512v82h306v-82h-306z" />
    <glyph glyph-name="uni314F" unicode="&#x314f;" 
d="M496 378h206v-86h-206v-454h-92v912h92v-372z" />
    <glyph glyph-name="uni3150" unicode="&#x3150;" 
d="M531 -162v469h-128v-449h-92v881h92v-346h128v358h93v-913h-93z" />
    <glyph glyph-name="uni3151" unicode="&#x3151;" 
d="M456 147v-308h-92v914h92v-291h205v-86h-205v-143h205v-86h-205z" />
    <glyph glyph-name="uni3152" unicode="&#x3152;" 
d="M531 -162v320h-128v-300h-92v881h92v-269h128v281h93v-913h-93zM403 244h128v141h-128v-141z" />
    <glyph glyph-name="uni3153" unicode="&#x3153;" 
d="M497 750h93v-912h-93v450h-209v86h209v376z" />
    <glyph glyph-name="uni3154" unicode="&#x3154;" 
d="M399 -127v428h-177v86h177v349h92v-863h-92zM561 -158v906h92v-906h-92z" />
    <glyph glyph-name="uni3155" unicode="&#x3155;" 
d="M286 397v86h208v270h93v-914h-93v349h-208v85h208v124h-208z" />
    <glyph glyph-name="uni3156" unicode="&#x3156;" 
d="M401 736h92v-863h-92v315h-176v82h176v148h-176v82h176v236zM565 -158v906h92v-906h-92z" />
    <glyph glyph-name="uni3157" unicode="&#x3157;" 
d="M42 73v86h368v381h93v-381h375v-86h-836z" />
    <glyph glyph-name="uni3158" unicode="&#x3158;" 
d="M629 121q-41 -5 -83.5 -9.5l-83 -8.5t-78.5 -6.5l-69 -4.5q-62 -4 -126.5 -7t-124.5 -3l-9 86q50 0 115 2.5t129 5.5v291h92v-286q57 4 115.5 9.5t112.5 12.5zM745 293v-449h-93v904h93v-369h152v-86h-152z" />
    <glyph glyph-name="uni3159" unicode="&#x3159;" 
d="M725 -156v468h-73v-437h-92v861h92v-342h73v354h92v-904h-92zM528 207q3 -20 5.5 -40.5t4.5 -40.5q-75 -11 -141 -17.5t-118 -8.5l-110.5 -4.5t-110.5 -2.5l-8 84h41t51 0.5l55 1t54 1.5v298h93v-292q42 3 89 8t95 13z" />
    <glyph glyph-name="uni315A" unicode="&#x315a;" 
d="M686 748h93v-903h-93v903zM666 204l4 -42l4 -41q-81 -11 -154 -16.5t-135 -7.5l-66 -4q-50 -3 -106.5 -5t-101.5 -2l-9 86q22 0 51.5 0.5t61.5 1.5l65 2t63 3v288h93v-284q55 3 112.5 8t117.5 13z" />
    <glyph glyph-name="uni315B" unicode="&#x315b;" 
d="M52 50v83h227v411h92v-411h170v411h92v-411h245v-83h-826z" />
    <glyph glyph-name="uni315C" unicode="&#x315c;" 
d="M421 -137v386h-361v83h818v-83h-364v-386h-93z" />
    <glyph glyph-name="uni315D" unicode="&#x315d;" 
d="M733 -156v266h-218v83h218v555h92v-904h-92zM305 -88v370q-51 -2 -103 -3.5t-109 -2.5l-8 83q73 0 151.5 2.5t157 6.5t153 10.5t139.5 15.5l13 -82q-79 -9 -153 -14.5t-149 -10.5v-375h-92z" />
    <glyph glyph-name="uni315E" unicode="&#x315e;" 
d="M268 -93v379q-23 -2 -48.5 -3t-50.5 -2.5t-48 -2t-41 -0.5l-7 84q19 0 46.5 0.5t57.5 1.5t59 2.5t52 2.5q48 2 118 7.5t142 16.5l13 -81q-55 -8 -105.5 -13t-94.5 -8v-384h-93zM747 -156v904h93v-904h-93zM583 736h93v-864h-93v233h-156v83h156v548z" />
    <glyph glyph-name="uni315F" unicode="&#x315f;" 
d="M739 -158v906h93v-906h-93zM371 -93v377q-137 -6 -267 -9l-8 83q65 0 142.5 2.5t157 6.5t156.5 11t142 16l11 -83q-61 -7 -121 -12l-120 -10v-382h-93z" />
    <glyph glyph-name="uni3160" unicode="&#x3160;" 
d="M556 -137v393h-192v-393h-92v393h-230v83h836v-83h-230v-393h-92z" />
    <glyph glyph-name="uni3161" unicode="&#x3161;" 
d="M42 62v83h836v-83h-836z" />
    <glyph glyph-name="uni3162" unicode="&#x3162;" 
d="M673 172q-83 -12 -157 -18.5t-156 -10.5q-33 -2 -69.5 -3l-74 -2l-73.5 -2t-68 -1l-9 84q27 0 60.5 1t70 1.5t74 1.5t72.5 3q84 3 163.5 9.5t154.5 18.5zM706 732h92v-861h-92v861z" />
    <glyph glyph-name="uni3163" unicode="&#x3163;" 
d="M424 748h93v-914h-93v914z" />
    <glyph glyph-name="uni3165" unicode="&#x3165;" 
d="M241 545v-401h211v-86h-304v487h93zM573 545v-401h211v-86h-303v487h92z" />
    <glyph glyph-name="uni3166" unicode="&#x3166;" 
d="M244 545v-401h212v-86h-305v487h93zM483 58v488h295v-86h-203v-316h213v-86h-305z" />
    <glyph glyph-name="uni3167" unicode="&#x3167;" 
d="M228 544v-401h211v-33q31 24 58.5 56t48.5 69.5t33 80t12 88.5v140h94v-140q0 -50 14 -95.5t37.5 -85t54.5 -72t64 -55.5l-65 -61q-51 34 -91.5 84.5t-61.5 98.5q-10 -24 -25.5 -49.5t-35.5 -49.5t-43 -45.5t-48 -38.5l-46 42v-20h-304v487h93z" />
    <glyph glyph-name="uni3168" unicode="&#x3168;" 
d="M809 58h-355l178 535zM699 141l-67 220l-68 -220h135zM247 545v-401h190v-86h-283v487h93z" />
    <glyph glyph-name="uni3169" unicode="&#x3169;" 
d="M53 57v288h145v121h-145v85h236v-289h-146v-120h159v-85h-249zM460 57v408h-138v86h229v-418q55 45 85 121.5t30 184.5v110h93v-110q0 -117 35.5 -196t101.5 -126l-58 -65q-48 35 -78.5 76.5t-47.5 86.5q-17 -45 -48 -86.5t-77 -76.5l-36 40v-35h-91z" />
    <glyph glyph-name="uni316A" unicode="&#x316a;" 
d="M162 56v288h194v119h-194v85h285v-287h-193v-120h201v-85h-293zM498 58v488h268v-86h-176v-316h186v-86h-278z" />
    <glyph glyph-name="uni316B" unicode="&#x316b;" 
d="M490 287h-71v-147h71v147zM74 57v288h131v121h-131v85h220v-289h-132v-120h146v-85h-234zM332 56v500h87v-186h71v186h87v-413q48 48 73.5 119t25.5 177v110h90v-110q0 -119 32.5 -196t94.5 -126l-57 -65q-42 33 -71 73.5t-45 83.5q-17 -43 -45.5 -83t-70.5 -74l-27 31
v-27h-245z" />
    <glyph glyph-name="uni316C" unicode="&#x316c;" 
d="M819 58h-355l178 535zM709 141l-67 220l-68 -220h135zM153 58v286h198v119h-198v85h290v-287h-198v-118h205v-85h-297z" />
    <glyph glyph-name="uni316D" unicode="&#x316d;" 
d="M151 58v286h203v119h-203v85h295v-287h-203v-118h212v-85h-304zM807 203q0 -35 -12.5 -65t-35 -52t-52.5 -34.5t-64 -12.5q-35 0 -64.5 12.5t-51.5 34.5t-34.5 52t-12.5 65t12.5 64.5t34.5 51t51.5 33.5t64.5 12q34 0 64 -12t52.5 -33.5t35 -51t12.5 -64.5zM807 463h-327
v85h327v-85zM643 284q-33 0 -54.5 -23t-21.5 -58t21 -59t55 -24t55 24t21 59t-21 58t-55 23z" />
    <glyph glyph-name="uni316E" unicode="&#x316e;" 
d="M155 56v492h288v-492h-288zM494 56v492h91v-169h109v169h91v-492h-291zM352 462h-106v-320h106v320zM694 294h-109v-152h109v152z" />
    <glyph glyph-name="uni316F" unicode="&#x316f;" 
d="M356 462h-121v-320h121v320zM144 56v492h304v-436q30 24 57 55.5t47 69t32 81t12 91.5v134h94v-134q0 -52 13.5 -98.5t36.5 -86.5t53.5 -72t64.5 -56l-64 -61q-51 34 -91 84t-61 99q-20 -49 -60 -99t-91 -84l-43 41v-20h-304z" />
    <glyph glyph-name="uni3170" unicode="&#x3170;" 
d="M823 56h-355l177 535zM712 139l-67 221l-67 -221h134zM144 56v492h304v-492h-304zM356 462h-121v-320h121v320z" />
    <glyph glyph-name="uni3171" unicode="&#x3171;" 
d="M238 302v358h463v-358h-463zM642 103q0 -33 -13 -58.5t-36.5 -43.5t-55 -27.5t-68.5 -9.5t-69 9.5t-55 27.5t-36.5 43.5t-13.5 58.5q0 31 13.5 57t36.5 44t55 28t69 10t68.5 -10t55 -28t36.5 -44t13 -57zM609 575h-280v-188h280v188zM554 103q0 30 -25 47t-60 17
t-60.5 -17t-25.5 -47q0 -31 25.5 -47.5t60.5 -16.5t60 16.5t25 47.5z" />
    <glyph glyph-name="uni3172" unicode="&#x3172;" 
d="M159 57v491h92v-175h123v175h91v-491h-306zM699 56v406h-193v86h285v-492h-92zM374 288h-123v-145h123v145z" />
    <glyph glyph-name="uni3173" unicode="&#x3173;" 
d="M156 57v491h91v-175h110v175h91v-491h-292zM500 58v488h271v-86h-178v-316h188v-86h-281zM357 288h-110v-145h110v145z" />
    <glyph glyph-name="uni3174" unicode="&#x3174;" 
d="M252 287h-76v-147h76v147zM747 57v405h-148v86h239v-491h-91zM88 56v492h88v-178h76v178h87v-410q24 22 44.5 49.5t35 63t23 79.5t8.5 98v120h95v-120q0 -62 10.5 -110t29.5 -85.5t44 -66.5t54 -51l-61 -66q-40 31 -73.5 74.5t-51.5 88.5q-17 -45 -50.5 -88.5
t-73.5 -74.5l-34 37v-30h-251z" />
    <glyph glyph-name="uni3175" unicode="&#x3175;" 
d="M245 140v147h-73v-147h73zM328 131q25 24 45.5 52t35 64t22.5 81t8 103v117h91v-117q0 -57 7.5 -101.5t22 -80t34 -63.5t43.5 -51v413h206v-86h-116v-318h127v-86h-217v33l-37 -41q-37 29 -68 71.5t-48 85.5q-17 -43 -47.5 -85.5t-67.5 -71.5l-41 45v-39h-240v492h84
v-178h73v178h83v-417z" />
    <glyph glyph-name="uni3176" unicode="&#x3176;" 
d="M358 288h-116v-146h116v146zM150 56v492h92v-175h116v175h92v-423q30 22 54.5 49t42 61.5t27 78.5t9.5 100v49h-99v85h306v-85h-113v-49q0 -59 11.5 -105.5t32 -83t48 -65t59.5 -52.5l-58 -65q-23 15 -44 34.5t-39.5 41.5t-33 45t-23.5 45q-20 -45 -57 -88t-87 -75
l-36 42v-32h-300z" />
    <glyph glyph-name="uni3177" unicode="&#x3177;" 
d="M156 57v491h91v-175h110v175h91v-491h-292zM500 57v489h274v-86h-182v-115h176v-86h-176v-116h191v-86h-283zM357 288h-110v-145h110v145z" />
    <glyph glyph-name="uni3178" unicode="&#x3178;" 
d="M642 103q0 -33 -13 -58.5t-36.5 -43.5t-55 -27.5t-68.5 -9.5t-69 9.5t-55 27.5t-36.5 43.5t-13.5 58.5q0 31 13.5 57t36.5 44t55 28t69 10t68.5 -10t55 -28t36.5 -44t13 -57zM554 103q0 30 -25 47t-60 17t-60.5 -17t-25.5 -47q0 -31 25.5 -47.5t60.5 -16.5t60 16.5
t25 47.5zM238 293v380h91v-108h280v108h92v-380h-463zM609 480h-280v-101h280v101z" />
    <glyph glyph-name="uni3179" unicode="&#x3179;" 
d="M642 103q0 -33 -13 -58.5t-36.5 -43.5t-55 -27.5t-68.5 -9.5t-69 9.5t-55 27.5t-36.5 43.5t-13.5 58.5q0 31 13.5 57t36.5 44t55 28t69 10t68.5 -10t55 -28t36.5 -44t13 -57zM554 103q0 30 -25 47t-60 17t-60.5 -17t-25.5 -47q0 -31 25.5 -47.5t60.5 -16.5t60 16.5
t25 47.5zM653 468h-80v-90h80v90zM489 298v359h84v-109h80v109h84v-359h-248zM366 468h-81v-90h81v90zM201 298v359h84v-109h81v109h83v-359h-248z" />
    <glyph glyph-name="uni317A" unicode="&#x317a;" 
d="M485 48q-51 34 -91 84t-61 99q-21 -49 -61.5 -99t-91.5 -84l-65 60q33 23 64 56t54.5 74t37.5 90.5t14 106.5v115h95v-115q0 -57 14 -106.5t37.5 -90.5t54.5 -74t65 -56zM685 58v402h-224v86h317v-488h-93z" />
    <glyph glyph-name="uni317B" unicode="&#x317b;" 
d="M454 48q-25 16 -47.5 37.5t-41.5 45.5t-34 49.5t-25 49.5q-10 -24 -25 -49.5t-34 -49.5t-41.5 -45.5t-46.5 -37.5l-66 60q34 22 64 55t52.5 74t36 91t13.5 107v115h94v-115q0 -50 10.5 -95t29 -83.5t43 -70t53.5 -55.5v414h93v-401h208v-86h-301v22z" />
    <glyph glyph-name="uni317C" unicode="&#x317c;" 
d="M454 48q-25 16 -47.5 37.5t-41.5 45.5t-34 49.5t-25 49.5q-10 -24 -25 -49.5t-34 -49.5t-41.5 -45.5t-46.5 -37.5l-66 60q34 22 64 55t52.5 74t36 91t13.5 107v115h94v-115q0 -50 10.5 -94.5t28.5 -82.5t42.5 -69.5t52.5 -55.5v413h293v-86h-200v-316h209v-86h-302v20z
" />
    <glyph glyph-name="uni317D" unicode="&#x317d;" 
d="M704 288h-116v-146h116v146zM496 56v36l-42 -38q-25 16 -47.5 37.5t-41.5 45.5t-34 49.5t-25 49.5q-10 -24 -25 -49.5t-34 -49.5t-41.5 -45.5t-46.5 -37.5l-66 60q34 22 64 55t52.5 74t36 91t13.5 107v109h94v-109q0 -52 11 -98t30.5 -85t45.5 -71t56 -56v417h92v-175
h116v175h91v-492h-299z" />
    <glyph glyph-name="uni317E" unicode="&#x317e;" 
d="M392 132q-47 42 -71 92q-21 -49 -59.5 -99.5t-88.5 -84.5l-66 61q34 22 64 55t52.5 74t35.5 91t13 107v122h95v-122q0 -83 26.5 -139.5t73.5 -98.5zM761 48q-46 29 -84 73.5t-57 87.5q-20 -45 -61 -89.5t-89 -75.5l-57 65q33 23 62.5 51t51.5 64.5t34.5 83t12.5 106.5v49
h-110v85h326v-85h-122v-49q0 -59 11.5 -105t32 -81.5t48 -63.5t59.5 -51z" />
    <glyph glyph-name="uni317F" unicode="&#x317f;" 
d="M708 66h-476l237 572zM575 148q-11 25 -24.5 59.5l-28.5 71l-29 71.5l-24 62l-103 -264h209z" />
    <glyph glyph-name="uni3180" unicode="&#x3180;" 
d="M826 301q0 -60 -13.5 -108t-36.5 -82t-54 -52.5t-66 -18.5t-66 18.5t-54.5 52.5t-37.5 82t-14 108q0 61 14 109t37.5 81.5t54.5 51t66 17.5t66 -17.5t54 -51t36.5 -81.5t13.5 -109zM454 301q0 -60 -13.5 -108t-36.5 -82t-54 -52.5t-66 -18.5t-66 18.5t-54.5 52.5
t-37.5 82t-14 108q0 61 14 109t37.5 81.5t54.5 51t66 17.5t66 -17.5t54 -51t36.5 -81.5t13.5 -109zM204 301q0 -38 6.5 -69t17.5 -53.5t25.5 -35t30.5 -12.5t30.5 12.5t25 35t17 53.5t6.5 69q0 39 -6.5 70.5t-17 54t-25 34.5t-30.5 12q-32 0 -56 -46.5t-24 -124.5zM576 301
q0 -38 6.5 -69t17.5 -53.5t25.5 -35t30.5 -12.5t30.5 12.5t25 35t17 53.5t6.5 69q0 39 -6.5 70.5t-17 54t-25 34.5t-30.5 12q-32 0 -56 -46.5t-24 -124.5z" />
    <glyph glyph-name="uni3181" unicode="&#x3181;" 
d="M721 240q0 -57 -19 -105t-53 -83t-80.5 -54.5t-101.5 -19.5t-101.5 19.5t-80.5 54.5t-53 83t-19 105q0 50 15 93.5t42.5 76.5t66 54.5t84.5 28.5v185h93v-185q46 -8 84 -29.5t65.5 -54.5t42.5 -76t15 -93zM467 413q-36 0 -65.5 -13.5t-49.5 -36.5t-31 -54.5t-11 -68.5
q0 -38 11 -70t31 -55.5t49.5 -37t65.5 -13.5t65 13.5t49 37t31 55.5t11 70q0 37 -11 68.5t-31 54.5t-49 36.5t-65 13.5z" />
    <glyph glyph-name="uni3182" unicode="&#x3182;" 
d="M218 254q0 -53 25 -85.5t59 -32.5t57.5 32.5t23.5 85.5q0 54 -23.5 86.5t-57.5 32.5t-59 -32.5t-25 -86.5zM792 43q-51 34 -89 82t-58 95q-20 -47 -58 -95t-89 -82l-67 61q34 22 64.5 54.5t53 74t36 91.5t13.5 107v108h95v-108q0 -57 13 -107t35.5 -91.5t53 -74
t64.5 -54.5zM472 254q0 -47 -13.5 -85t-36.5 -65t-54 -41.5t-66 -14.5t-66 14.5t-54.5 41.5t-37.5 65t-14 85q0 79 35.5 129.5t89.5 67.5v113h93v-113q54 -16 89 -67t35 -130z" />
    <glyph glyph-name="uni3183" unicode="&#x3183;" 
d="M695 139l-67 221l-68 -221h135zM218 254q0 -53 25 -85.5t59 -32.5t57.5 32.5t23.5 85.5q0 54 -23.5 86.5t-57.5 32.5t-59 -32.5t-25 -86.5zM805 56h-354l177 535zM472 254q0 -47 -13.5 -85t-36.5 -65t-54 -41.5t-66 -14.5t-66 14.5t-54.5 41.5t-37.5 65t-14 85
q0 79 35.5 129.5t89.5 67.5v113h93v-113q54 -16 89 -67t35 -130z" />
    <glyph glyph-name="uni3184" unicode="&#x3184;" 
d="M554 103q0 30 -25 47t-60 17t-60.5 -17t-25.5 -47q0 -31 25.5 -47.5t60.5 -16.5t60 16.5t25 47.5zM714 580h-489v82h489v-82zM614 375h113v-82h-515v82h114l-21 165l89 12l19 -177h114l25 177l89 -12zM642 103q0 -33 -13 -58.5t-36.5 -43.5t-55 -27.5t-68.5 -9.5t-69 9.5
t-55 27.5t-36.5 43.5t-13.5 58.5q0 31 13.5 57t36.5 44t55 28t69 10t68.5 -10t55 -28t36.5 -44t13 -57z" />
    <glyph glyph-name="uni3185" unicode="&#x3185;" 
d="M442 178q0 -34 -10.5 -63t-29.5 -50.5t-44 -33.5t-54 -12t-53.5 12t-43.5 33.5t-29.5 50.5t-10.5 63t10.5 62.5t29.5 49.5t43.5 32.5t53.5 11.5t54 -11.5t44 -32.5t29.5 -49.5t10.5 -62.5zM772 178q0 -34 -10.5 -63t-29.5 -50.5t-44 -33.5t-53 -12q-29 0 -54.5 12
t-44 33.5t-29 50.5t-10.5 63t10.5 62.5t29 49.5t44 32.5t54.5 11.5q28 0 53 -11.5t44 -32.5t29.5 -49.5t10.5 -62.5zM451 360h-300v82h300v-82zM788 360h-301v82h301v-82zM390 478h-163v84h163v-84zM712 478h-163v84h163v-84zM304 255q-25 0 -40.5 -22.5t-15.5 -54.5
q0 -33 15.5 -56t40.5 -23q26 0 41 23t15 56q0 32 -15 54.5t-41 22.5zM635 255q-26 0 -41.5 -22.5t-15.5 -54.5q0 -33 15.5 -56t41.5 -23q25 0 40 23t15 56q0 32 -15 54.5t-40 22.5z" />
    <glyph glyph-name="uni3186" unicode="&#x3186;" 
d="M697 240q0 -51 -17 -94.5t-47.5 -75t-73 -49.5t-92.5 -18t-92.5 18t-73 49.5t-47.5 75t-17 94.5t17 93.5t47.5 73.5t73 48t92.5 17t92.5 -17t73 -48t47.5 -73.5t17 -93.5zM467 387q-30 0 -55 -11.5t-43.5 -31.5t-28.5 -46.5t-10 -57.5q0 -32 10 -59.5t28.5 -47.5
t43.5 -32t55 -12t55 12t43 32t27.5 47.5t9.5 59.5q0 31 -9.5 57.5t-27.5 46.5t-43 31.5t-55 11.5zM719 557h-499v85h499v-85z" />
    <glyph glyph-name="uni3187" unicode="&#x3187;" 
d="M749 180v-335h-92v903h92v-258h153v-85h-153v-139h153v-86h-153zM619 203q2 -21 4.5 -41.5t4.5 -41.5q-41 -5 -83 -9.5t-82.5 -8t-78.5 -6l-69 -4.5q-62 -4 -130.5 -7t-128.5 -3l-4 42.5l-4 43.5q30 0 67.5 0.5t78.5 2.5v296h93v-293l45 2l64 4v287h93v-279q33 4 66 7
t64 8z" />
    <glyph glyph-name="uni3188" unicode="&#x3188;" 
d="M727 -156v336h-73v-305h-91v861h91v-247h73v259h93v-904h-93zM526 207q3 -20 5.5 -40.5t4.5 -40.5q-76 -11 -141.5 -17.5t-117.5 -8.5l-110.5 -4.5t-110.5 -2.5l-4 41.5l-4 42.5h47.5t58.5 1v300h93v-298l77 4v294h93v-286l54 6.5t55 8.5zM654 265h73v139h-73v-139z" />
    <glyph glyph-name="uni3189" unicode="&#x3189;" 
d="M666 204l4 -42l4 -41q-81 -11 -154 -16.5t-135 -7.5l-63 -4q-25 -2 -52.5 -3l-55.5 -2t-54.5 -1.5t-48.5 -0.5l-9 86q27 0 63.5 0.5t75.5 2.5v292h93v-289l111 5v284h92v-277l64 6t65 8zM686 748h93v-903h-93v903z" />
    <glyph glyph-name="uni318A" unicode="&#x318a;" 
d="M394 -88v374l-97 -4v-370h-93v366q-27 -1 -54.5 -1.5t-56.5 -0.5l-8 83q73 0 151.5 2.5t157 6.5t153 10.5t139.5 15.5l13 -82q-56 -6 -108 -10.5t-105 -8.5v-381h-92zM733 -156v162h-198v83h198v62h-198v83h198v514h92v-904h-92z" />
    <glyph glyph-name="uni318B" unicode="&#x318b;" 
d="M596 -128v161h-140v83h140v72h-140v83h140v465h93v-864h-93zM741 -156v904h93v-904h-93zM178 -93v412q-28 -1 -53.5 -1.5t-44.5 -0.5l-8 84q19 0 48 0.5t60.5 1.5l62 2t52.5 2q24 1 55 3t65.5 4.5t70.5 6.5t69 9l13 -81q-38 -5 -72 -9t-69 -7v-426h-93v420
q-17 -2 -32.5 -2.5t-31.5 -1.5v-416h-92z" />
    <glyph glyph-name="uni318C" unicode="&#x318c;" 
d="M250 -93v372l-146 -4l-8 83q62 0 140.5 2.5t160 6.5t159.5 10.5t140 15.5l11 -83q-42 -5 -81.5 -8.5t-82.5 -6.5v-388h-92v382q-56 -5 -109 -6v-376h-92zM739 -158v906h93v-906h-93z" />
    <glyph glyph-name="uni318D" unicode="&#x318d;" 
d="M460 237q-29 0 -47 18.5t-18 44.5q0 28 18 46.5t47 18.5q30 0 47 -18.5t18 -46.5q0 -26 -17.5 -44.5t-47.5 -18.5z" />
    <glyph glyph-name="uni318E" unicode="&#x318e;" 
d="M565 748h93v-914h-93v914zM339 237q-29 0 -47 18.5t-18 44.5q0 28 18 46.5t47 18.5q30 0 47 -18.5t18 -46.5q0 -26 -17.5 -44.5t-47.5 -18.5z" />
    <glyph glyph-name="uni2170" unicode="&#x2170;" horiz-adv-x="915" 
d="M402 575v120h110v-120h-110zM402 -28v518h110v-518h-110z" />
    <glyph glyph-name="uni2171" unicode="&#x2171;" horiz-adv-x="915" 
d="M640 575h-106v120h106v-120zM380 575h-106v120h106v-120zM640 -31h-106v517h106v-517zM380 -31h-106v517h106v-517z" />
    <glyph glyph-name="uni2172" unicode="&#x2172;" horiz-adv-x="915" 
d="M725 575h-103v120h103v-120zM508 575h-103v120h103v-120zM291 575h-103v120h103v-120zM725 -31h-103v517h103v-517zM508 -31h-103v517h103v-517zM291 -31h-103v517h103v-517z" />
    <glyph glyph-name="uni2173" unicode="&#x2173;" horiz-adv-x="915" 
d="M293 575h-103v120h103v-120zM800 486l-170 -517h-107l-168 517h114l110 -411h2l108 411h111zM293 -31h-103v517h103v-517z" />
    <glyph glyph-name="uni2174" unicode="&#x2174;" horiz-adv-x="915" 
d="M709 486l-196 -517h-107l-192 517h116l131 -412h3l131 412h114z" />
    <glyph glyph-name="uni2175" unicode="&#x2175;" horiz-adv-x="915" 
d="M727 575h-103v120h103v-120zM727 -31h-103v517h103v-517zM563 486l-170 -517h-107l-169 517h115l110 -411h2l108 411h111z" />
    <glyph glyph-name="uni2176" unicode="&#x2176;" horiz-adv-x="915" 
d="M800 575h-97v120h97v-120zM611 575h-97v120h97v-120zM799 -31h-96v517h96v-517zM611 -31h-97v517h97v-517zM457 486l-139 -517h-101l-141 517h107l86 -411h2l85 411h101z" />
    <glyph glyph-name="uni2177" unicode="&#x2177;" horiz-adv-x="915" 
d="M832 575h-89v120h89v-120zM679 575h-89v120h89v-120zM526 575h-89v120h89v-120zM832 -31h-89v517h89v-517zM679 -31h-89v517h89v-517zM526 -31h-89v517h89v-517zM393 486l-119 -517h-90l-124 517h99l71 -411h1l70 411h92z" />
    <glyph glyph-name="uni2178" unicode="&#x2178;" horiz-adv-x="915" 
d="M285 575h-103v120h103v-120zM641 236l156 -267h-118l-105 200h-2l-103 -200h-112l155 264l-149 253h118l98 -190h2l96 190h114zM285 -31h-103v517h103v-517z" />
    <glyph glyph-name="uni2179" unicode="&#x2179;" horiz-adv-x="915" 
d="M521 238l182 -269h-122l-125 200h-2l-124 -200h-119l184 266l-175 251h121l119 -185h2l115 185h119z" />
    <glyph glyph-name="uni2160" unicode="&#x2160;" horiz-adv-x="915" 
d="M511 686v-717h-109v717h109z" />
    <glyph glyph-name="uni2161" unicode="&#x2161;" horiz-adv-x="915" 
d="M643 686v-717h-108v717h108zM377 686v-717h-107v717h107z" />
    <glyph glyph-name="uni2162" unicode="&#x2162;" horiz-adv-x="915" 
d="M727 686v-717h-104v717h104zM281 686v-717h-104v717h104zM501 686v-717h-105v717h105z" />
    <glyph glyph-name="uni2163" unicode="&#x2163;" horiz-adv-x="915" 
d="M836 686l-208 -717h-127l-202 717h118l150 -604h1l153 604h115zM242 -31h-105v717h105v-717z" />
    <glyph glyph-name="uni2164" unicode="&#x2164;" horiz-adv-x="915" 
d="M763 686l-250 -717h-124l-238 717h119l184 -607h1l193 607h115z" />
    <glyph glyph-name="uni2165" unicode="&#x2165;" horiz-adv-x="915" 
d="M801 -31h-104v717h104v-717zM624 686l-209 -717h-127l-201 717h117l150 -604h2l152 604h116z" />
    <glyph glyph-name="uni2166" unicode="&#x2166;" horiz-adv-x="915" 
d="M867 -31h-97v717h97v-717zM682 -31h-98v717h98v-717zM539 686l-166 -717h-109l-163 717h104l115 -601h3l112 601h104z" />
    <glyph glyph-name="uni2167" unicode="&#x2167;" horiz-adv-x="915" 
d="M413 686l-129 -717h-104l-65.5 358.5l-65.5 358.5h98q11 -81 23.5 -161t23.5 -160l20.5 -134.5t18.5 -143.5h3q7 72 16.5 143l18.5 137l45 319h97zM695 -31h-90v717h90v-717zM545 -31h-90v717h90v-717zM844 -31h-90v717h90v-717z" />
    <glyph glyph-name="uni2168" unicode="&#x2168;" horiz-adv-x="915" 
d="M638 335l194 -366h-117l-142 289h-2l-135 -289h-116l192 364l-183 353h116l132 -276h3l127 276h115zM248 -31h-105v717h105v-717z" />
    <glyph glyph-name="uni2169" unicode="&#x2169;" horiz-adv-x="915" 
d="M520 336l227 -367h-127l-168 290h-1l-160 -290h-125l223 363l-214 354h126l155 -278h3l153 278h125z" />
    <glyph glyph-name="Alpha" unicode="&#x391;" horiz-adv-x="663" 
d="M429 272l-101 326h-3l-98 -326h202zM206 188l-68 -216h-114l239 718h135l241 -718h-118l-72 216h-243z" />
    <glyph glyph-name="Beta" unicode="&#x392;" horiz-adv-x="594" 
d="M187 53q14 -3 32.5 -3.5t41.5 -0.5q34 0 65.5 6.5t55.5 22t38.5 41t14.5 62.5q0 34 -14 58t-38 39.5t-56 23t-68 7.5h-72v-256zM187 390h77q72 0 110.5 31.5t38.5 81.5q0 58 -40 83.5t-106 25.5q-32 0 -50.5 -2t-29.5 -4v-216zM78 679q31 7 79.5 11.5t99.5 4.5
q72 0 119.5 -11.5t80.5 -37.5q31 -21 49.5 -53.5t18.5 -77.5q0 -51 -32 -93t-90 -62v-4q27 -7 53.5 -21t47.5 -36t33.5 -52t12.5 -69q0 -48 -17.5 -84t-46.5 -62q-74 -67 -256 -67q-51 0 -89 3t-63 6v705z" />
    <glyph glyph-name="Gamma" unicode="&#x393;" horiz-adv-x="488" 
d="M475 690v-93h-287v-625h-110v718h397z" />
    <glyph glyph-name="Delta" unicode="&#x394;" horiz-adv-x="667" 
d="M24 31l34.5 94l42 112.5l45.5 122.5l45.5 122.5l42.5 113l35 94.5h128l242 -658v-60h-615v59zM515 62l-135 373l-29 87t-22 71h-3l-20.5 -67.5l-24.5 -77.5l-139 -386h373z" />
    <glyph glyph-name="Epsilon" unicode="&#x395;" horiz-adv-x="535" 
d="M463 301h-275v-238h308v-91h-418v718h402v-91h-292v-208h275v-90z" />
    <glyph glyph-name="Zeta" unicode="&#x396;" horiz-adv-x="595" 
d="M30 34l384 560v4h-351v92h493v-66l-380 -558v-3h386v-91h-532v62z" />
    <glyph glyph-name="Eta" unicode="&#x397;" horiz-adv-x="704" 
d="M188 690v-296h328v296h110v-718h-110v327h-328v-327h-110v718h110z" />
    <glyph glyph-name="Theta" unicode="&#x398;" horiz-adv-x="742" 
d="M506 385v-90h-272v90h272zM371 48q52 0 92.5 22.5t68 61t41.5 90.5t14 111q0 52 -13.5 102.5t-40 89.5t-67 63t-94.5 24q-55 0 -96 -23.5t-68.5 -63t-41 -91t-13.5 -107.5t14.5 -106.5t42 -88.5t68 -61t92.5 -23h1zM365 -40q-74 0 -134 27t-103.5 75t-67 115t-23.5 148
q0 84 25 153.5t70 119t107 77t136 27.5q76 0 136.5 -27.5t103.5 -76t66 -115.5t23 -146q0 -91 -26.5 -161.5t-72 -118.5t-107.5 -72.5t-132 -24.5h-1z" />
    <glyph glyph-name="Iota" unicode="&#x399;" horiz-adv-x="266" 
d="M188 690v-718h-110v718h110z" />
    <glyph glyph-name="Kappa" unicode="&#x39a;" horiz-adv-x="596" 
d="M78 690h109v-339h3q29 43 55 76l206 263h135l-254 -306l273 -412h-130l-220 342l-68 -78v-264h-109v718z" />
    <glyph glyph-name="Lambda" unicode="&#x39b;" horiz-adv-x="658" 
d="M521 -28l-156 478q-22 73 -37 141h-4q-14 -69 -33 -141l-151 -478h-116l239 718h135l242 -718h-119z" />
    <glyph glyph-name="Mu" unicode="&#x39c;" horiz-adv-x="867" 
d="M684 277l-4 75t-3.5 79t-2.5 78.5t-1 73.5h-2l-40.5 -132.5t-47.5 -140.5l-117 -332h-84l-107 326q-24 73 -43.5 143t-34.5 136h-3q-1 -34 -2 -72.5t-3 -78.5l-4 -81l-4 -80l-17 -299h-104l48 718h143l110 -322q21 -65 38 -126t31 -119h4q14 57 32 118.5t41 127.5
l116 321h141l43 -718h-107z" />
    <glyph glyph-name="Nu" unicode="&#x39d;" horiz-adv-x="709" 
d="M78 -28v718h123l210 -339q38 -62 69.5 -120.5t56.5 -115.5l2 1q-7 72 -9 142t-2 153v279h103v-718h-113l-211 343l-70 121.5t-61 120.5l-3 -1q4 -68 5.5 -139t1.5 -161v-284h-102z" />
    <glyph glyph-name="Xi" unicode="&#x39e;" horiz-adv-x="584" 
d="M546 62v-90h-500v90h500zM499 388v-91h-406v91h406zM533 690v-90h-475v90h475z" />
    <glyph glyph-name="Omicron" unicode="&#x39f;" horiz-adv-x="741" 
d="M371 49q52 0 92 22.5t67.5 61t41.5 90t14 110.5q0 52 -13.5 102.5t-40 89.5t-67 63t-94.5 24t-95 -23.5t-68 -62.5t-40.5 -90.5t-13.5 -107.5t14.5 -106.5t42 -88.5t68 -61t91.5 -23h1zM364 -40q-73 0 -133 27t-103 75.5t-66.5 115.5t-23.5 147q0 84 25 153.5t69.5 119
t106.5 77t136 27.5q76 0 136.5 -27.5t103 -76t65 -115t22.5 -145.5q0 -91 -26 -161.5t-72 -118.5t-107.5 -73t-131.5 -25h-1z" />
    <glyph glyph-name="Pi" unicode="&#x3a0;" horiz-adv-x="684" 
d="M605 -28h-110v625h-307v-625h-110v718h527v-718z" />
    <glyph glyph-name="Rho" unicode="&#x3a1;" horiz-adv-x="579" 
d="M187 341q14 -5 31.5 -6.5t40.5 -1.5q79 0 124.5 37.5t45.5 106.5q0 66 -43 99t-116 33q-29 0 -50 -2t-33 -5v-261zM78 680q35 7 81.5 11t106.5 4q71 0 122 -15t83 -44q32 -26 50 -65.5t18 -88.5q0 -98 -59 -157q-38 -39 -95.5 -59t-126.5 -20q-43 0 -71 7v-281h-109v708z
" />
    <glyph glyph-name="Sigma" unicode="&#x3a3;" horiz-adv-x="595" 
d="M170 63h394v-91h-535v64l240 292l-227 289v73h489v-91h-349v-4l207 -263l-219 -265v-4z" />
    <glyph glyph-name="Tau" unicode="&#x3a4;" horiz-adv-x="543" 
d="M215 597h-212v93h536v-93h-213v-625h-111v625z" />
    <glyph glyph-name="Upsilon" unicode="&#x3a5;" horiz-adv-x="636" 
d="M29 696q20 -1 44 -8t48.5 -19t48 -29.5t43.5 -39.5q40 -45 68 -109.5t38 -146.5h4q13 83 47.5 146.5t72.5 105.5q19 21 41 38.5t44.5 30.5t44.5 21t40 10l18 -91q-32 -11 -67.5 -36t-69 -64t-61.5 -91.5t-45 -118.5q-8 -32 -13.5 -68.5t-5.5 -78.5v-176h-110v178
q0 40 -3.5 74.5t-10.5 69.5q-15 68 -39 122.5t-55 94t-67 64t-74 32.5z" />
    <glyph glyph-name="Phi" unicode="&#x3a6;" horiz-adv-x="782" 
d="M443 78q35 4 69 21.5t60.5 49t43 76.5t16.5 105q0 61 -16.5 107.5t-43 78t-60.5 49t-69 21.5v-508zM338 586q-32 -3 -65.5 -21t-61 -50t-45 -78.5t-17.5 -107.5q0 -57 16 -101.5t42.5 -76t60.5 -50t70 -23.5v508zM442 -56h-105v56q-55 5 -109 27t-96.5 62t-68.5 99
t-26 139q0 82 28 143t71.5 102.5t97.5 64t105 27.5v53h105v-53q56 -5 109.5 -28t95.5 -64.5t68 -101.5t26 -139t-25.5 -138.5t-68 -100.5t-96.5 -64t-111 -28v-56z" />
    <glyph glyph-name="Chi" unicode="&#x3a7;" horiz-adv-x="619" 
d="M467 -28l-163 290h-2l-152 -290h-126l216 363l-208 355h126l151 -281h2l150 281h126l-213 -351l221 -367h-128z" />
    <glyph glyph-name="Psi" unicode="&#x3a8;" horiz-adv-x="744" 
d="M696 482q0 -73 -20.5 -127t-56.5 -90.5t-86 -56t-109 -22.5v-214h-102v214q-53 2 -102.5 17.5t-87.5 47.5t-60.5 81.5t-22.5 120.5v237h106v-219q0 -54 12.5 -91t34.5 -60.5t52.5 -34.5t67.5 -13v418h102v-419q33 2 63 14t53 38t36.5 67.5t13.5 103.5v196h106v-208z" />
    <glyph glyph-name="Omega" unicode="&#x3a9;" horiz-adv-x="761" 
d="M575 58h153v-86h-281v68q31 21 59 52t49 70t33.5 85t12.5 99q0 48 -14 96t-41.5 85.5t-68 61t-93.5 23.5t-94.5 -22.5t-70 -59.5t-43.5 -85.5t-15 -99.5q0 -49 12.5 -95.5t33.5 -86.5t49 -72t58 -51v-68h-282v86h152v3q-26 21 -50.5 51t-44 67t-31.5 81.5t-12 95.5
q0 75 25.5 138.5t71.5 109.5t108 72t136 26q76 0 136.5 -27t103 -72.5t65 -107t22.5 -130.5q0 -54 -12 -100.5t-32 -84.5t-45 -68t-50 -51v-3z" />
    <glyph glyph-name="alpha" unicode="&#x3b1;" horiz-adv-x="586" 
d="M149 226q0 -34 8.5 -65t25 -55t40 -38t53.5 -14q22 0 42.5 10t37 26.5t28.5 38.5t17 45q4 17 4.5 32t0.5 34q0 14 -0.5 27t-2.5 25q-5 25 -15.5 47t-26 39t-35.5 27t-43 10q-30 0 -54.5 -14.5t-42.5 -39.5t-27.5 -59.5t-9.5 -74.5v-1zM524 488q-2 -23 -4 -63t-4 -89
t-3.5 -102.5t-1.5 -101.5q0 -45 12 -63.5t37 -18.5l-8 -77q-5 -3 -15.5 -4.5t-21.5 -1.5q-37 0 -62 24t-31 81h-3q-26 -47 -69.5 -76t-102.5 -29q-45 0 -83.5 18t-66 51.5t-43.5 81t-16 105.5q0 63 19 114t51 87t73.5 55.5t85.5 19.5q53 0 92.5 -24.5t60.5 -70.5h4
q2 26 4 46t5 38h91z" />
    <glyph glyph-name="beta" unicode="&#x3b2;" horiz-adv-x="594" 
d="M178 27v-68q0 -45 2 -85.5t10 -72.5h-103q-8 24 -12 59.5t-4 89.5v477q0 55 6.5 96t18 70t25.5 49.5t29 35.5q29 25 66 41t89 16q42 0 76.5 -13.5t60 -38.5t39.5 -59t14 -74q0 -56 -26.5 -99.5t-64.5 -62.5v-5q29 -6 56 -21.5t48 -40.5t34 -59t13 -76q0 -52 -18 -93
t-48.5 -69t-70 -42.5t-82.5 -14.5q-98 0 -156 60h-2zM177 126q9 -14 22.5 -27.5t30.5 -24t37.5 -17.5t44.5 -7q30 0 55 10.5t42 29.5t26.5 43.5t9.5 53.5q0 35 -11.5 61.5t-32 45t-48 28t-59.5 11.5h-26v71q5 0 9 0.5t9 1.5q54 5 81.5 42t27.5 85q0 53 -27.5 84.5
t-70.5 31.5q-58 0 -89 -50.5t-31 -156.5v-316z" />
    <glyph glyph-name="gamma" unicode="&#x3b3;" horiz-adv-x="501" 
d="M189 -199q1 37 1.5 69t-1 63.5t-6 63.5t-13.5 70q-14 63 -36 125.5t-47.5 118t-50.5 101t-45 76.5h123q16 -25 36.5 -66.5t41.5 -93t39 -109.5t30 -115h3q16 31 35 72t35.5 87t27.5 94t11 93v38h103q2 -7 2 -16.5v-20.5q0 -48 -14 -103t-38 -113t-57 -116.5t-70 -114.5
q-5 -6 -5.5 -11.5t-0.5 -13.5l3 -178h-107z" />
    <glyph glyph-name="delta" unicode="&#x3b4;" horiz-adv-x="580" 
d="M288 431q-27 -15 -52 -34.5t-44 -45.5t-30.5 -57.5t-11.5 -70.5q0 -41 12 -73t32 -55t46 -35t54 -12t53.5 11.5t44 33.5t29.5 54t11 72q0 98 -90 169zM467 613q-8 6 -22.5 13t-33 13.5t-39.5 10.5t-42 4q-40 0 -59 -12t-19 -30t18.5 -35.5t53.5 -44.5l85 -68
q63 -48 97.5 -105t34.5 -132q0 -59 -19.5 -107t-54 -82t-80.5 -52.5t-99 -18.5q-51 0 -96 17t-79.5 50t-54.5 80t-20 107q0 49 15.5 89t41.5 72.5t60 57t71 42.5v5l-23 19q-9 7 -19.5 18t-20 24t-16 29t-6.5 34q0 22 11.5 44.5t34.5 40t57.5 28.5t80.5 11q57 0 103.5 -16.5
t69.5 -34.5z" />
    <glyph glyph-name="epsilon" unicode="&#x3b5;" horiz-adv-x="468" 
d="M162 254q-48 12 -72.5 40.5t-24.5 66.5q0 25 12.5 50t38 44.5t64.5 31.5t91 12q103 0 159 -38l-22 -72q-17 11 -52 21.5t-73 10.5q-51 0 -80.5 -19t-29.5 -50q0 -35 38.5 -51t97.5 -16h58v-75h-60q-33 0 -60.5 -4t-48 -13.5t-32 -24t-11.5 -35.5t10.5 -37t28 -26.5
t40.5 -15.5t49 -5q40 0 81.5 11.5t65.5 25.5l18 -73q-33 -21 -85.5 -33.5t-104.5 -12.5q-39 0 -78 8t-70.5 26.5t-51 48.5t-19.5 73q0 47 34.5 81.5t88.5 44.5v5z" />
    <glyph glyph-name="zeta" unicode="&#x3b6;" horiz-adv-x="437" 
d="M292 -152q5 9 11 24t10.5 31.5t8 31.5t3.5 25q-26 4 -58 11t-64 19q-33 11 -63 29.5t-52.5 46.5t-35.5 66.5t-13 89.5q0 53 16.5 109.5t48 111t77.5 104.5t104 91v4h-68q-36 0 -67 2t-54 9l10 71q26 -2 61 -2.5t72 -0.5h180l16 -74q-60 -30 -112 -76t-90 -100t-60 -113.5
t-22 -116.5q0 -39 8.5 -67.5t24.5 -49.5t37.5 -35t48.5 -24q36 -14 74 -21t75 -12q10 -2 10 -12q0 -24 -6 -51.5t-15.5 -54t-21 -50t-23.5 -38.5z" />
    <glyph glyph-name="eta" unicode="&#x3b7;" horiz-adv-x="590" 
d="M173 408q9 16 24 32.5t36 29.5t47.5 21t58.5 8q30 0 61.5 -10.5t58 -35t43.5 -66.5t17 -105v-324q0 -45 1 -84t9 -71h-103q-10 23 -13 62.5t-3 90.5v314q0 29 -6 54.5t-19 44.5t-33.5 30t-49.5 11q-42 0 -72.5 -25.5t-41.5 -60.5q-3 -8 -4.5 -19t-1.5 -22v-304h-109v364
q0 42 -3 79.5t-12 65.5h97q8 -14 11.5 -35.5t3.5 -44.5h3z" />
    <glyph glyph-name="theta" unicode="&#x3b8;" horiz-adv-x="570" 
d="M147 321q0 -131 38.5 -203t102.5 -72q34 0 60 20t42.5 56.5t25 87t8.5 111.5h-277zM423 401q0 53 -8.5 99t-25.5 80.5t-43 54.5t-61 20q-33 0 -59 -20.5t-43.5 -55t-27 -81t-9.5 -97.5h277zM285 -33q-115 0 -181.5 97.5t-66.5 291.5q0 81 16.5 150t48.5 120t79 80t109 29
t107.5 -27.5t75 -77.5t44 -119.5t14.5 -154.5q0 -88 -15 -160t-45 -123t-76 -78.5t-109 -27.5h-1z" />
    <glyph glyph-name="iota" unicode="&#x3b9;" horiz-adv-x="259" 
d="M182 111q0 -33 10 -47.5t39 -12.5l-6 -77q-8 -3 -21.5 -5t-26.5 -2q-23 0 -42 6t-33 21t-21.5 40.5t-7.5 65.5v388h109v-377z" />
    <glyph glyph-name="kappa" unicode="&#x3ba;" horiz-adv-x="531" 
d="M288 252q18 -5 37 -18.5t37.5 -32.5t37 -43l36.5 -49l89 -130h-125l-75 107q-35 50 -68 81.5t-66 33.5h-8v-222h-110v393q0 16 -0.5 34t-2 33.5t-4 28.5t-5.5 20h107q7 -8 11 -31.5t4 -56.5v-135h4q62 63 112.5 120.5l92.5 102.5h126v-5l-109.5 -108l-120.5 -119v-4z" />
    <glyph glyph-name="lambda" unicode="&#x3bb;" horiz-adv-x="507" 
d="M284 256q-9 25 -17 51t-16 58h-6q-5 -26 -13.5 -53.5l-16.5 -52.5l-96 -280h-113l183 470q3 10 4 15.5t1 10.5q0 9 -6 26q-11 31 -24 57.5t-28.5 46t-34 30.5t-39.5 11h-9.5t-9.5 -1l11 83q6 3 17 4t21 1q39 0 69 -17t54 -48.5t44.5 -75t40.5 -96.5l194 -517h-116z" />
    <glyph glyph-name="mu" unicode="&#x3bc;" horiz-adv-x="588" 
d="M416 56q-7 -15 -19.5 -30.5t-30.5 -27.5t-41 -20t-50 -8q-31 0 -58.5 11.5t-43.5 37.5v-57q0 -43 2 -85t10 -74h-97q-8 23 -11.5 59t-3.5 96v530h109v-297q0 -29 6 -53.5t18.5 -42.5t32.5 -28.5t48 -10.5q21 0 39 7t32.5 18t24.5 25t16 28q3 10 5 21t2 23v310h109v-362
q0 -41 10 -57.5t37 -17.5l-8 -78q-8 -3 -16 -4.5t-22 -1.5q-37 0 -63 21t-34 68h-3z" />
    <glyph glyph-name="nu" unicode="&#x3bd;" horiz-adv-x="503" 
d="M119 488l90 -273l20.5 -67t20.5 -65h4l36.5 76t39 92.5t31.5 98t13 92.5v24t-1 22h102q3 -17 3 -38q0 -54 -16.5 -112.5t-42.5 -118.5t-60 -121l-68 -119h-105l-183 509h116z" />
    <glyph glyph-name="xi" unicode="&#x3be;" horiz-adv-x="464" 
d="M387 358h-27q-53 0 -91.5 -11.5t-64.5 -32t-38.5 -48t-12.5 -58.5q0 -59 39 -94.5t117 -56.5q35 -9 69 -14.5l68 -10.5q5 0 8 -3.5t3 -8.5q0 -21 -6 -48.5t-15 -54.5t-21 -51t-24 -39l-70 21q5 9 10 24t9.5 31.5t8 31.5t3.5 25q-51 7 -106 20.5t-101.5 40t-76.5 69.5
t-30 109q0 37 13 70.5t35 59.5t51.5 45t63.5 28v5q-57 19 -86 58t-29 91q0 33 14 65.5t42 57.5t70.5 40.5t98.5 15.5q45 0 77.5 -8t55.5 -20l-20 -74q-17 9 -43.5 15.5t-58.5 6.5t-55.5 -9t-39 -24t-23.5 -34.5t-8 -40.5q0 -26 11 -46t30.5 -34t46 -22t57.5 -10h46v-77z" />
    <glyph glyph-name="omicron" unicode="&#x3bf;" horiz-adv-x="583" 
d="M291 48q31 0 56.5 13.5t44.5 38.5t29.5 59t10.5 76q0 31 -7.5 63.5t-24.5 59.5t-43.5 44t-63.5 17q-38 0 -65 -16.5t-44 -43t-25 -59.5t-8 -67q0 -40 10 -74t28.5 -58.5t44 -38.5t56.5 -14h1zM287 -33q-52 0 -97.5 18t-79 52t-53 82.5t-19.5 110.5q0 63 19.5 113t54 84.5
t82 53t102.5 18.5q56 0 101.5 -19t78 -53.5t50.5 -82.5t18 -106q0 -71 -22.5 -122t-58.5 -84t-82 -49t-93 -16h-1z" />
    <glyph glyph-name="pi" unicode="&#x3c0;" horiz-adv-x="593" 
d="M490 404v-271q0 -60 4 -97t9 -57h-104q-8 13 -12.5 49t-4.5 94v282h-152q-2 -49 -7.5 -110t-14.5 -121t-21 -111.5t-25 -82.5h-104q13 38 25 91t21 111t14.5 116.5t6.5 106.5q-29 0 -54.5 -2t-45.5 -7l-13 64q17 14 53 21.5t101 7.5h403l-11 -84h-68z" />
    <glyph glyph-name="rho" unicode="&#x3c1;" horiz-adv-x="597" 
d="M177 179q0 -19 4 -35q6 -19 18 -35.5t28.5 -29t36.5 -20t43 -7.5q34 0 60.5 14t44.5 38.5t27.5 58.5t9.5 74q0 36 -9 67t-26 54.5t-42 37t-57 13.5q-27 0 -51.5 -11t-44 -34t-31 -58t-11.5 -84v-43zM177 35v-77q0 -45 1 -84t6 -71h-105q-6 23 -8.5 58.5t-2.5 92.5v236
q0 51 6.5 88.5t17.5 65.5t25.5 48t29.5 36q32 32 75 51.5t100 19.5q54 0 98 -19t75 -53t48 -82t17 -106q0 -68 -20 -118.5t-52.5 -85t-74.5 -51.5t-87 -17q-48 0 -86.5 18t-60.5 50h-2z" />
    <glyph glyph-name="sigma" unicode="&#x3c3;" horiz-adv-x="591" 
d="M290 48q29 0 54 14t43.5 39t29 59.5t10.5 75.5q0 31 -7.5 63.5t-24 59t-42.5 43.5t-62 17q-37 0 -63.5 -16.5t-43.5 -43t-25 -59.5t-8 -67q0 -40 10 -74t28.5 -58.5t44 -38.5t55.5 -14h1zM447 419q43 -32 65.5 -81t22.5 -103q0 -70 -21.5 -120.5t-57 -83.5t-80 -48.5
t-89.5 -15.5q-53 0 -98 18t-79 51.5t-53 82t-19 109.5q0 63 19.5 113.5t54.5 85.5t84 53.5t109 18.5h274l-3 -80q-19 0 -48 0.5t-80 3.5z" />
    <glyph glyph-name="tau" unicode="&#x3c4;" horiz-adv-x="444" 
d="M343 -23q-8 -4 -23.5 -7t-32.5 -3q-68 0 -97 40.5t-29 123.5v273h-53q-39 0 -61.5 -2.5t-38.5 -5.5l-15 64q14 11 47 19.5t102 8.5h292l-12 -84h-153v-269q0 -24 4.5 -40t12.5 -25.5t18.5 -13t21.5 -3.5h12.5t8.5 1z" />
    <glyph glyph-name="upsilon" unicode="&#x3c5;" horiz-adv-x="559" 
d="M474 488q13 -25 25.5 -79t12.5 -119q0 -57 -11 -114.5t-38.5 -104t-74 -75.5t-116.5 -29q-43 0 -80.5 13t-65.5 39t-44 65t-16 92v141q0 64 -2 106t-9 65h104q8 -9 12 -31.5t4 -64.5v-204q0 -35 9 -60t24 -41t34.5 -23.5t39.5 -7.5q31 0 54 16t38.5 45.5t23 71t7.5 92.5
q0 35 -3.5 68t-8.5 60.5t-11 48t-10 30.5h102z" />
    <glyph glyph-name="phi" unicode="&#x3c6;" horiz-adv-x="692" 
d="M397 45q69 10 110 62t41 137q0 37 -10 69t-25.5 56t-35.5 37.5t-41 13.5q-18 0 -28.5 -15.5t-10.5 -47.5v-312zM257 443q-19 -13 -38.5 -32t-35.5 -44.5t-26 -57t-10 -70.5q0 -36 9.5 -68.5t28.5 -58t47 -43t66 -23.5v292q0 43 11.5 73.5t31 50t45 28t53.5 8.5
q39 0 77.5 -18t68.5 -50.5t48.5 -79t18.5 -104.5q0 -65 -22 -115t-57.5 -84.5t-81.5 -54t-94 -24.5v-166h-99v166q-48 4 -95 21t-83.5 49.5t-59 81.5t-22.5 117q0 55 17.5 99.5t44 77.5t57.5 55t58 33z" />
    <glyph glyph-name="chi" unicode="&#x3c7;" horiz-adv-x="492" 
d="M132 488l122 -251h4l120 251h106l-178 -333l183 -327l-103 -26l-144 263l-4 -1l-136 -262l-94 27l182 325l-174 334h116z" />
    <glyph glyph-name="psi" unicode="&#x3c8;" horiz-adv-x="706" 
d="M311 -33q-49 3 -93.5 17.5t-78 45t-53 80.5t-19.5 125v132q0 35 -1.5 67.5t-6.5 53.5h99q14 -17 14 -96v-147q0 -55 11.5 -92t30.5 -60.5t44 -34t53 -12.5v575h99v-575q33 1 60 18.5t46 48.5t29.5 73.5t10.5 93.5q0 39 -4 73.5t-9.5 61.5t-12 46t-11.5 27h100
q16 -26 28.5 -77.5t12.5 -123.5q0 -57 -13 -112.5t-42.5 -100.5t-77.5 -74t-117 -33v-165h-99v165z" />
    <glyph glyph-name="omega" unicode="&#x3c9;" horiz-adv-x="738" 
d="M417 166q-1 -46 21 -77t57 -31q19 0 36.5 12t31 36.5t22 61t8.5 84.5q0 36 -6 71t-16.5 66t-25.5 57.5t-33 44.5v2h101q16 -14 32 -37.5t28 -55t19.5 -70.5t7.5 -82q0 -71 -16.5 -123.5t-44 -87.5t-63.5 -52.5t-74 -17.5q-47 0 -82 23t-51 65h-4q-20 -40 -54 -64t-82 -24
q-35 0 -69 15.5t-61 48.5t-44 84t-17 123q0 43 7.5 82t20 72t28 58.5t32.5 42.5h100v-2q-35 -40 -58 -105t-23 -144q0 -50 9 -84.5t23.5 -57t31.5 -32.5t34 -10q33 0 55 31t21 76l-1 198h101z" />
    <glyph glyph-name="SF100000" unicode="&#x2500;" 
d="M920 286h-920v29h920v-29z" />
    <glyph glyph-name="SF110000" unicode="&#x2502;" 
d="M475 -200h-29v1000h29v-1000z" />
    <glyph glyph-name="SF010000" unicode="&#x250c;" 
d="M920 286h-445v-486h-29v515h474v-29z" />
    <glyph glyph-name="SF030000" unicode="&#x2510;" 
d="M475 -200h-29v486h-446v29h475v-515z" />
    <glyph glyph-name="SF040000" unicode="&#x2518;" 
d="M475 286h-475v29h446v485h29v-514z" />
    <glyph glyph-name="SF020000" unicode="&#x2514;" 
d="M910 286h-464v514h29v-485h435v-29z" />
    <glyph glyph-name="SF080000" unicode="&#x251c;" 
d="M920 286h-445v-486h-29v1000h29v-485h445v-29z" />
    <glyph glyph-name="SF060000" unicode="&#x252c;" 
d="M920 286h-445v-486h-29v486h-446v29h920v-29z" />
    <glyph glyph-name="SF090000" unicode="&#x2524;" 
d="M475 -200h-29v486h-446v29h446v485h29v-1000z" />
    <glyph glyph-name="SF070000" unicode="&#x2534;" 
d="M920 286h-920v29h446v485h29v-485h445v-29z" />
    <glyph glyph-name="SF050000" unicode="&#x253c;" 
d="M920 285h-445v-485h-29v485h-446v29h446v486h29v-486h445v-29z" />
    <glyph glyph-name="uni2501" unicode="&#x2501;" 
d="M920 271h-920v54h920v-54z" />
    <glyph glyph-name="uni2503" unicode="&#x2503;" 
d="M487 -200h-54v1000h54v-1000z" />
    <glyph glyph-name="uni250F" unicode="&#x250f;" 
d="M920 271h-433v-471h-54v525h487v-54z" />
    <glyph glyph-name="uni2513" unicode="&#x2513;" 
d="M487 -200h-54v471h-433v54h487v-525z" />
    <glyph glyph-name="uni251B" unicode="&#x251b;" 
d="M487 271h-487v54h433v475h54v-529z" />
    <glyph glyph-name="uni2517" unicode="&#x2517;" 
d="M920 271h-487v529h54v-475h433v-54z" />
    <glyph glyph-name="uni2523" unicode="&#x2523;" 
d="M920 271h-433v-471h-54v1000h54v-475h433v-54z" />
    <glyph glyph-name="uni2533" unicode="&#x2533;" 
d="M920 271h-433v-471h-54v471h-433v54h920v-54z" />
    <glyph glyph-name="uni252B" unicode="&#x252b;" 
d="M487 -200h-54v471h-433v54h433v475h54v-1000z" />
    <glyph glyph-name="uni253B" unicode="&#x253b;" 
d="M920 271h-920v54h433v475h54v-475h433v-54z" />
    <glyph glyph-name="uni254B" unicode="&#x254b;" 
d="M920 271h-433v-471h-54v471h-433v54h433v475h54v-475h433v-54z" />
    <glyph glyph-name="uni2520" unicode="&#x2520;" 
d="M920 282h-423v-482h-76v1000h76v-482h423v-36z" />
    <glyph glyph-name="uni252F" unicode="&#x252f;" 
d="M920 264h-441v-464h-38v464h-441v72h920v-72z" />
    <glyph glyph-name="uni2528" unicode="&#x2528;" 
d="M498 -200h-76v482h-422v36h422v482h76v-1000z" />
    <glyph glyph-name="uni2537" unicode="&#x2537;" 
d="M920 264h-920v72h441v464h38v-464h441v-72z" />
    <glyph glyph-name="uni253F" unicode="&#x253f;" 
d="M920 264h-441v-464h-38v464h-441v72h441v464h38v-464h441v-72z" />
    <glyph glyph-name="uni251D" unicode="&#x251d;" 
d="M920 264h-441v-464h-38v1000h38v-464h441v-72z" />
    <glyph glyph-name="uni2530" unicode="&#x2530;" 
d="M920 282h-422v-482h-76v482h-422v36h920v-36z" />
    <glyph glyph-name="uni2525" unicode="&#x2525;" 
d="M479 -200h-38v464h-441v72h441v464h38v-1000z" />
    <glyph glyph-name="uni2538" unicode="&#x2538;" 
d="M920 282h-920v36h422v482h76v-482h422v-36z" />
    <glyph glyph-name="uni2542" unicode="&#x2542;" 
d="M920 282h-422v-482h-76v482h-422v36h422v482h76v-482h422v-36z" />
    <glyph glyph-name="uni2512" unicode="&#x2512;" 
d="M498 -200h-76v482h-422v36h498v-518z" />
    <glyph glyph-name="uni2511" unicode="&#x2511;" 
d="M479 -200h-38v464h-441v72h479v-536z" />
    <glyph glyph-name="uni251A" unicode="&#x251a;" 
d="M498 282h-498v36h422v482h76v-518z" />
    <glyph glyph-name="uni2519" unicode="&#x2519;" 
d="M479 264h-479v72h441v464h38v-536z" />
    <glyph glyph-name="uni2516" unicode="&#x2516;" 
d="M920 282h-498v518h76v-482h422v-36z" />
    <glyph glyph-name="uni2515" unicode="&#x2515;" 
d="M920 264h-479v536h38v-464h441v-72z" />
    <glyph glyph-name="uni250E" unicode="&#x250e;" 
d="M920 282h-422v-482h-76v518h498v-36z" />
    <glyph glyph-name="uni250D" unicode="&#x250d;" 
d="M920 264h-441v-464h-38v536h479v-72z" />
    <glyph glyph-name="uni251E" unicode="&#x251e;" 
d="M920 282h-442l1 -482h-38v500h-19v500h76v-482h422v-36z" />
    <glyph glyph-name="uni251F" unicode="&#x251f;" 
d="M920 282h-422v-482h-76v500h19v500h38v-482h441v-36z" />
    <glyph glyph-name="uni2521" unicode="&#x2521;" 
d="M920 264h-441v-464h-38v500h-19v500h76v-464h422v-72z" />
    <glyph glyph-name="uni2522" unicode="&#x2522;" 
d="M920 264h-422v-464h-76v500h19v500h38v-464h441v-72z" />
    <glyph glyph-name="uni2526" unicode="&#x2526;" 
d="M498 300h-19v-500h-38v482h-441v36h422v482h76v-500z" />
    <glyph glyph-name="uni2527" unicode="&#x2527;" 
d="M498 -200h-76v482h-422v36h441v482h38v-500h19v-500z" />
    <glyph glyph-name="uni2529" unicode="&#x2529;" 
d="M498 300h-19v-500h-38v464h-441v72h422v464h76v-500z" />
    <glyph glyph-name="uni252A" unicode="&#x252a;" 
d="M498 -200h-76v464h-422v72h441v464h38v-500h19v-500z" />
    <glyph glyph-name="uni252D" unicode="&#x252d;" 
d="M920 282h-441v-482h-38v464h-441v72h460v-18h460v-36z" />
    <glyph glyph-name="uni252E" unicode="&#x252e;" 
d="M920 264h-441v-464h-38v482h-441v36h460v18h460v-72z" />
    <glyph glyph-name="uni2531" unicode="&#x2531;" 
d="M920 282h-422v-482h-76v464h-422v72h460v-18h460v-36z" />
    <glyph glyph-name="uni2532" unicode="&#x2532;" 
d="M920 264h-422v-464h-76v482h-422v36h460v18h460v-72z" />
    <glyph glyph-name="uni2535" unicode="&#x2535;" 
d="M920 282h-460v-18h-460v72h441v464h38v-482h441v-36z" />
    <glyph glyph-name="uni2536" unicode="&#x2536;" 
d="M920 264h-460v18h-460v36h441v482h38v-464h441v-72z" />
    <glyph glyph-name="uni2539" unicode="&#x2539;" 
d="M920 282h-460v-18h-460v72h422v464h76v-482h422v-36z" />
    <glyph glyph-name="uni253A" unicode="&#x253a;" 
d="M920 264h-460v18h-460v36h422v482h76v-464h422v-72z" />
    <glyph glyph-name="uni253D" unicode="&#x253d;" 
d="M920 282h-441v-482h-38v464h-441v76h441v460h38v-482h441v-36z" />
    <glyph glyph-name="uni253E" unicode="&#x253e;" 
d="M920 264h-441v-464h-38v482h-441v36h441v482h38v-464h441v-72z" />
    <glyph glyph-name="uni2540" unicode="&#x2540;" 
d="M920 282h-441v-482h-38v482h-441v36h422v482h76v-482h422v-36z" />
    <glyph glyph-name="uni2541" unicode="&#x2541;" 
d="M920 282h-422v-482h-76v482h-422v36h441v482h38v-482h441v-36z" />
    <glyph glyph-name="uni2543" unicode="&#x2543;" 
d="M920 282h-441v-482h-38v464h-441v72h422v464h76v-482h422v-36z" />
    <glyph glyph-name="uni2544" unicode="&#x2544;" 
d="M920 264h-441v-464h-38v482h-441v36h422v482h76v-464h422v-72z" />
    <glyph glyph-name="uni2545" unicode="&#x2545;" 
d="M920 282h-422v-482h-76v464h-422v72h441v464h38v-482h441v-36z" />
    <glyph glyph-name="uni2546" unicode="&#x2546;" 
d="M920 264h-422v-464h-76v482h-422v36h441v482h38v-464h441v-72z" />
    <glyph glyph-name="uni2547" unicode="&#x2547;" 
d="M920 264h-441v-464h-38v464h-441v72h422v464h76v-464h422v-72z" />
    <glyph glyph-name="uni2548" unicode="&#x2548;" 
d="M920 264h-422v-464h-76v464h-422v72h441v464h38v-464h441v-72z" />
    <glyph glyph-name="uni2549" unicode="&#x2549;" 
d="M920 282h-422v-482h-76v464h-422v72h422v464h76v-482h422v-36z" />
    <glyph glyph-name="uni254A" unicode="&#x254a;" 
d="M920 264h-422v-464h-76v482h-422v36h422v482h76v-464h422v-72z" />
    <glyph glyph-name="uni3395" unicode="&#x3395;" 
d="M742 108l61 -34q-28 -61 -59.5 -88t-73.5 -27h-5q-38 2 -62 23.5t-36 56.5q-12 -10 -28 -21t-33 -21l-19.5 31.5t-20.5 31.5l46.5 32.5t39.5 30.5q-2 25 -2 50v51q0 65 4.5 125t18.5 120q24 106 65 161t101 55t84.5 -43t24.5 -115q0 -45 -15 -102.5t-42.5 -117
t-66.5 -117t-86 -102.5q3 -23 11 -36.5t23 -15.5h4q17 0 35 21.5t31 50.5zM239 165q-4 -13 -8 -28.5t-4 -27.5q2 -32 36 -32q15 0 30 10t27.5 24.5t22.5 30.5t16 29q6 12 11.5 26.5l10.5 26.5l44 137l81 -25l-65 -212q-9 -30 -9 -45q0 -21 18 -21h4l-10 -33.5l-10 -33.5
q-5 -1 -14 -1q-28 0 -46.5 15t-18.5 49v4q-23 -30 -53 -48.5t-61 -18.5q-17 0 -30.5 6.5t-21.5 22.5l-18 -56l-22 -75.5t-17 -74.5h-87q4 29 13 68t25 88l64 195l64 196q21 -6 41.5 -12.5l40.5 -12.5zM634 201q27 34 49.5 74t39 82t26 82.5t9.5 75.5q0 44 -7 61.5t-19 17.5
q-17 0 -36.5 -37t-32.5 -94q-14 -60 -20.5 -128.5t-8.5 -133.5z" />
    <glyph glyph-name="uni3396" unicode="&#x3396;" 
d="M66 354q0 43 -1.5 72.5t-3.5 61.5h82l3 -52h2q17 29 41.5 43.5t49.5 14.5q30 0 52 -13t35 -48h2q8 14 19 26.5t23 20.5t25.5 11t24.5 3q55 0 76.5 -43t21.5 -122v-350h-92v353q0 16 -1 31.5t-5 27.5t-12 19.5t-21 7.5q-16 0 -27.5 -15.5t-17.5 -44.5q-4 -17 -4 -45v-334
h-91v359q0 13 -1 27.5t-5 26t-12 19t-23 7.5q-13 0 -27 -14t-19 -52q-1 -8 -1 -18.5v-21.5v-333h-93v375zM798 108l59 -34q-27 -61 -57.5 -88t-71.5 -27h-5q-38 2 -61 23.5t-34 56.5q-12 -10 -27 -21t-32 -21l-39 63l45.5 32.5t37.5 30.5q-2 25 -2 50v51q0 65 5 125t18 120
q23 106 63 161t98 55t81.5 -43.5t23.5 -114.5q0 -45 -14.5 -102.5t-41 -117t-64 -117t-83.5 -102.5q2 -23 10 -37t22 -16h3q18 0 35.5 22t30.5 51zM693 201q25 34 47 74t38.5 82t25.5 82.5t9 75.5q0 44 -7 61.5t-18 17.5q-17 0 -35.5 -37t-30.5 -94q-14 -60 -20.5 -128.5
t-8.5 -133.5z" />
    <glyph glyph-name="uni3397" unicode="&#x3397;" 
d="M437 671v-568q0 -8 0.5 -15.5t0.5 -15.5l3 -93h-79l-7 58h-3q-11 -26 -37.5 -46t-63.5 -20q-67 0 -105.5 67t-38.5 182q0 64 12.5 111.5t33 78.5t47.5 46.5t56 15.5t51 -13t36 -42h2v254h92zM736 108l61 -34q-29 -61 -60 -88t-74 -27h-5q-39 2 -62.5 23.5t-35.5 56.5
q-11 -10 -27 -21t-33 -21q-11 16 -20 31.5t-20 31.5l46.5 32.5t39.5 30.5q-3 49 -3 101q1 65 5.5 125t18.5 120q23 106 64.5 161t101.5 55t84.5 -43t24.5 -115q0 -45 -15 -102.5t-43 -117t-66.5 -117t-85.5 -102.5q3 -23 11 -37t22 -16h3q18 0 36.5 22t31.5 51zM345 279
q0 8 -0.5 16t-1.5 16q-5 33 -21.5 57.5t-42.5 24.5q-22 0 -37 -14.5t-24.5 -38.5t-13.5 -55.5t-4 -65.5q0 -75 19 -123t57 -48q16 0 33.5 12t31.5 56q2 6 3 15.5t1 18.5v129zM627 201q27 34 49.5 74t39 82t26 82.5t9.5 75.5q0 44 -6.5 61.5t-18.5 17.5q-17 0 -36.5 -37
t-32.5 -94q-14 -60 -21 -128.5t-9 -133.5z" />
    <glyph glyph-name="afii61289" unicode="&#x2113;" horiz-adv-x="485" 
d="M303 115l61 -33q-29 -61 -60 -88.5t-74 -27.5h-5q-39 2 -62.5 24t-35.5 57q-11 -10 -27 -21.5t-33 -21.5q-11 16 -20 31.5t-20 32.5l46.5 31.5t39.5 31.5q-3 49 -3 100q1 66 5.5 126t18.5 120q23 106 64.5 161t101.5 55t84.5 -43.5t24.5 -114.5q0 -46 -15 -103
t-43 -116.5t-66.5 -117t-85.5 -102.5q3 -23 11 -37t22 -16h3q18 0 36.5 21.5t31.5 50.5zM194 208q27 34 49.5 74t39 82t26 82.5t9.5 75.5q0 44 -6.5 62t-18.5 18q-17 0 -36.5 -37t-32.5 -94q-14 -61 -21 -129.5t-9 -133.5z" />
    <glyph glyph-name="uni3398" unicode="&#x3398;" 
d="M710 115l61 -33q-28 -61 -59.5 -88.5t-73.5 -27.5h-5q-39 2 -62.5 24t-35.5 57q-12 -10 -28 -21.5t-33 -21.5l-40 64l46.5 31.5t39.5 31.5q-2 25 -2 50v50q0 66 4.5 126t18.5 120q24 106 65 161t101 55t84.5 -43.5t24.5 -114.5q0 -46 -15 -103t-42.5 -116.5t-66.5 -117
t-86 -102.5q3 -23 11 -37t23 -16h3q17 0 35.5 21.5t31.5 50.5zM193 255h2q7 18 13.5 33t14.5 29l90 171h106l-132 -214l141 -295h-108l-99 230l-28 -46v-184h-97v725h97v-449zM602 208q27 34 49.5 74t39 82t26 82.5t9.5 75.5q0 44 -7 62t-19 18q-17 0 -36.5 -37t-32.5 -94
q-14 -61 -20.5 -129.5t-8.5 -133.5z" />
    <glyph glyph-name="uni33C4" unicode="&#x33c4;" 
d="M769 -11q-13 -8 -34.5 -13t-50.5 -5q-88 0 -141 65.5t-53 192.5q0 56 14.5 104.5t41.5 84t66 56t88 20.5q23 0 43 -4.5t31 -10.5l-17 -79q-8 3 -22 7.5t-34 4.5q-29 0 -50 -15t-35.5 -40t-21.5 -58t-7 -69q0 -84 30.5 -130.5t84.5 -46.5q30 0 56 12zM428 -11
q-13 -8 -35.5 -13t-50.5 -5q-88 0 -141.5 65.5t-53.5 192.5q0 56 14.5 104.5t42 84t66.5 56t89 20.5q21 0 41 -4.5t31 -10.5l-16 -79l-22.5 7.5t-33.5 4.5q-29 0 -50 -15t-35 -40t-21 -58t-7 -69q0 -84 30 -130.5t84 -46.5q30 0 56 12z" />
    <glyph glyph-name="uni33A3" unicode="&#x33a3;" 
d="M793 527q7 -3 16 -5.5t18 -2.5q15 0 23 7.5t8 18.5q0 17 -13 23t-28 6h-5v40h3q13 0 25.5 5t12.5 18q0 21 -24 21q-8 0 -16 -1.5t-13 -6.5l-5 39q9 5 20.5 8t26.5 3q31 0 46.5 -16.5t15.5 -36.5q0 -34 -32 -48q17 -6 27.5 -20.5t10.5 -35.5q0 -25 -20 -45.5t-58 -20.5
q-15 0 -26 3t-18 7zM444 354v40.5t-0.5 33t-1 29.5t-0.5 31h70q2 -12 2.5 -24t1.5 -25h1q7 17 16.5 27.5t19.5 16.5q7 5 14.5 7t20.5 2q19 -1 33.5 -13.5t22.5 -42.5h2q7 14 15.5 26t16.5 19q9 7 19.5 10t18.5 3q23 0 37.5 -11t23 -32t11.5 -50.5t3 -65.5v-356h-77v333
q0 18 -1 37t-4 34.5t-8.5 25t-14.5 9.5q-11 0 -17 -14.5t-8 -37.5q-2 -12 -2 -25.5v-25.5v-336h-80v358q0 13 -0.5 27t-2.5 26t-6.5 20t-12.5 8q-24 0 -30 -58q-2 -11 -2 -22.5v-23.5v-335h-81v375zM51 354v40.5t-0.5 33t-1 29.5t-0.5 31h70q2 -12 2.5 -24t1.5 -25h1
q24 55 61 55q22 0 39 -11.5t27 -46.5h2q14 27 30 42.5t40 15.5q23 0 37.5 -11t23 -32t11.5 -50.5t3 -65.5v-356h-77v333q0 18 -1 37t-4 34.5t-8.5 25t-14.5 9.5q-11 0 -17 -14.5t-8 -37.5q-2 -12 -2 -25.5v-25.5v-336h-80v358q0 13 -0.5 27t-2.5 26t-6.5 20t-12.5 8
q-25 0 -30 -58q-2 -11 -2 -22.5v-23.5v-335h-81v375z" />
    <glyph glyph-name="uni33A4" unicode="&#x33a4;" 
d="M268 -14q-9 -5 -22 -8t-29 -3q-73 0 -117 63t-44 194q0 55 12 102.5t34.5 83t54.5 56t73 20.5q14 0 25.5 -3.5t17.5 -7.5l-14 -76q-5 2 -12 4.5t-17 2.5q-23 0 -38.5 -15.5t-26 -41t-15.5 -58.5t-5 -69q0 -84 21.5 -130t64.5 -46q6 0 13 0.5t15 4.5zM778 527
q7 -3 16 -5.5t18 -2.5q15 0 23 7.5t8 18.5q0 17 -13 23.5t-28 6.5h-5v39h3q13 0 25.5 5t12.5 19q0 20 -24 20q-8 0 -16 -1.5t-13 -6.5l-5 39q15 12 47 12q31 0 46.5 -17t15.5 -37q0 -34 -32 -48q17 -6 27.5 -20t10.5 -36q0 -24 -20 -45t-58 -21q-15 0 -26 3t-18 7zM320 354
q0 22 -0.5 40t-1.5 33.5t-1.5 30t-1.5 31.5h82l3 -52h1q17 29 41.5 43t49.5 14q30 0 52.5 -12.5t34.5 -47.5h2q20 33 40 46.5t52 13.5q29 0 48 -11t30 -32t15.5 -51t4.5 -68v-353h-92v330v38t-3.5 35t-11.5 26t-24 10q-15 0 -27.5 -14t-18.5 -46q-2 -8 -2.5 -19.5
t-0.5 -24.5v-335h-91v347v30t-3.5 30t-12 23.5t-24.5 9.5q-12 0 -27 -14t-20 -52q-1 -8 -1 -18.5v-21.5v-334h-92v375z" />
    <glyph glyph-name="uni33A5" unicode="&#x33a5;" 
d="M768 527q7 -3 15.5 -5.5t17.5 -2.5q15 0 23.5 7.5t8.5 18.5q0 17 -13.5 23.5t-28.5 6.5h-5v39h3q13 0 25.5 5t12.5 19q0 20 -24 20q-8 0 -15.5 -1.5t-12.5 -6.5l-5 39q15 12 46 12t46.5 -17t15.5 -37q0 -17 -8.5 -29t-22.5 -19q17 -6 27 -20t10 -36q0 -24 -20 -45
t-58 -21q-15 0 -25.5 3t-18.5 7zM70 343q0 42 -1 77.5t-3 67.5h92l5 -79h3q10 16 23.5 32.5t32 29t43 20.5t55.5 8q50 0 85.5 -27t52.5 -71h2q12 22 26.5 37.5t31.5 27.5q23 16 47 24.5t58 8.5q27 0 56 -10.5t53 -36t39.5 -67.5t15.5 -106v-300h-105v285q0 69 -24 107
t-75 38q-35 0 -60 -22.5t-36 -52.5q-4 -10 -5 -21.5t-1 -23.5v-310h-106v300q0 57 -22.5 93.5t-70.5 36.5q-38 0 -65 -25.5t-37 -56.5q-6 -21 -6 -44v-304h-104v364z" />
    <glyph glyph-name="uni33A6" unicode="&#x33a6;" 
d="M344 354q0 22 -0.5 39.5t-1.5 33t-1.5 30t-1.5 31.5h79l3 -52h1q17 29 42.5 43.5t51.5 14.5q30 0 52 -13t34 -48h2q9 14 20.5 27t23.5 20q12 8 25 11t25 3q56 0 77 -43t21 -122v-350h-89v352q0 16 -1 31.5t-5 28t-12.5 20t-22.5 7.5q-16 0 -29.5 -15t-20.5 -48
q-2 -8 -2 -18v-24v-334h-87v358q0 13 -1 27.5t-5.5 26.5t-13 19.5t-24.5 7.5q-13 0 -28.5 -14t-20.5 -52q-1 -8 -1 -18.5v-21.5v-333h-89v375zM138 253h3q5 20 9 34.5t9 28.5q17 43 32 86t32 86h88l-96 -217l97 -292h-91l-33 113.5l-32 113.5l-18 -42v-185h-87v715h87v-441z
M782 487l5 40q7 -3 16 -5.5t18 -2.5q15 0 23 7.5t8 18.5q0 17 -13 23t-28 6h-5v40h3q13 0 25.5 5t12.5 18q0 21 -24 21q-8 0 -16 -1.5t-13 -6.5l-5 39q7 5 19.5 8t27.5 3q31 0 46.5 -16.5t15.5 -36.5q0 -34 -32 -48q17 -6 27.5 -20.5t10.5 -35.5q0 -25 -20 -45.5t-58 -20.5
q-15 0 -26 3t-18 7z" />
    <glyph glyph-name="uni3399" unicode="&#x3399;" 
d="M173 -21v444h-64v65h64v30q0 38 7.5 75t34.5 67q20 23 46.5 33t52.5 10q22 0 38 -3t27 -8l-16 -72q-7 2 -16.5 4t-21.5 2q-18 0 -29.5 -9t-18.5 -24t-9.5 -34.5t-2.5 -40.5v-30h80v-65h-81v-444h-91zM392 354q0 22 -0.5 40t-1.5 33.5t-1.5 30t-1.5 31.5h82l3 -52h1
q17 29 41.5 43t49.5 14q30 0 52.5 -12.5t34.5 -47.5h2q8 14 20 27.5t23 21.5q12 7 25 9t24 2q29 0 48 -11t30 -32t15.5 -51t4.5 -68v-353h-92v330v38t-3.5 35t-11.5 26t-24 10q-15 0 -27.5 -14t-18.5 -46q-2 -8 -2.5 -19.5t-0.5 -24.5v-335h-91v347v30t-3.5 30t-12 23.5
t-24.5 9.5q-12 0 -27 -14t-20 -52q-1 -8 -1 -18.5v-21.5v-334h-92v375z" />
    <glyph glyph-name="uni339A" unicode="&#x339a;" 
d="M449 356q0 22 -0.5 39.5t-1 32.5l-1 29t-1.5 31h77q2 -11 2 -23t1 -23h1q16 28 38 39.5t39 11.5q26 0 45.5 -12t31.5 -41h2q16 27 35 40q17 13 40 13q28 0 45 -11t26 -31.5t11.5 -48.5t2.5 -61v-362h-87v339q0 45 -4 73.5t-24 28.5q-22 0 -31 -36q-3 -12 -5.5 -29.5
t-2.5 -36.5v-339h-84v356q0 16 -1 31.5t-4 27.5t-9.5 19.5t-16.5 7.5q-8 0 -16.5 -10t-13.5 -33q-2 -11 -4 -25.5t-2 -33.5v-340h-88v377zM91 354q0 43 -1.5 72t-2.5 62h78l6 -52h1q18 30 43 44.5t55 14.5q32 0 52.5 -15t32.5 -38.5t16.5 -52.5t4.5 -58v-352h-93v341
q0 15 -1.5 32.5t-6 31.5t-13.5 23.5t-25 9.5q-14 0 -29 -14.5t-22 -48.5q-4 -19 -4 -52v-323h-91v375z" />
    <glyph glyph-name="uni339B" unicode="&#x339b;" 
d="M481 356q0 22 -0.5 39.5t-1 32.5l-1 29t-1.5 31h77q2 -11 2 -23t1 -23h1q16 28 38 39.5t39 11.5q26 0 46 -10.5t31 -42.5h2q6 13 17 26.5t22 19.5q9 5 19.5 6t16.5 1q28 0 45 -11t26 -31.5t11.5 -48.5t2.5 -61v-362h-87v339q0 11 0.5 23.5t0.5 24.5q0 22 -5 38t-24 16
q-11 0 -21.5 -12.5t-15.5 -44.5q-2 -8 -2 -19.5v-25.5v-339h-84v356q0 3 -0.5 12t-0.5 25q0 18 -5 33.5t-25 15.5q-4 0 -9.5 -2t-10.5 -9t-9.5 -19t-5.5 -32q-1 -8 -1 -18.5v-21.5v-340h-88v377zM203 165q-4 -12 -7.5 -26.5t-3.5 -25.5v-4q0 -32 31 -32q14 0 28 10t26.5 24
t22.5 30.5t16 28.5t11.5 26.5l10.5 26.5l22 69l22 69l81 -25l-65 -212q-10 -29 -10 -45q0 -21 18 -21h4l-10 -33.5l-10 -33.5q-5 -1 -13 -1q-28 0 -46.5 15t-18.5 49v4h-1q-22 -30 -51.5 -48.5t-58.5 -18.5q-15 0 -27.5 6.5t-20.5 22.5l-18 -56l-22 -75.5t-17 -74.5h-87
q7 56 38 156l129 391l81 -25z" />
    <glyph glyph-name="uni339C" unicode="&#x339c;" 
d="M51 356q0 22 -0.5 39.5t-1 32.5t-1.5 29t-1 31h77q1 -11 1 -23t2 -23h1q16 28 38 39.5t39 11.5q26 0 45.5 -10.5t31.5 -42.5h2q14 26 34 40q19 13 41 13q28 0 44.5 -11t25.5 -31.5t11.5 -48.5t2.5 -61v-362h-86v339q0 45 -4.5 73.5t-24.5 28.5q-9 0 -17.5 -8.5
t-13.5 -27.5q-3 -12 -5.5 -29.5t-2.5 -36.5v-339h-84v367q-1 32 -6 53.5t-25 21.5q-8 0 -16.5 -10t-13.5 -33t-5 -59v-340h-88v377zM488 356q0 22 -0.5 39.5t-1 32.5l-1 29t-1.5 31h77q2 -11 2 -23t1 -23h1q16 28 38 39.5t39 11.5q26 0 46 -10.5t31 -42.5h2q16 27 35 40
q17 13 40 13q28 0 45 -11t26 -31.5t11.5 -48.5t2.5 -61v-362h-87v339q0 45 -4 73.5t-24 28.5q-22 0 -31 -36q-3 -12 -5.5 -29.5t-2.5 -36.5v-339h-84v356q0 7 -0.5 21.5t-3 29t-9 25t-18.5 10.5q-8 0 -16.5 -10t-13.5 -33q-2 -11 -4 -25.5t-2 -33.5v-340h-88v377z" />
    <glyph glyph-name="uni339D" unicode="&#x339d;" 
d="M334 -11q-13 -8 -34.5 -13t-50.5 -5q-88 0 -141.5 65.5t-53.5 192.5q0 56 14.5 104.5t42 84t66.5 56t88 20.5q23 0 42.5 -4.5t30.5 -10.5l-16 -79l-22.5 7.5t-33.5 4.5q-29 0 -50 -15t-35.5 -40t-21.5 -58t-7 -69q0 -84 30.5 -130.5t83.5 -46.5q31 0 57 12zM385 354
q0 44 -2 72.5t-3 61.5h82l3 -52h1q17 29 43 44t52 15q31 0 53.5 -13.5t35.5 -48.5h2q9 14 21 28t23 22q13 7 26 9.5t25 2.5q58 0 80 -43.5t22 -122.5v-350h-92v329v38t-3.5 36t-12.5 26.5t-26 10.5t-30 -15.5t-20 -48.5q-3 -15 -3 -41v-335h-90v345v30.5t-4 31t-13 24
t-27 9.5q-14 0 -29.5 -14.5t-20.5 -52.5q-1 -8 -1 -18.5v-21.5v-333h-92v375z" />
    <glyph glyph-name="uni339E" unicode="&#x339e;" 
d="M382 354q0 22 -0.5 39.5t-1.5 33t-1.5 30t-1.5 31.5h79l3 -52h1q17 29 42.5 43.5t51.5 14.5q30 0 52 -13t34 -48h2q9 14 20.5 27.5t22.5 21.5q13 7 26 9.5t25 2.5q56 0 77 -43t21 -122v-350h-89v352q0 16 -1 31.5t-5 28t-12.5 20t-22.5 7.5q-16 0 -29.5 -15t-20.5 -48
q-2 -8 -2 -18v-24v-334h-87v358q0 13 -1 27.5t-5.5 26.5t-13 19.5t-24.5 7.5q-13 0 -28.5 -14t-20.5 -52q-1 -8 -1 -18.5v-21.5v-333h-89v375zM174 253h3l8.5 34.5t9.5 28.5l63 172h89l-96 -217l48 -146.5l49 -145.5h-92l-32.5 113.5l-32.5 113.5q-4 -11 -8.5 -21t-8.5 -21
v-185h-88v715h88v-441z" />
    <glyph glyph-name="uni339F" unicode="&#x339f;" 
d="M51 354v40.5t-0.5 33t-1 29.5t-0.5 31h70q2 -12 2.5 -24t1.5 -25h1q24 55 61 55q22 0 39 -11.5t27 -46.5h2q7 14 15.5 26t16.5 19q9 7 19.5 10t18.5 3q23 0 37.5 -11t23 -32t11.5 -50.5t3 -65.5v-356h-77v333q0 18 -1 37t-4 34.5t-8.5 25t-14.5 9.5q-11 0 -17 -14.5
t-8 -37.5q-2 -12 -2 -25.5v-25.5v-336h-80v358q0 13 -0.5 27t-2.5 26t-6.5 20t-12.5 8q-25 0 -30 -58q-2 -11 -2 -22.5v-23.5v-335h-81v375zM444 354v40.5t-0.5 33t-1 29.5t-0.5 31h70q2 -12 2.5 -24t1.5 -25h1q7 17 16.5 27.5t19.5 16.5q13 9 28 9h7q19 -1 33.5 -13.5
t22.5 -42.5h2q7 14 15.5 26t16.5 19q9 7 19.5 10t18.5 3q23 0 37.5 -11t23 -32t11.5 -50.5t3 -65.5v-356h-77v333q0 18 -1 37t-4 34.5t-8.5 25t-14.5 9.5q-11 0 -17 -14.5t-8 -37.5q-2 -12 -2 -25.5v-25.5v-336h-80v358q0 13 -0.5 27t-2.5 26t-6.5 20t-12.5 8q-25 0 -30 -58
q-2 -11 -2 -22.5v-23.5v-335h-81v375zM783 479v36l24 28q22 28 35.5 48.5t13.5 40.5q0 11 -7 18.5t-20 7.5q-10 0 -18.5 -2.5t-15.5 -6.5l-7 39q9 5 22.5 8.5t28.5 3.5q12 0 21 -3q27 -5 37 -23.5t10 -38.5q0 -30 -15.5 -53t-35.5 -42l-10 -13v-2h63v-46h-126z" />
    <glyph glyph-name="uni33A0" unicode="&#x33a0;" 
d="M761 479v37l25 27l35 49.5t14 40.5q0 11 -7.5 18t-20.5 7q-9 0 -17.5 -2.5t-15.5 -6.5l-8 39q21 13 51 13q20 0 33 -6t21 -15t11 -20.5t3 -23.5q0 -31 -15 -54t-35 -42l-11 -13v-2h63v-46h-126zM268 -14q-9 -5 -22 -8t-29 -3q-73 0 -117 63t-44 194q0 55 12 102.5
t34.5 83t54.5 56t73 20.5q14 0 26 -3.5t17 -7.5l-14 -76q-5 2 -12 4.5t-17 2.5q-23 0 -38.5 -15.5t-26 -41t-15.5 -58.5t-5 -69q0 -84 21.5 -130t64.5 -46q6 0 13 0.5t15 4.5zM320 354q0 22 -0.5 40t-1.5 33.5t-1.5 30t-1.5 31.5h82l3 -52h1q17 29 41.5 43t49.5 14
q30 0 52.5 -12.5t34.5 -47.5h2q8 14 20 28t23 21q12 8 25 9.5t24 1.5q29 0 48 -11t30 -32t15.5 -51t4.5 -68v-353h-92v330v38t-3.5 35t-11.5 26t-24 10q-15 0 -27.5 -14t-18.5 -46q-2 -8 -2.5 -19.5t-0.5 -24.5v-335h-91v347v30t-3.5 30t-12 23.5t-24.5 9.5q-12 0 -27 -14
t-20 -52q-1 -8 -1 -18.5v-21.5v-334h-92v375z" />
    <glyph glyph-name="uni33A1" unicode="&#x33a1;" 
d="M757 479v37l24 27q22 29 36 49.5t14 40.5q0 11 -7.5 18t-20.5 7q-10 0 -18 -2.5t-15 -6.5l-8 39q19 13 51 13q20 0 33 -6t21 -15t11 -20.5t3 -23.5q0 -31 -15.5 -54t-34.5 -42l-11 -13v-2h63v-46h-126zM70 343q0 42 -1 77.5t-3 67.5h92l5 -79h3q10 16 23.5 32.5t32 29
t43 20.5t55.5 8q50 0 85.5 -27t52.5 -71h2q12 22 26.5 38t31.5 28q23 16 47 24t58 8q27 0 56 -10.5t53 -36t39.5 -67.5t15.5 -106v-300h-105v285q0 69 -24 107t-75 38q-35 0 -60 -22.5t-36 -52.5q-4 -10 -5 -21.5t-1 -23.5v-310h-106v300q0 57 -22.5 93.5t-70.5 36.5
q-38 0 -65 -25.5t-37 -56.5q-6 -21 -6 -44v-304h-104v364z" />
    <glyph glyph-name="uni33A2" unicode="&#x33a2;" 
d="M344 354q0 22 -0.5 39.5t-1.5 33t-1.5 30t-1.5 31.5h79l3 -52h1q17 29 42.5 43.5t51.5 14.5q30 0 52 -13t34 -48h2q9 14 20.5 27t23.5 20q12 8 25 11t25 3q56 0 77 -43t21 -122v-350h-89v352q0 16 -1 31.5t-5 28t-12.5 20t-22.5 7.5q-16 0 -29.5 -15t-20.5 -48
q-2 -8 -2 -18v-24v-334h-87v358q0 13 -1 27.5t-5.5 26.5t-13 19.5t-24.5 7.5q-13 0 -28.5 -14t-20.5 -52q-1 -8 -1 -18.5v-21.5v-333h-89v375zM138 253h3q5 20 9 34.5t9 28.5q17 43 32 86t32 86h88l-96 -217l97 -292h-91l-33 113.5l-32 113.5l-18 -42v-185h-87v715h87v-441z
M778 479v36l24 28q22 28 35.5 48.5t13.5 40.5q0 11 -7 18.5t-20 7.5q-10 0 -18.5 -2.5t-15.5 -6.5l-7 39q9 5 22.5 8.5t28.5 3.5q12 0 21 -3q27 -5 37 -23.5t10 -38.5q0 -30 -15.5 -53t-35.5 -42l-10 -13v-2h63v-46h-126z" />
    <glyph glyph-name="uni33CA" unicode="&#x33ca;" 
d="M721 240q-9 0 -26 -3.5t-34 -14.5t-30 -33t-13 -60q0 -48 17 -66.5t32 -18.5q16 0 30 13.5t21 48.5q1 6 2 13t1 15v106zM812 93q0 -29 1 -59t5 -55h-84l-5 48h-2q-17 -29 -39 -42t-47 -13q-22 0 -42.5 10t-36 28.5t-24.5 46t-9 63.5q0 49 17.5 83.5t45 56.5t61 32.5
t65.5 11.5v16q0 53 -16.5 77t-48.5 24q-23 0 -40 -6t-34 -17l-17 66q13 9 43.5 20t68.5 11q77 0 107.5 -49t30.5 -134v-219zM189 701h93v-254h2q8 11 16.5 20.5t18.5 16.5q11 8 25.5 11.5t32.5 3.5q55 0 78.5 -45.5t23.5 -130.5v-340h-94v335q0 19 -1.5 37.5t-6.5 32.5
t-13.5 23t-23.5 9q-19 0 -33.5 -15t-22.5 -52q-1 -7 -1.5 -18t-0.5 -19v-333h-93v718z" />
    <glyph glyph-name="uni338D" unicode="&#x338d;" 
d="M809 47q0 -42 -2.5 -73t-8 -53.5t-13.5 -39t-18 -28.5q-18 -22 -46 -37t-73 -15q-26 0 -47.5 4.5t-38.5 11.5l18 71q13 -5 29 -8.5t37 -3.5q40 0 56.5 32t16.5 89v25h-2q-8 -23 -26.5 -34t-35.5 -11q-32 0 -54.5 19.5t-36.5 53.5t-21 79.5t-7 96.5q0 72 11.5 122t29.5 82
t41 46.5t46 14.5t37 -16t25 -37h2l5 46h82q-2 -31 -4 -70.5t-2 -96.5v-270zM285 341l-24 -88l-25 -88q-4 -12 -7 -26t-3 -25q0 -17 8.5 -27.5t28.5 -10.5q15 0 29 9.5t26 23.5t21.5 30t15.5 29q5 11 10.5 25.5t9.5 26.5l40 141l84 -20l-51 -191q-5 -16 -10.5 -36t-5.5 -34
q0 -23 22 -21l-20 -68q-8 -1 -14.5 -1.5t-14.5 1.5q-22 3 -36.5 18.5t-14.5 48.5q-21 -30 -50.5 -48.5t-59.5 -18.5q-17 0 -31 6.5t-23 22.5l-8 -28.5t-7 -27.5q-10 -35 -19.5 -75t-14.5 -75h-86q3 56 31 156l57.5 195l57.5 196zM721 320q0 8 -1 23t-5.5 30t-12.5 26t-23 11
q-16 0 -26 -14t-16 -38.5t-8.5 -57.5t-2.5 -70q0 -50 5 -84t13 -54.5t17.5 -29.5t17.5 -9q17 0 29.5 26.5t12.5 64.5v176z" />
    <glyph glyph-name="uni338E" unicode="&#x338e;" 
d="M742 320q0 17 -5 37q-2 7 -3.5 16t-5.5 17.5t-10.5 14t-16.5 5.5q-16 0 -26.5 -14t-16.5 -38.5t-8.5 -57t-2.5 -69.5q0 -50 5.5 -84t13.5 -55t17 -30t17 -9q3 0 7 0.5t9 4.5t10 14t10 28q4 12 5 22.5t1 21.5v176zM831 47q0 -42 -3 -73.5t-8 -54t-13 -38.5t-18 -28
q-18 -23 -46.5 -37.5t-73.5 -14.5q-26 0 -47.5 4t-38.5 11l19 72q12 -5 28 -8.5t38 -3.5q40 0 56 32t16 88v26h-2q-8 -24 -26.5 -35t-35.5 -11q-31 0 -53.5 20t-37 54t-21.5 79.5t-7 97.5q0 71 11.5 121.5t29.5 82t41 46t46 14.5t37.5 -16t25.5 -37h2l4 47h83q-2 -31 -4 -71
t-2 -97v-270zM63 354q0 44 -1.5 72.5t-2.5 61.5h81l4 -52h1q17 29 41.5 44t50.5 15q29 0 51 -13.5t35 -48.5h2q9 14 20 27t22 21q12 8 25.5 11t24.5 3q56 0 77 -43.5t21 -122.5v-350h-91v329v38t-3.5 36t-12 26.5t-24.5 10.5t-27.5 -16t-17.5 -45q-4 -17 -4 -44v-335h-90
v345q0 14 -0.5 30.5t-4 31t-12 24t-24.5 9.5q-13 0 -27.5 -14.5t-19.5 -52.5q-1 -8 -1 -18.5v-21.5v-333h-93v375z" />
    <glyph glyph-name="uni338F" unicode="&#x338f;" 
d="M784 48q0 -83 -11.5 -126.5t-32.5 -68.5q-20 -23 -49.5 -38t-74.5 -15q-27 0 -50 5t-42 13l19 71q14 -5 31.5 -9.5t40.5 -4.5q42 0 60.5 33t18.5 90v27h-2q-10 -25 -29.5 -36.5t-39.5 -11.5q-33 0 -56.5 20t-39 53.5t-23 79t-7.5 96.5q0 71 12 121t31 82t43.5 47t48.5 15
q26 0 42 -16.5t27 -39.5h2l5 49h82q-2 -31 -4 -70t-2 -95v-271zM257 255h2q7 18 13.5 33t14.5 29l89 171h106l-65 -107l-66 -107l141 -295h-109l-99 230l-27 -46v-184h-98v725h98v-449zM695 290v19t-1 17q-1 15 -3.5 30t-7.5 27t-13.5 20t-21.5 8q-17 0 -28.5 -14t-18.5 -39
t-10 -58t-3 -70q0 -49 5.5 -83t14 -55t19 -30.5t20.5 -9.5q17 0 30.5 20.5t16.5 62.5q1 4 1 12v143z" />
    <glyph glyph-name="uni33CF" unicode="&#x33cf;" 
d="M686 612v-124h97v-71h-97v-282q0 -49 15 -64.5t37 -15.5q19 0 33 3l4 -76q-24 -9 -68 -9q-26 0 -48 7t-37 24q-18 18 -26.5 48t-8.5 86v279h-61v71h61v88zM263 256h2l117 232h106l-131 -214l141 -295h-109l-99 230l-27 -46v-184h-98v726h98v-449z" />
    <glyph glyph-name="uni3388" unicode="&#x3388;" 
d="M717 698h94v-719h-94v719zM546 240q-11 0 -29.5 -3.5t-36.5 -14.5t-31.5 -33t-13.5 -60q0 -24 5 -40.5t13 -26t16.5 -14t16.5 -4.5q19 0 34.5 14t22.5 49q1 6 2 13t1 15v105zM638 93q0 -28 1 -58.5t5 -55.5h-84l-5 49h-2q-38 -56 -92 -56q-23 0 -44 10t-37 29t-25.5 46.5
t-9.5 62.5q0 49 18 83.5t46.5 56.5t64 32.5t70.5 11.5v16q0 51 -16.5 76.5t-53.5 25.5q-23 0 -41.5 -6.5t-36.5 -17.5l-18 65q15 10 47 21.5t71 11.5q40 0 67.5 -13.5t44 -38t23.5 -58.5t7 -76v-217zM306 -11q-23 -15 -68 -15q-80 0 -128 64t-48 193q0 56 13 104t38 83.5
t60.5 55.5t79.5 20q18 0 33.5 -3.5t23.5 -8.5l-15 -77q-6 2 -16.5 6t-25.5 4q-25 0 -43.5 -15.5t-30.5 -41t-18 -58.5t-6 -69q0 -85 25.5 -131.5t73.5 -46.5q11 0 21 2t21 7z" />
    <glyph glyph-name="uni3389" unicode="&#x3389;" 
d="M141 253h2q5 20 9 34.5t9 28.5l60 172h83l-90 -217l91 -292h-86l-30.5 113.5l-30.5 113.5q-5 -11 -9 -21l-8 -21v-185h-82v721h82v-447zM745 91v-57t4 -55h-74l-3 47h-3q-17 -29 -35 -41t-40 -12q-18 0 -35.5 9.5t-32 28t-23 46t-8.5 63.5q0 49 16.5 83.5t41 56.5
t53.5 32t54 11v17q0 56 -15 79t-42 23q-18 0 -32 -5.5t-30 -16.5l-8 32t-7 32q10 9 37 19.5t60 10.5q67 0 94.5 -47.5t27.5 -131.5v-224zM784 700h83v-721h-83v721zM476 59l9 -73q-9 -5 -21.5 -8t-26.5 -3q-69 0 -109 62.5t-40 193.5q0 55 11 103t31.5 83t50 55.5t67.5 20.5
q13 0 24.5 -3t16.5 -7l-13 -76q-4 2 -11 5t-16 3q-21 0 -36 -15.5t-24.5 -41.5t-14 -59.5t-4.5 -69.5q0 -84 19.5 -130t60.5 -46q5 0 11.5 0.5t14.5 5.5zM661 241q-5 -1 -19 -4t-29 -14t-26.5 -33t-11.5 -61q0 -25 4.5 -41.5t11 -26t14 -13.5t13.5 -4q11 0 23.5 12.5
t17.5 47.5q2 5 2 12v14v111z" />
    <glyph glyph-name="uni33C8" unicode="&#x33c8;" 
d="M591 52q10 -3 28 -3q53 0 84 33.5t31 96.5q0 33 -10 59t-26.5 43t-38 26.5t-45.5 9.5h-23v-265zM591 387h24q19 0 37 9t32.5 24.5t23 37.5t8.5 48q0 22 -4.5 42t-15 35t-28.5 24t-46 9q-18 0 -31 -5v-224zM498 675q49 13 115 13q42 0 82.5 -10.5t69.5 -39.5
q23 -23 33 -54.5t10 -66.5q0 -53 -26 -94.5t-76 -62.5v-3q63 -17 93 -65t30 -113q0 -84 -46 -138q-28 -34 -75 -50t-109 -16q-36 0 -60 1.5t-41 4.5v694zM311 299q0 8 0.5 15.5t-1.5 15.5q-1 33 -16 59t-36 26q-20 0 -32.5 -15.5t-20 -41t-10.5 -58.5t-3 -68
q0 -81 16 -131.5t47 -50.5q5 0 11.5 1.5t14 8t14.5 19.5t13 37q2 6 2.5 14t0.5 17v152zM404 698v-590q0 -13 0.5 -30l1 -34.5t1.5 -34.5t1 -30h-78l-7 55h-4q-9 -22 -31.5 -42t-55.5 -20q-65 0 -98.5 70.5t-33.5 191.5q0 68 11.5 117.5t30.5 81.5t43.5 47.5t50.5 15.5
q23 0 41.5 -13t31.5 -42h2v257h93z" />
    <glyph glyph-name="uni33A7" unicode="&#x33a7;" 
d="M70 357q0 22 -0.5 39.5t-1 32l-1 28.5t-1.5 31h76q1 -11 1.5 -22.5t2.5 -22.5h1q15 27 35.5 38.5t37.5 11.5q24 0 44 -9.5t31 -41.5h2q16 24 34 38q16 13 38 13q27 0 43 -11t24.5 -30.5t11 -47t2.5 -60.5v-365h-86v342q0 45 -4.5 72t-21.5 27q-18 0 -27 -31
q-3 -14 -5.5 -32t-2.5 -38v-340h-83v359q0 6 -1 9q-1 32 -5.5 52.5t-22.5 20.5q-8 0 -16 -8.5t-12 -32.5q-2 -11 -4 -25.5t-2 -33.5v-341h-87v378zM662 0l20 67q10 -6 25.5 -12.5t36.5 -6.5q23 0 40.5 15.5t17.5 48.5q0 23 -11 45t-41 48q-44 38 -63 72.5t-19 72.5
q0 32 10 58.5t27.5 45.5t41 29.5t49.5 10.5q25 0 42 -7.5t31 -15.5l-20 -70q-14 10 -25 14t-23 4q-26 0 -39.5 -17t-13.5 -39q0 -20 8.5 -37t37.5 -44q37 -32 62 -70.5t25 -84.5q0 -41 -12 -70t-31.5 -47t-45 -26.5t-51.5 -8.5q-20 0 -44 7t-35 18zM469 -63l165 755h64
l-167 -755h-62z" />
    <glyph glyph-name="uni33A8" unicode="&#x33a8;" 
d="M71 357q0 22 -0.5 39.5t-1 32l-1 28.5t-1.5 31h74q2 -11 2 -22t1 -22h1q14 26 36 37.5t37 11.5q25 0 44 -9.5t30 -41.5h2q11 20 28.5 35.5t41.5 15.5q28 0 44 -11t24.5 -31t10.5 -47.5t2 -59.5v-365h-85v342q0 48 -6 73.5t-21 25.5q-14 0 -20.5 -13.5t-9.5 -34.5
q-3 -24 -3 -53v-340h-83v368q-1 34 -6 53.5t-22 19.5q-22 0 -30 -57q-2 -10 -2 -21v-22v-341h-86v378zM659 0l20 67q10 -6 25.5 -12.5t36.5 -6.5q23 0 40.5 15.5t17.5 48.5q0 23 -11 45t-41 48q-44 38 -63 72.5t-19 72.5q0 32 10 58.5t27.5 45.5t41 29.5t49.5 10.5
q25 0 42 -7.5t31 -15.5l-20 -70q-14 10 -25 14t-23 4q-26 0 -39.5 -17t-13.5 -39q0 -20 8.5 -37t37.5 -44q37 -32 62 -70.5t25 -84.5q0 -41 -12 -70t-31.5 -47t-45 -26.5t-51.5 -8.5q-20 0 -44 7t-35 18zM462 -63l165 755h64l-83 -378l-83 -377h-63zM783 539v37l24 27
q23 28 36.5 49t13.5 41q0 11 -7.5 18t-20.5 7q-10 0 -18 -2.5t-15 -6.5l-8 39q19 13 51 13q6 0 11 -1l10 -2q27 -6 37 -24t10 -38q0 -31 -15.5 -53.5t-34.5 -42.5l-11 -13v-2h63v-46h-126z" />
    <glyph glyph-name="uni33B0" unicode="&#x33b0;" 
d="M548 76q16 -9 41 -18.5t54 -9.5q36 0 55.5 17.5t19.5 49.5q0 27 -15.5 47t-56.5 42q-58 32 -83.5 68t-25.5 77q0 32 11.5 59t31.5 47t48.5 31.5t63.5 11.5q33 0 58.5 -8t43.5 -19l-21 -73q-15 10 -34.5 17t-44.5 7q-32 0 -48.5 -18t-16.5 -42q0 -25 15 -41.5t55 -39.5
q53 -29 82 -66.5t29 -88.5q0 -38 -12.5 -66.5t-35 -47.5t-54 -29t-68.5 -10q-32 0 -63 8.5t-51 22.5zM229 165q0 -12 1 -23t3 -20q6 -22 14 -36t17 -21.5t18 -10.5t16 -3q23 0 39 15t25.5 40t13.5 58t4 69q0 38 -5 71t-15 57t-25.5 38t-36.5 14q-12 0 -22.5 -6.5
t-19.5 -17.5t-15.5 -25t-8.5 -29q-2 -9 -2.5 -18t-0.5 -20v-132zM131 328q0 55 -1 92.5t-3 67.5h87l4 -63h2q20 38 48 54.5t60 16.5q36 0 64 -18.5t47.5 -52.5t29.5 -82t10 -108q0 -71 -14 -121t-36.5 -82t-51 -47t-58.5 -15q-35 0 -56 17t-32 38h-2v-223h-98v526z" />
    <glyph glyph-name="uni33B1" unicode="&#x33b1;" 
d="M565 76q16 -10 41.5 -19t53.5 -9q36 0 55.5 17.5t19.5 48.5q0 27 -15.5 47t-55.5 43q-59 32 -84.5 67.5t-25.5 76.5q0 32 11.5 59t32 47t49 31.5t63.5 11.5q32 0 57.5 -7.5t44.5 -18.5l-22 -73q-14 9 -34 16t-44 7q-33 0 -49.5 -18t-16.5 -42q0 -25 15.5 -41.5
t54.5 -39.5q54 -29 82.5 -66.5t28.5 -88.5q0 -38 -12.5 -66.5t-35 -47.5t-53.5 -29t-68 -10q-32 0 -63.5 8t-51.5 22zM107 349q0 42 -1 74t-3 65h86l5 -66h2q19 32 51.5 53.5t80.5 21.5q30 0 55.5 -11t45 -34t30.5 -59t11 -86v-328h-100v318q0 22 -3.5 43.5t-12 38
t-23.5 26.5t-38 10q-29 0 -51 -20.5t-31 -55.5q-6 -17 -6 -45v-315h-98v370z" />
    <glyph glyph-name="uni33B2" unicode="&#x33b2;" 
d="M288 341l-24 -88l-25 -88q-4 -12 -7 -26t-3 -25q0 -17 8.5 -27.5t28.5 -10.5q15 0 29 9.5t26 23.5t21.5 30t15.5 29q5 11 10.5 25.5t9.5 26.5l40 141l84 -20l-51 -191q-5 -16 -10.5 -36t-5.5 -34q0 -23 22 -21l-20 -68q-8 -1 -14.5 -1.5t-14.5 1.5q-22 3 -36.5 18.5
t-14.5 48.5q-21 -30 -50.5 -48.5t-59.5 -18.5q-17 0 -31 6.5t-23 22.5l-8 -28.5t-7 -27.5q-10 -35 -19.5 -75t-14.5 -75h-86q3 56 31 156l57.5 195l57.5 196zM541 2q6 18 11 36.5t11 36.5q16 -9 41 -18.5t54 -9.5q36 0 55.5 17.5t19.5 49.5q0 27 -15.5 47t-56.5 42
q-58 32 -83.5 68t-25.5 77q0 32 11.5 59t31.5 47t48.5 31.5t63.5 11.5q33 0 58.5 -8t43.5 -19l-21 -73q-15 10 -34.5 17t-43.5 7q-33 0 -49.5 -18.5t-16.5 -41.5q0 -25 15 -41.5t55 -39.5q53 -29 82 -66.5t29 -88.5q0 -38 -12.5 -66.5t-35 -47.5t-54 -29t-68.5 -10
q-32 0 -63 8t-51 22z" />
    <glyph glyph-name="uni33B3" unicode="&#x33b3;" 
d="M603 75q14 -8 36.5 -17t48.5 -9q32 0 50.5 16.5t18.5 47.5q0 26 -13.5 46.5t-50.5 44.5q-54 33 -78 68.5t-24 76.5q0 32 11 59t30.5 46.5t47 30.5t59.5 11q31 0 54.5 -7.5t40.5 -17.5l-22 -73q-14 10 -31.5 16t-37.5 6q-31 0 -46 -17.5t-15 -40.5t12.5 -39.5t49.5 -40.5
q48 -30 76 -67.5t28 -88.5q0 -39 -12.5 -67.5t-34 -47.5t-51.5 -28.5t-64 -9.5q-29 0 -58 7.5t-47 21.5zM101 356q0 22 -0.5 39.5t-1 32.5t-1.5 29t-1 31h77l3 -47h1q17 29 39.5 41t40.5 12q27 0 47.5 -11t32.5 -44h2q13 24 31.5 39t47.5 16q28 0 45 -11t26.5 -31.5
t12.5 -49.5t3 -64v-359h-86v338q0 15 1 33.5t-1 34t-8.5 26t-22.5 10.5q-12 0 -24 -13.5t-17 -47.5q-2 -8 -2 -18v-24v-339h-84v355q0 11 1 26t-1 28.5t-9.5 23t-24.5 9.5q-4 0 -10 -2.5t-12 -9t-11 -19t-6 -32.5v-379h-88v377z" />
    <glyph glyph-name="uni33B4" unicode="&#x33b4;" 
d="M592 -21l-160 707h106l62 -323l24.5 -129t21.5 -135h3q8 67 20 135l24 131l60 321h105l-164 -707h-102zM215 157q0 -24 5 -44q6 -22 13 -34.5t14 -18.5t12.5 -7.5t8.5 -1.5q21 0 33.5 15.5t19.5 41t9.5 58t2.5 67.5q0 39 -3.5 72.5t-11.5 58t-20.5 38t-30.5 13.5t-32 -22
t-17 -48q-3 -18 -3 -40v-148zM123 332q0 56 -1 92t-3 64h82l4 -57h2q17 35 40 50t47 15q34 0 59 -18.5t41 -53t24 -83t8 -107.5q0 -71 -11.5 -120.5t-31 -81t-44.5 -46t-51 -14.5q-31 0 -47 16.5t-24 33.5h-2v-220h-92v530z" />
    <glyph glyph-name="uni33B5" unicode="&#x33b5;" 
d="M111 350q0 44 -1 75t-3 63h86l4 -60h2q18 30 50 49t75 19q61 0 97 -44.5t36 -135.5v-337h-99v325q0 21 -3 41t-11 35t-21.5 24.5t-34.5 9.5q-23 0 -44.5 -18.5t-29.5 -53.5q-2 -8 -3 -19.5t-1 -25.5v-318h-99v371zM599 -21l-160 707h106l62 -323l25 -129t21 -135h3
q8 67 20 135l24 131l61 321h105l-164 -707h-103z" />
    <glyph glyph-name="uni33B6" unicode="&#x33b6;" 
d="M600 -21l-79.5 353l-80.5 354h106l63 -324l24 -128.5t22 -134.5h3q8 67 19.5 134.5t23.5 130.5l30.5 161l30.5 161h105l-164 -707h-103zM271 341l-24 -88l-25 -88q-4 -12 -7 -26t-3 -25q0 -17 8.5 -27.5t28.5 -10.5q15 0 29 9.5t26 23.5t21.5 30t15.5 29q5 11 10.5 25.5
t9.5 26.5l40 141l84 -20l-51 -191q-5 -16 -10.5 -36t-5.5 -34q0 -23 22 -21l-20 -68q-8 -1 -14.5 -1.5t-14.5 1.5q-22 3 -36.5 18.5t-14.5 48.5q-21 -30 -50.5 -48.5t-59.5 -18.5q-17 0 -31 6.5t-23 22.5l-8 -28.5t-7 -27.5q-10 -35 -19.5 -75t-14.5 -75h-86q3 56 31 156
l57.5 195l57.5 196z" />
    <glyph glyph-name="uni33B7" unicode="&#x33b7;" 
d="M68 354q0 44 -1.5 72.5t-2.5 61.5h78l4 -52h1q17 29 42 44t51 15q30 0 52 -13.5t35 -48.5h2q8 14 20 27t23 20q12 8 25.5 11.5t24.5 3.5q57 0 77.5 -43.5t20.5 -122.5v-350h-88v329v38t-3.5 36t-12.5 26.5t-26 10.5q-16 0 -29 -15.5t-20 -48.5q-3 -15 -3 -41v-335h-87
v345v30.5t-4 31t-12.5 24t-26.5 9.5q-14 0 -29 -14.5t-20 -52.5q-1 -8 -1 -18.5v-21.5v-333h-90v375zM648 -21l-131 707h100l47 -319l9 -59l10 -66t9 -69.5t7 -69.5h3q5 69 14 138l17 129l42 316h100l-129 -707h-98z" />
    <glyph glyph-name="uni33B8" unicode="&#x33b8;" 
d="M613 -21l-138 707h100l51 -321l20.5 -126.5t17.5 -137.5h3q6 69 15.5 137l18.5 130l47 318h101l-138 -707h-98zM243 256h2q13 32 27 61l90 171h106l-131 -214l141 -295h-109l-99 230l-27 -46v-184h-98v726h98v-449z" />
    <glyph glyph-name="uni33B9" unicode="&#x33b9;" 
d="M656 -21l-121 707h98l43 -317l16 -126t14 -139h4q4 69 12 140l14 129l33 313h98l-116 -707h-95zM416 258q-4 60 -6.5 125t-0.5 117h-3l-17 -112.5t-18 -105.5l-60 -297h-56l-57 285q-12 54 -23.5 113.5t-19.5 116.5h-4q1 -56 -1.5 -118t-4.5 -127l-11 -276h-77l44 707h83
l57 -298q7 -36 14 -67.5l13 -60.5t11 -58l10 -59h3q3 31 7 59.5t9 57.5l10.5 60l11.5 68l51 298h87l41 -707h-80z" />
    <glyph glyph-name="uni3380" unicode="&#x3380;" 
d="M733 245l-24 167l-6.5 39t-6.5 43l-6 44.5t-6 42.5h-3q-5 -41 -12.5 -88.5t-12.5 -82.5l-27 -165h104zM620 170l-35 -191h-88l137 707h104l124 -707h-88l-33 191h-121zM226 165q0 -22 5 -44t13 -36t17 -21.5t18 -10t17 -2.5q23 0 38.5 15t25.5 40t14 58t4 69q0 38 -5 71
t-15 57t-25.5 38t-36.5 14q-24 0 -40.5 -20t-23.5 -49q-3 -11 -4.5 -23.5t-1.5 -23.5v-132zM128 328q0 55 -1 92.5t-3 67.5h87l5 -63h2q20 38 47.5 54.5t59.5 16.5q36 0 64 -18.5t47 -52.5t29 -82t10 -108q0 -71 -13.5 -121t-35.5 -82t-51 -47t-59 -15q-35 0 -56 17t-32 38
h-2v-223h-98v526z" />
    <glyph glyph-name="uni3381" unicode="&#x3381;" 
d="M90 350q0 44 -1.5 75t-2.5 63h85l5 -60h2q18 30 48 49t71 19q60 0 94 -44.5t34 -135.5v-337h-99v325q0 21 -2.5 41t-9.5 35t-20 24.5t-33 9.5q-22 0 -41 -18.5t-27 -53.5q-5 -18 -5 -45v-318h-98v371zM708 245l-24 167l-6.5 39t-6.5 43l-6 44.5t-6 42.5h-3
q-5 -41 -12.5 -88.5t-12.5 -82.5l-27 -165h104zM595 170l-35 -191h-88l137 707h104l124 -707h-88l-33 191h-121z" />
    <glyph glyph-name="uni3382" unicode="&#x3382;" 
d="M613 170l-34 -191h-88l137 707h103l125 -707h-88q-9 48 -17 95.5l-16 95.5h-122zM286 341l-24 -88l-25 -88q-4 -12 -7 -26t-3 -25q0 -17 8.5 -27.5t28.5 -10.5q15 0 29 9.5t26 23.5t21.5 30t15.5 29q5 11 10.5 25.5t9.5 26.5l40 141l84 -20l-51 -191q-5 -16 -10.5 -36
t-5.5 -34q0 -23 22 -21l-20 -68q-8 -1 -14.5 -1.5t-14.5 1.5q-22 3 -36.5 18.5t-14.5 48.5q-21 -30 -50.5 -48.5t-59.5 -18.5q-17 0 -31 6.5t-23 22.5l-8 -28.5t-7 -27.5q-10 -35 -19.5 -75t-14.5 -75h-86q3 56 31 156l57.5 195l57.5 196zM727 245q-7 42 -12 83t-12 83
l-25 169h-3q-5 -40 -12.5 -87.5l-13.5 -82.5l-26 -165h104z" />
    <glyph glyph-name="uni3383" unicode="&#x3383;" 
d="M85 356q0 43 -1.5 71.5t-2.5 60.5h77l3 -47h1q17 29 40 41t41 12q26 0 46.5 -11t32.5 -44h2q14 26 33.5 40.5t45.5 14.5q28 0 45.5 -11t27 -31.5t12.5 -49.5t3 -64v-359h-87v338q0 45 -5 74.5t-27 29.5q-11 0 -20 -10t-14 -30q-3 -12 -5.5 -28t-2.5 -35v-339h-84v355
q0 18 -0.5 33.5t-4 27.5t-10.5 19t-19 7q-10 0 -19 -10t-14 -33q-6 -23 -6 -60v-339h-88v377zM752 244l-21 163q-6 36 -12.5 83.5t-11.5 88.5h-3q-3 -20 -6 -43l-6 -46.5t-6.5 -45l-6.5 -39.5l-23 -161h96zM648 168l-32 -189h-88l129 707h104l116 -707h-88l-30 189h-111z
" />
    <glyph glyph-name="uni3384" unicode="&#x3384;" 
d="M591 170l-34 -191h-88l137 707h103l125 -707h-88l-33 191h-122zM233 254h2l23 63l77 171h97l-113 -216l118 -293h-99l-82 229l-23 -44v-185h-91v719h91v-444zM705 245l-24 167q-4 18 -7.5 39t-6.5 43t-5.5 44.5t-5.5 42.5h-3q-5 -41 -12.5 -88.5l-13.5 -82.5l-26 -165
h104z" />
    <glyph glyph-name="uni33BA" unicode="&#x33ba;" 
d="M456 -21l-105 707h92l39 -314q8 -65 12.5 -125t10.5 -132h3q3 37 7 69t8.5 63t9.5 61.5t11 63.5l47 314h62l50 -303q11 -61 19.5 -124.5t15.5 -144.5h2l7.5 76.5t7 67t6 60.5t5.5 58l32 310h88l-99 -707h-88l-49 285q-8 50 -15.5 111l-15.5 124h-2l-15.5 -124t-17.5 -113
l-47 -283h-81zM172 152q0 -13 1.5 -29t3.5 -29q6 -26 17 -35t17 -9q17 0 27 16t14.5 41.5t5.5 58t1 65.5q0 40 -2.5 73.5t-8 58t-15 38t-24.5 13.5q-12 0 -21.5 -16t-11.5 -36q-2 -11 -3 -25.5t-1 -25.5v-159zM82 333q0 58 -1 93t-3 62h80l4 -52h2q15 34 34 46t34 12
q32 0 54 -18.5t36 -52.5t20.5 -82.5t6.5 -108.5q0 -72 -10.5 -121.5t-27 -80t-38.5 -44.5t-44 -14q-28 0 -39.5 16t-15.5 30h-2v-216h-90v531z" />
    <glyph glyph-name="uni33BB" unicode="&#x33bb;" 
d="M49 356q0 42 -1 70t-3 59h77l4 -52h2q17 29 42.5 44.5t57.5 15.5q57 0 82 -42.5t25 -120.5v-330h-89v321q0 17 -1.5 34.5t-6.5 31t-15 22t-27 8.5q-16 0 -32 -15.5t-23 -49.5q-3 -17 -3 -45v-307h-89v356zM456 -21l-105 707h92l39 -314q8 -65 12.5 -125t10.5 -132h3
q3 37 7 69t8.5 63t9.5 61.5t11 63.5l47 314h62l50 -303q11 -61 19.5 -124.5t15.5 -144.5h2l7.5 76.5t7 67t6 60.5t5.5 58l32 310h88l-99 -707h-88l-49 285q-8 50 -15.5 111l-15.5 124h-2l-15.5 -124t-17.5 -113l-47 -283h-81z" />
    <glyph glyph-name="uni33BC" unicode="&#x33bc;" 
d="M522 -21l-89 707h86l14 -155t15 -155l5.5 -63t4 -60.5l3 -63t3.5 -70.5h5q3 38 6 71t7 63.5l8 60t9 62.5l19.5 155t20.5 155h49l21.5 -148.5l21.5 -148.5l17.5 -124t13.5 -148h3q4 43 6.5 79t5 67.5t4 60t3.5 56.5q5 77 10.5 153t10.5 153h81l-38.5 -354l-38.5 -353h-80
l-37 250q-4 23 -7 49t-6 55l-18 154h-2l-12 -104.5t-12 -95.5l-8 -60l-34 -248h-71zM237 341l-24 -88l-25 -88q-4 -12 -7 -26t-3 -25q0 -17 8.5 -27.5t28.5 -10.5q15 0 29 9.5t26 23.5t21.5 30t15.5 29q5 11 10.5 25.5t9.5 26.5l40 141l79 -20l-51 -191q-5 -16 -10.5 -36
t-5.5 -34q0 -23 22 -21l-20 -68q-8 -1 -14.5 -1.5t-14.5 1.5q-22 3 -34 18.5t-12 48.5q-21 -30 -50.5 -48.5t-59.5 -18.5q-17 0 -31 6.5t-23 22.5l-8 -28.5t-7 -27.5q-10 -35 -19.5 -75t-14.5 -75h-81q3 56 31 156l57.5 195l57.5 196z" />
    <glyph glyph-name="uni33BD" unicode="&#x33bd;" 
d="M517 -21l-88 707h85q8 -78 15 -155l14 -155q4 -33 6 -63l4 -60.5t3.5 -63t3.5 -70.5h4q3 38 6 71t7 63.5l8 60t9 62.5l40 310h54l21.5 -148.5l21.5 -148.5l17.5 -124t13.5 -148h3q4 43 6.5 79t5 67.5t4 60t3.5 56.5q5 77 10.5 153t10.5 153h81l-38.5 -354l-38.5 -353h-82
l-37 250q-4 23 -7 49t-7 55q-5 36 -9 75l-8 79h-2l-12 -104.5t-12 -95.5l-4 -31l-4 -29l-34 -248h-74zM64 354q0 23 -0.5 40.5t-1 33t-1 29.5t-0.5 31h71l3 -49h1q8 17 17.5 27.5t19.5 16.5q12 9 27 9h7q19 -1 33.5 -13.5t23.5 -42.5h1q7 14 15.5 26t17.5 19q8 7 18.5 10
t19.5 3q45 0 59.5 -43t14.5 -116v-356h-76v333q0 18 -1.5 37t-4.5 34.5t-8.5 25t-14.5 9.5q-11 0 -16.5 -14.5t-8.5 -37.5q-2 -12 -2 -25.5v-25.5v-336h-79v349q0 13 -0.5 29t-2.5 29.5t-6.5 22.5t-12.5 9q-26 0 -31 -58q-1 -11 -1 -22.5v-23.5v-335h-81v375z" />
    <glyph glyph-name="uni33BE" unicode="&#x33be;" 
d="M456 -21l-105 707h92l38 -314q8 -65 13 -125t10 -132h3q3 37 7.5 69l9 63t9.5 61.5t11 63.5q11 79 23 157l24 157h62l25 -151.5l25 -151.5q10 -61 19 -124.5t16 -144.5h2l26 262l32 310h87l-48.5 -354l-49.5 -353h-88l-46 269q-3 13 -5 27l-4 29q-7 44 -13 94l-12 101h-2
l-12 -101t-14 -95q-3 -16 -5.5 -31t-4.5 -30l-22 -131.5l-22 -131.5h-81zM159 253h3l8.5 34.5t9.5 28.5l63 172h89l-96 -217l48 -146.5l49 -145.5h-92l-32.5 113.5l-32.5 113.5q-4 -11 -8.5 -21t-8.5 -21v-185h-88v715h88v-441z" />
    <glyph glyph-name="uni33BF" unicode="&#x33bf;" 
d="M329 255q-3 57 -4.5 118.5t-0.5 110.5h-4l-10 -109.5t-13 -97.5l-48 -291h-48l-47 277q-9 51 -18 109t-16 112h-4q1 -54 -1.5 -112t-4.5 -121l-9 -272h-68l42 707h66l47 -298q7 -36 12.5 -67.5t10 -60.5l8.5 -57t8 -59h3q3 31 7 59t7.5 57t8 60l9.5 68l40 298h71l39 -707
h-71zM526 -21l-89 707h85l29 -310q4 -33 6 -63l4 -60.5t3.5 -63t3.5 -70.5h4q3 38 6 71t7 63.5l8 60t9 62.5l40 310h48l43 -297q9 -60 17.5 -123.5t13.5 -148.5h3q4 43 6.5 79.5t5 68t4 59.5t3.5 56l21 306h81l-78 -707h-78l-40 270q-7 48 -14 111l-14 127h-2
q-8 -66 -14.5 -127.5t-14.5 -112.5l-37 -268h-70z" />
    <glyph glyph-name="uni3390" unicode="&#x3390;" 
d="M542 57l66.5 128l66.5 128l12 21t11 21l15.5 27t12.5 24v2h-166v77h269v-63l-66 -125l-65 -125q-14 -23 -27 -47l-25 -47v-2h184v-76h-288v57zM216 674v-284h173v284h93v-674h-93v305h-173v-305h-94v674h94z" />
    <glyph glyph-name="uni3391" unicode="&#x3391;" 
d="M434 686v-302h104v302h91v-707h-91v318h-104v-318h-93v707h93zM149 252h3q5 20 7.5 35t6.5 29l26 86l25 86h83l-80 -219l38.5 -145l37.5 -145h-86l-48 226l-6 -19.5t-7 -19.5v-187h-84v712h84v-439zM650 37l53 136.5l54 136.5l8 21.5l8 21.5l13.5 29.5t8.5 25.5v2h-127
v77h221v-65l-56 -139l-56 -141q-2 -6 -5.5 -12t-5.5 -11q-7 -17 -12.5 -32.5t-9.5 -29.5v-2h143v-76h-237v58z" />
    </font>
</defs>
</svg>
